STARTFONT 2.1
FONT -FontForge-STIX Two Math-Book-R-Normal--20-200-72-72-P-137-ISO10646-1
SIZE 20 72 72
FONTBOUNDINGBOX 81 86 -20 -33
COMMENT "Generated by fontforge, http://fontforge.sourceforge.net"
COMMENT "Copyright 2001-2021 The STIX Fonts Project Authors (https://github.com/stipub/stixfonts)"
STARTPROPERTIES 40
FOUNDRY "FontForge"
FAMILY_NAME "STIX Two Math"
WEIGHT_NAME "Book"
SLANT "R"
SETWIDTH_NAME "Normal"
ADD_STYLE_NAME ""
PIXEL_SIZE 20
POINT_SIZE 200
RESOLUTION_X 72
RESOLUTION_Y 72
SPACING "P"
AVERAGE_WIDTH 137
CHARSET_REGISTRY "ISO10646"
CHARSET_ENCODING "1"
FONTNAME_REGISTRY ""
CHARSET_COLLECTIONS "ASCII ISOLatin1Encoding ISO8859-2 ISO8859-5 ISO8859-7 ISO8859-9 ISO8859-4 ISO10646-1"
FONT_NAME "STIXTwoMath-Regular"
FACE_NAME "STIX Two Math Regular"
COPYRIGHT "Copyright 2001-2021 The STIX Fonts Project Authors (https://github.com/stipub/stixfonts)"
FONT_VERSION "2.12 b168a"
FONT_ASCENT 15
FONT_DESCENT 5
UNDERLINE_POSITION -2
UNDERLINE_THICKNESS 2
X_HEIGHT 9
CAP_HEIGHT 13
RAW_ASCENT 762
RAW_DESCENT 238
NORM_SPACE 5
RELATIVE_WEIGHT 40
RELATIVE_SETWIDTH 50
SUPERSCRIPT_X 0
SUPERSCRIPT_Y 10
SUPERSCRIPT_SIZE 10
SUBSCRIPT_X 0
SUBSCRIPT_Y 5
SUBSCRIPT_SIZE 10
FIGURE_WIDTH 10
AVG_LOWERCASE_WIDTH 99
AVG_UPPERCASE_WIDTH 135
ENDPROPERTIES
CHARS 6611
STARTCHAR space
ENCODING 32
SWIDTH 235 0
DWIDTH 5 0
BBX 1 1 0 0
BITMAP
00
ENDCHAR
STARTCHAR exclam
ENCODING 33
SWIDTH 283 0
DWIDTH 6 0
BBX 2 14 2 0
BITMAP
C0
C0
C0
C0
C0
C0
80
80
80
80
80
00
C0
C0
ENDCHAR
STARTCHAR quotedbl
ENCODING 34
SWIDTH 334 0
DWIDTH 7 0
BBX 5 4 1 10
BITMAP
D8
90
90
90
ENDCHAR
STARTCHAR numbersign
ENCODING 35
SWIDTH 702 0
DWIDTH 14 0
BBX 12 14 1 0
BITMAP
0840
0840
08C0
0880
7FF0
1080
1080
1080
1080
FFE0
1100
3100
2100
2100
ENDCHAR
STARTCHAR dollar
ENCODING 36
SWIDTH 495 0
DWIDTH 10 0
BBX 8 16 1 -2
BITMAP
7C
D3
91
91
D0
70
3C
1E
17
13
93
93
93
7C
10
10
ENDCHAR
STARTCHAR percent
ENCODING 37
SWIDTH 692 0
DWIDTH 14 0
BBX 12 14 1 0
BITMAP
38E0
4740
C480
8980
8900
8B00
6200
04E0
0590
0910
0910
1310
2120
21C0
ENDCHAR
STARTCHAR ampersand
ENCODING 38
SWIDTH 736 0
DWIDTH 15 0
BBX 13 14 1 0
BITMAP
1E00
3100
3100
3100
1200
1CF8
1860
6C40
CC40
C680
8380
C300
C388
7CF0
ENDCHAR
STARTCHAR quotesingle
ENCODING 39
SWIDTH 187 0
DWIDTH 4 0
BBX 2 4 1 10
BITMAP
C0
80
80
80
ENDCHAR
STARTCHAR parenleft
ENCODING 40
SWIDTH 357 0
DWIDTH 7 0
BBX 6 19 1 -4
BITMAP
04
18
30
20
40
40
C0
C0
C0
C0
C0
C0
C0
40
40
60
20
10
0C
ENDCHAR
STARTCHAR parenright
ENCODING 41
SWIDTH 357 0
DWIDTH 7 0
BBX 5 19 1 -4
BITMAP
80
40
20
30
10
18
18
18
08
08
08
18
18
18
10
30
20
40
80
ENDCHAR
STARTCHAR asterisk
ENCODING 42
SWIDTH 410 0
DWIDTH 8 0
BBX 6 8 1 6
BITMAP
30
30
94
DC
30
DC
94
30
ENDCHAR
STARTCHAR plus
ENCODING 43
SWIDTH 720 0
DWIDTH 14 0
BBX 12 13 1 -1
BITMAP
0600
0600
0600
0600
0600
0600
FFF0
0600
0600
0600
0600
0600
0600
ENDCHAR
STARTCHAR comma
ENCODING 44
SWIDTH 245 0
DWIDTH 5 0
BBX 3 5 1 -3
BITMAP
E0
E0
20
40
80
ENDCHAR
STARTCHAR hyphen
ENCODING 45
SWIDTH 315 0
DWIDTH 6 0
BBX 4 1 1 5
BITMAP
F0
ENDCHAR
STARTCHAR period
ENCODING 46
SWIDTH 245 0
DWIDTH 5 0
BBX 3 2 1 0
BITMAP
E0
C0
ENDCHAR
STARTCHAR slash
ENCODING 47
SWIDTH 386 0
DWIDTH 8 0
BBX 6 16 1 -2
BITMAP
04
0C
08
08
18
10
10
10
20
20
20
40
40
40
80
80
ENDCHAR
STARTCHAR zero
ENCODING 48
SWIDTH 495 0
DWIDTH 10 0
BBX 8 14 1 0
BITMAP
3C
66
C2
C3
C3
83
83
83
83
C3
C3
C3
66
3C
ENDCHAR
STARTCHAR one
ENCODING 49
SWIDTH 495 0
DWIDTH 10 0
BBX 8 14 1 0
BITMAP
18
F8
18
18
18
18
18
18
18
18
18
18
18
7F
ENDCHAR
STARTCHAR two
ENCODING 50
SWIDTH 495 0
DWIDTH 10 0
BBX 8 14 1 0
BITMAP
3C
C6
82
03
03
02
06
04
08
10
21
41
FF
FF
ENDCHAR
STARTCHAR three
ENCODING 51
SWIDTH 495 0
DWIDTH 10 0
BBX 8 14 1 0
BITMAP
3C
46
86
06
04
08
3C
06
03
03
03
02
C6
F8
ENDCHAR
STARTCHAR four
ENCODING 52
SWIDTH 495 0
DWIDTH 10 0
BBX 10 14 0 0
BITMAP
0300
0700
0700
0B00
1300
1300
2300
4300
4300
FFC0
0300
0300
0300
0300
ENDCHAR
STARTCHAR five
ENCODING 53
SWIDTH 495 0
DWIDTH 10 0
BBX 8 13 1 0
BITMAP
3F
3E
20
40
78
7E
07
03
03
03
02
C6
F8
ENDCHAR
STARTCHAR six
ENCODING 54
SWIDTH 495 0
DWIDTH 10 0
BBX 8 14 1 0
BITMAP
06
18
30
60
40
DC
E6
C3
C3
C3
C3
C3
62
3C
ENDCHAR
STARTCHAR seven
ENCODING 55
SWIDTH 495 0
DWIDTH 10 0
BBX 8 13 1 0
BITMAP
7F
FF
83
02
02
04
04
0C
08
18
18
10
30
ENDCHAR
STARTCHAR eight
ENCODING 56
SWIDTH 495 0
DWIDTH 10 0
BBX 8 14 1 0
BITMAP
3C
42
C2
C2
C2
74
38
3C
46
C3
83
C3
C2
3C
ENDCHAR
STARTCHAR nine
ENCODING 57
SWIDTH 495 0
DWIDTH 10 0
BBX 8 14 1 0
BITMAP
3C
46
C2
C3
C3
C3
C3
47
3B
02
06
04
18
70
ENDCHAR
STARTCHAR colon
ENCODING 58
SWIDTH 245 0
DWIDTH 5 0
BBX 3 9 1 0
BITMAP
E0
C0
00
00
00
00
00
E0
C0
ENDCHAR
STARTCHAR semicolon
ENCODING 59
SWIDTH 245 0
DWIDTH 5 0
BBX 3 12 1 -3
BITMAP
E0
C0
00
00
00
00
00
E0
E0
20
40
80
ENDCHAR
STARTCHAR less
ENCODING 60
SWIDTH 720 0
DWIDTH 14 0
BBX 12 12 1 -1
BITMAP
0010
0070
01C0
0700
1C00
F000
3800
0E00
0380
00E0
0030
0010
ENDCHAR
STARTCHAR equal
ENCODING 61
SWIDTH 720 0
DWIDTH 14 0
BBX 12 6 1 3
BITMAP
FFF0
0000
0000
0000
0000
FFF0
ENDCHAR
STARTCHAR greater
ENCODING 62
SWIDTH 720 0
DWIDTH 14 0
BBX 12 12 1 -1
BITMAP
8000
6000
1800
0600
01C0
0070
00E0
0380
0E00
3800
C000
8000
ENDCHAR
STARTCHAR question
ENCODING 63
SWIDTH 411 0
DWIDTH 8 0
BBX 7 14 1 0
BITMAP
78
8C
86
C6
06
0C
08
18
10
10
10
00
30
30
ENDCHAR
STARTCHAR at
ENCODING 64
SWIDTH 905 0
DWIDTH 18 0
BBX 16 17 1 -4
BITMAP
03E0
0C18
3004
2006
43B2
4673
CC31
CC31
CC21
CC23
CC22
4C62
47BC
6000
3000
180C
07F0
ENDCHAR
STARTCHAR A
ENCODING 65
SWIDTH 718 0
DWIDTH 14 0
BBX 14 14 0 0
BITMAP
0300
0300
0380
0580
0580
0CC0
08C0
08E0
1860
1FE0
3070
2030
6038
F07C
ENDCHAR
STARTCHAR B
ENCODING 66
SWIDTH 618 0
DWIDTH 12 0
BBX 11 14 1 0
BITMAP
FF00
3180
30C0
30C0
30C0
3180
3E00
3180
30C0
3060
3060
30C0
30C0
FF80
ENDCHAR
STARTCHAR C
ENCODING 67
SWIDTH 670 0
DWIDTH 13 0
BBX 12 14 1 0
BITMAP
0FA0
3060
6020
6020
C020
C000
C000
C000
C000
C000
6000
6010
3060
0F80
ENDCHAR
STARTCHAR D
ENCODING 68
SWIDTH 730 0
DWIDTH 15 0
BBX 13 14 1 0
BITMAP
FF80
30C0
3060
3030
3030
3038
3038
3038
3030
3030
3030
3060
30C0
FF80
ENDCHAR
STARTCHAR E
ENCODING 69
SWIDTH 626 0
DWIDTH 13 0
BBX 11 14 1 0
BITMAP
FFC0
3040
3040
3000
3080
3080
3080
3F80
3080
3000
3020
3020
3060
FFC0
ENDCHAR
STARTCHAR F
ENCODING 70
SWIDTH 588 0
DWIDTH 12 0
BBX 10 14 1 0
BITMAP
FFC0
3040
3040
3000
3080
3080
3F80
3080
3080
3000
3000
3000
3000
FC00
ENDCHAR
STARTCHAR G
ENCODING 71
SWIDTH 720 0
DWIDTH 14 0
BBX 13 14 1 0
BITMAP
0FA0
3060
6020
6020
C020
C000
C000
C0F8
C060
C020
6020
6020
3060
1FC0
ENDCHAR
STARTCHAR H
ENCODING 72
SWIDTH 777 0
DWIDTH 16 0
BBX 14 14 1 0
BITMAP
FCFC
3030
3030
3030
3030
3030
3030
3FF0
3030
3030
3030
3030
3030
FCFC
ENDCHAR
STARTCHAR I
ENCODING 73
SWIDTH 357 0
DWIDTH 7 0
BBX 5 14 1 0
BITMAP
F8
30
20
20
20
20
20
20
20
20
20
20
30
F8
ENDCHAR
STARTCHAR J
ENCODING 74
SWIDTH 396 0
DWIDTH 8 0
BBX 8 14 0 0
BITMAP
3F
0C
0C
0C
0C
0C
0C
0C
0C
0C
0C
8C
C8
78
ENDCHAR
STARTCHAR K
ENCODING 75
SWIDTH 702 0
DWIDTH 14 0
BBX 13 14 1 0
BITMAP
F9F0
30C0
2080
2100
2200
2400
2800
3C00
2600
2300
2180
20C0
30E0
F9F8
ENDCHAR
STARTCHAR L
ENCODING 76
SWIDTH 585 0
DWIDTH 12 0
BBX 10 14 1 0
BITMAP
F800
3000
3000
3000
3000
3000
3000
3000
3000
3000
3040
3040
3040
FFC0
ENDCHAR
STARTCHAR M
ENCODING 77
SWIDTH 895 0
DWIDTH 18 0
BBX 16 14 1 0
BITMAP
F00F
700C
781C
581C
583C
4C2C
4C2C
464C
464C
46CC
438C
438C
610C
F11F
ENDCHAR
STARTCHAR N
ENCODING 78
SWIDTH 742 0
DWIDTH 15 0
BBX 13 14 1 0
BITMAP
E078
7030
7830
5C20
4C20
4E20
4720
4320
41A0
41E0
40E0
4060
6020
F020
ENDCHAR
STARTCHAR O
ENCODING 79
SWIDTH 738 0
DWIDTH 15 0
BBX 13 14 1 0
BITMAP
0F80
3060
6030
6030
C030
C018
C018
C018
C018
C030
6030
6020
3060
0F80
ENDCHAR
STARTCHAR P
ENCODING 80
SWIDTH 569 0
DWIDTH 11 0
BBX 10 14 1 0
BITMAP
FF00
3180
30C0
30C0
30C0
3080
3180
3E00
3000
3000
3000
3000
3000
FC00
ENDCHAR
STARTCHAR Q
ENCODING 81
SWIDTH 737 0
DWIDTH 15 0
BBX 13 18 1 -4
BITMAP
0F80
3060
6030
6030
C030
C018
C018
C018
C018
C030
6030
6020
3060
1F80
0380
0180
01E0
0078
ENDCHAR
STARTCHAR R
ENCODING 82
SWIDTH 659 0
DWIDTH 13 0
BBX 12 14 1 0
BITMAP
FF00
3180
30C0
30C0
30C0
30C0
3180
3E00
3600
3300
3180
31C0
30C0
F870
ENDCHAR
STARTCHAR S
ENCODING 83
SWIDTH 504 0
DWIDTH 10 0
BBX 8 14 1 0
BITMAP
3F
43
C1
C1
E0
70
3C
1E
07
03
83
83
C3
FE
ENDCHAR
STARTCHAR T
ENCODING 84
SWIDTH 603 0
DWIDTH 12 0
BBX 12 14 0 0
BITMAP
FFF0
C630
8610
8610
0600
0600
0600
0600
0600
0600
0600
0600
0600
1F80
ENDCHAR
STARTCHAR U
ENCODING 85
SWIDTH 752 0
DWIDTH 15 0
BBX 15 14 0 0
BITMAP
FC3E
3018
3008
3008
3008
3008
3008
3008
3008
3008
1008
1810
1830
07C0
ENDCHAR
STARTCHAR V
ENCODING 86
SWIDTH 680 0
DWIDTH 14 0
BBX 14 14 0 0
BITMAP
F83C
7010
3010
3020
1820
1820
1C40
0C40
0C80
0680
0680
0700
0300
0200
ENDCHAR
STARTCHAR W
ENCODING 87
SWIDTH 944 0
DWIDTH 19 0
BBX 19 14 0 0
BITMAP
F9F1E0
70C080
306080
306080
186100
187100
18B100
0CB200
0C9A00
0D1A00
071C00
070C00
020C00
020400
ENDCHAR
STARTCHAR X
ENCODING 88
SWIDTH 664 0
DWIDTH 13 0
BBX 13 14 0 0
BITMAP
FCF8
3820
1840
1CC0
0C80
0700
0700
0700
0580
0980
10C0
3060
2070
F0F8
ENDCHAR
STARTCHAR Y
ENCODING 89
SWIDTH 647 0
DWIDTH 13 0
BBX 13 14 0 0
BITMAP
F878
7020
3020
1840
1C80
0C80
0700
0700
0200
0200
0200
0200
0700
0FC0
ENDCHAR
STARTCHAR Z
ENCODING 90
SWIDTH 594 0
DWIDTH 12 0
BBX 10 14 1 0
BITMAP
FFC0
C1C0
8180
8300
0700
0600
0C00
1C00
1800
3000
7040
6040
E040
FFC0
ENDCHAR
STARTCHAR bracketleft
ENCODING 91
SWIDTH 349 0
DWIDTH 7 0
BBX 4 20 2 -4
BITMAP
F0
80
80
80
80
80
80
80
80
80
80
80
80
80
80
80
80
80
80
F0
ENDCHAR
STARTCHAR backslash
ENCODING 92
SWIDTH 385 0
DWIDTH 8 0
BBX 6 16 1 -2
BITMAP
80
80
C0
40
40
60
20
20
20
10
10
10
08
08
08
04
ENDCHAR
STARTCHAR bracketright
ENCODING 93
SWIDTH 349 0
DWIDTH 7 0
BBX 4 20 1 -4
BITMAP
F0
10
10
10
10
10
10
10
10
10
10
10
10
10
10
10
10
10
10
F0
ENDCHAR
STARTCHAR asciicircum
ENCODING 94
SWIDTH 480 0
DWIDTH 10 0
BBX 8 8 1 6
BITMAP
10
18
28
24
44
42
C2
81
ENDCHAR
STARTCHAR underscore
ENCODING 95
SWIDTH 512 0
DWIDTH 10 0
BBX 10 1 0 -3
BITMAP
FFC0
ENDCHAR
STARTCHAR grave
ENCODING 96
SWIDTH 222 0
DWIDTH 4 0
BBX 3 3 1 11
BITMAP
C0
40
20
ENDCHAR
STARTCHAR a
ENCODING 97
SWIDTH 480 0
DWIDTH 10 0
BBX 9 10 1 0
BITMAP
3C00
C400
C600
0600
0E00
7600
C600
C600
CE00
7780
ENDCHAR
STARTCHAR b
ENCODING 98
SWIDTH 522 0
DWIDTH 10 0
BBX 10 14 0 0
BITMAP
E000
2000
2000
2000
2700
3980
2080
20C0
20C0
20C0
2080
2080
3100
3E00
ENDCHAR
STARTCHAR c
ENCODING 99
SWIDTH 446 0
DWIDTH 9 0
BBX 8 10 1 0
BITMAP
3C
46
82
80
80
80
C1
C2
7E
3C
ENDCHAR
STARTCHAR d
ENCODING 100
SWIDTH 539 0
DWIDTH 11 0
BBX 9 14 1 0
BITMAP
0700
0300
0300
0300
3F00
4300
C300
C300
8300
8300
C300
C300
C300
7F80
ENDCHAR
STARTCHAR e
ENCODING 101
SWIDTH 464 0
DWIDTH 9 0
BBX 8 10 1 0
BITMAP
3C
46
82
FF
80
80
C1
E2
7E
3C
ENDCHAR
STARTCHAR f
ENCODING 102
SWIDTH 307 0
DWIDTH 6 0
BBX 8 15 0 0
BITMAP
0E
13
30
30
30
7C
30
30
30
30
30
30
30
30
FC
ENDCHAR
STARTCHAR g
ENCODING 103
SWIDTH 484 0
DWIDTH 10 0
BBX 9 15 0 -5
BITMAP
1F80
6300
6300
6300
6300
2300
3E00
6000
7F00
3F80
4080
4080
C080
6100
3E00
ENDCHAR
STARTCHAR h
ENCODING 104
SWIDTH 577 0
DWIDTH 12 0
BBX 11 14 0 0
BITMAP
F000
3000
3000
3000
3780
3880
30C0
30C0
30C0
30C0
30C0
30C0
30C0
79E0
ENDCHAR
STARTCHAR i
ENCODING 105
SWIDTH 285 0
DWIDTH 6 0
BBX 4 14 1 0
BITMAP
60
60
00
00
E0
60
60
60
60
60
60
60
60
F0
ENDCHAR
STARTCHAR j
ENCODING 106
SWIDTH 263 0
DWIDTH 5 0
BBX 6 19 -2 -5
BITMAP
0C
0C
00
00
1C
0C
0C
0C
0C
0C
0C
0C
0C
0C
0C
0C
08
C8
70
ENDCHAR
STARTCHAR k
ENCODING 107
SWIDTH 542 0
DWIDTH 11 0
BBX 10 14 1 0
BITMAP
E000
6000
6000
6000
6780
6200
6400
6800
7800
7800
6C00
6600
6300
F7C0
ENDCHAR
STARTCHAR l
ENCODING 108
SWIDTH 283 0
DWIDTH 6 0
BBX 4 14 1 0
BITMAP
E0
60
60
60
60
60
60
60
60
60
60
60
60
F0
ENDCHAR
STARTCHAR m
ENCODING 109
SWIDTH 852 0
DWIDTH 17 0
BBX 16 10 1 0
BITMAP
EF78
718C
610C
610C
610C
610C
610C
610C
618C
F7DF
ENDCHAR
STARTCHAR n
ENCODING 110
SWIDTH 576 0
DWIDTH 12 0
BBX 10 10 1 0
BITMAP
EF00
7100
6180
6180
6180
6180
6180
6180
6180
F7C0
ENDCHAR
STARTCHAR o
ENCODING 111
SWIDTH 514 0
DWIDTH 10 0
BBX 9 10 1 0
BITMAP
3C00
4300
C300
C100
C180
C180
C100
C300
6300
3C00
ENDCHAR
STARTCHAR p
ENCODING 112
SWIDTH 537 0
DWIDTH 11 0
BBX 10 15 0 -5
BITMAP
F700
3980
30C0
30C0
30C0
30C0
30C0
3080
3180
3F00
3000
3000
3000
3000
FC00
ENDCHAR
STARTCHAR q
ENCODING 113
SWIDTH 521 0
DWIDTH 10 0
BBX 9 15 1 -5
BITMAP
3D00
4300
C300
8300
8300
8300
C300
C300
E700
7B00
0300
0300
0300
0300
0F80
ENDCHAR
STARTCHAR r
ENCODING 114
SWIDTH 380 0
DWIDTH 8 0
BBX 6 10 1 0
BITMAP
EC
7C
60
60
60
60
60
60
60
F8
ENDCHAR
STARTCHAR s
ENCODING 115
SWIDTH 395 0
DWIDTH 8 0
BBX 6 10 1 0
BITMAP
7C
84
84
C0
70
3C
0C
84
84
F8
ENDCHAR
STARTCHAR t
ENCODING 116
SWIDTH 315 0
DWIDTH 6 0
BBX 5 13 1 0
BITMAP
20
60
60
F8
60
60
60
60
60
60
60
68
70
ENDCHAR
STARTCHAR u
ENCODING 117
SWIDTH 570 0
DWIDTH 11 0
BBX 11 10 0 0
BITMAP
E380
2080
2080
2080
2080
2080
2080
3080
3180
1EE0
ENDCHAR
STARTCHAR v
ENCODING 118
SWIDTH 481 0
DWIDTH 10 0
BBX 10 10 0 0
BITMAP
F3C0
6080
6100
3100
3100
1200
1A00
1C00
0C00
0800
ENDCHAR
STARTCHAR w
ENCODING 119
SWIDTH 749 0
DWIDTH 15 0
BBX 15 10 0 0
BITMAP
F7CE
6184
6184
3188
31C8
12C8
1A50
1C70
0C60
0820
ENDCHAR
STARTCHAR x
ENCODING 120
SWIDTH 479 0
DWIDTH 10 0
BBX 10 10 0 0
BITMAP
FB80
3100
3200
1C00
0C00
0C00
1600
2300
6300
E7C0
ENDCHAR
STARTCHAR y
ENCODING 121
SWIDTH 483 0
DWIDTH 10 0
BBX 10 15 0 -5
BITMAP
F3C0
6080
6100
3100
3100
1A00
1A00
0A00
0C00
0C00
0800
0800
0800
F000
E000
ENDCHAR
STARTCHAR z
ENCODING 122
SWIDTH 458 0
DWIDTH 9 0
BBX 8 10 1 0
BITMAP
FE
86
8C
0C
18
30
30
61
C2
FE
ENDCHAR
STARTCHAR braceleft
ENCODING 123
SWIDTH 327 0
DWIDTH 7 0
BBX 6 19 0 -5
BITMAP
1C
30
20
20
30
30
30
30
20
C0
20
30
30
30
30
20
20
30
1C
ENDCHAR
STARTCHAR bar
ENCODING 124
SWIDTH 267 0
DWIDTH 5 0
BBX 1 19 2 -5
BITMAP
80
80
80
80
80
80
80
80
80
80
80
80
80
80
80
80
80
80
80
ENDCHAR
STARTCHAR braceright
ENCODING 125
SWIDTH 327 0
DWIDTH 7 0
BBX 5 19 1 -5
BITMAP
C0
20
30
30
30
20
20
20
20
18
10
20
20
20
30
30
30
20
C0
ENDCHAR
STARTCHAR asciitilde
ENCODING 126
SWIDTH 557 0
DWIDTH 11 0
BBX 10 2 1 4
BITMAP
78C0
8700
ENDCHAR
STARTCHAR uni00A0
ENCODING 160
SWIDTH 235 0
DWIDTH 5 0
BBX 1 1 0 0
BITMAP
00
ENDCHAR
STARTCHAR exclamdown
ENCODING 161
SWIDTH 282 0
DWIDTH 6 0
BBX 2 14 2 -4
BITMAP
C0
C0
00
80
80
80
80
C0
C0
C0
C0
C0
C0
80
ENDCHAR
STARTCHAR cent
ENCODING 162
SWIDTH 495 0
DWIDTH 10 0
BBX 8 14 1 0
BITMAP
08
08
3E
4F
4B
C8
C8
C8
C8
C9
6A
3E
10
10
ENDCHAR
STARTCHAR sterling
ENCODING 163
SWIDTH 495 0
DWIDTH 10 0
BBX 10 14 0 0
BITMAP
0700
0980
1080
1000
1000
1000
1800
7E00
1800
1800
1800
7040
9C80
6700
ENDCHAR
STARTCHAR currency
ENCODING 164
SWIDTH 617 0
DWIDTH 12 0
BBX 11 10 1 1
BITMAP
8060
5FC0
2180
4080
4080
4080
4080
2180
5EC0
8060
ENDCHAR
STARTCHAR yen
ENCODING 165
SWIDTH 495 0
DWIDTH 10 0
BBX 10 13 0 0
BITMAP
F3C0
6080
3100
3100
1A00
1A00
0C00
7F80
0C00
7F80
0C00
0C00
3F00
ENDCHAR
STARTCHAR brokenbar
ENCODING 166
SWIDTH 267 0
DWIDTH 5 0
BBX 1 15 2 -1
BITMAP
80
80
80
80
80
80
00
00
00
80
80
80
80
80
80
ENDCHAR
STARTCHAR section
ENCODING 167
SWIDTH 491 0
DWIDTH 10 0
BBX 7 19 1 -5
BITMAP
3C
62
42
66
60
38
3C
4C
46
42
62
72
3C
1C
0C
46
C6
44
38
ENDCHAR
STARTCHAR dieresis
ENCODING 168
SWIDTH 392 0
DWIDTH 8 0
BBX 6 2 1 12
BITMAP
CC
CC
ENDCHAR
STARTCHAR copyright
ENCODING 169
SWIDTH 781 0
DWIDTH 16 0
BBX 14 14 1 0
BITMAP
0F80
1060
2010
47C8
8848
9848
9804
9804
9808
8848
4788
2010
1060
0F80
ENDCHAR
STARTCHAR ordfeminine
ENCODING 170
SWIDTH 410 0
DWIDTH 8 0
BBX 7 8 1 5
BITMAP
78
C8
8C
3C
CC
8C
8C
FE
ENDCHAR
STARTCHAR guillemotleft
ENCODING 171
SWIDTH 517 0
DWIDTH 10 0
BBX 8 8 1 1
BITMAP
11
23
66
CC
CC
46
22
11
ENDCHAR
STARTCHAR logicalnot
ENCODING 172
SWIDTH 720 0
DWIDTH 14 0
BBX 12 7 1 1
BITMAP
FFF0
0030
0030
0030
0030
0030
0030
ENDCHAR
STARTCHAR uni00AD
ENCODING 173
SWIDTH 315 0
DWIDTH 6 0
BBX 4 1 1 5
BITMAP
F0
ENDCHAR
STARTCHAR registered
ENCODING 174
SWIDTH 413 0
DWIDTH 8 0
BBX 7 8 1 7
BITMAP
78
84
F2
AA
B2
EA
84
78
ENDCHAR
STARTCHAR macron
ENCODING 175
SWIDTH 350 0
DWIDTH 7 0
BBX 5 1 1 12
BITMAP
F8
ENDCHAR
STARTCHAR degree
ENCODING 176
SWIDTH 409 0
DWIDTH 8 0
BBX 6 6 1 8
BITMAP
78
C4
84
84
C4
78
ENDCHAR
STARTCHAR plusminus
ENCODING 177
SWIDTH 720 0
DWIDTH 14 0
BBX 12 13 1 0
BITMAP
0200
0200
0200
0200
0200
FFF0
0200
0200
0200
0200
0200
0000
FFF0
ENDCHAR
STARTCHAR twosuperior
ENCODING 178
SWIDTH 373 0
DWIDTH 7 0
BBX 6 10 1 5
BITMAP
70
98
0C
0C
08
10
20
44
84
FC
ENDCHAR
STARTCHAR threesuperior
ENCODING 179
SWIDTH 374 0
DWIDTH 7 0
BBX 6 10 1 5
BITMAP
70
98
08
10
70
08
0C
0C
88
F0
ENDCHAR
STARTCHAR acute
ENCODING 180
SWIDTH 222 0
DWIDTH 4 0
BBX 3 3 1 11
BITMAP
60
C0
80
ENDCHAR
STARTCHAR uni00B5
ENCODING 181
SWIDTH 556 0
DWIDTH 11 0
BBX 10 14 1 -4
BITMAP
C300
4300
4300
4300
4200
4200
4600
C740
B9C0
B980
8000
C000
C000
C000
ENDCHAR
STARTCHAR paragraph
ENCODING 182
SWIDTH 605 0
DWIDTH 12 0
BBX 10 17 1 -3
BITMAP
3FC0
4D00
CD00
CD00
CD00
CD00
4D00
6D00
1D00
0D00
0D00
0D00
0D00
0D00
0D00
0D00
3DC0
ENDCHAR
STARTCHAR periodcentered
ENCODING 183
SWIDTH 282 0
DWIDTH 6 0
BBX 2 2 2 4
BITMAP
C0
C0
ENDCHAR
STARTCHAR cedilla
ENCODING 184
SWIDTH 247 0
DWIDTH 5 0
BBX 3 5 1 -5
BITMAP
80
E0
20
20
E0
ENDCHAR
STARTCHAR onesuperior
ENCODING 185
SWIDTH 343 0
DWIDTH 7 0
BBX 5 10 1 5
BITMAP
E0
20
20
20
20
20
20
20
20
F8
ENDCHAR
STARTCHAR ordmasculine
ENCODING 186
SWIDTH 432 0
DWIDTH 9 0
BBX 7 8 1 5
BITMAP
78
C4
86
86
86
86
C4
78
ENDCHAR
STARTCHAR guillemotright
ENCODING 187
SWIDTH 517 0
DWIDTH 10 0
BBX 9 8 1 1
BITMAP
8800
4400
2200
3100
1180
2300
4600
8C00
ENDCHAR
STARTCHAR onequarter
ENCODING 188
SWIDTH 861 0
DWIDTH 17 0
BBX 16 15 1 0
BITMAP
0010
2010
E020
2020
2040
2080
2084
210C
210C
FA14
0224
0464
087F
0804
1004
ENDCHAR
STARTCHAR onehalf
ENCODING 189
SWIDTH 889 0
DWIDTH 18 0
BBX 16 15 1 0
BITMAP
0010
2010
E020
2020
2040
2080
209E
2123
2103
FA03
0202
0406
0808
0811
103F
ENDCHAR
STARTCHAR threequarters
ENCODING 190
SWIDTH 861 0
DWIDTH 17 0
BBX 16 15 1 0
BITMAP
0010
7010
8820
0820
1040
7080
0884
0D0C
890C
F214
0224
0424
087F
0804
1004
ENDCHAR
STARTCHAR questiondown
ENCODING 191
SWIDTH 411 0
DWIDTH 8 0
BBX 7 14 1 -4
BITMAP
30
30
00
10
10
20
20
40
C0
80
86
86
C4
78
ENDCHAR
STARTCHAR Agrave
ENCODING 192
SWIDTH 718 0
DWIDTH 14 0
BBX 14 17 0 0
BITMAP
0600
0300
0180
0300
0300
0380
0580
0580
0CC0
08C0
08E0
1860
1FE0
3070
2030
6038
F07C
ENDCHAR
STARTCHAR Aacute
ENCODING 193
SWIDTH 718 0
DWIDTH 14 0
BBX 14 17 0 0
BITMAP
0180
0300
0600
0300
0300
0380
0580
0580
0CC0
08C0
08E0
1860
1FE0
3070
2030
6038
F07C
ENDCHAR
STARTCHAR Acircumflex
ENCODING 194
SWIDTH 718 0
DWIDTH 14 0
BBX 14 17 0 0
BITMAP
0300
0780
0C40
0300
0300
0380
0580
0580
0CC0
08C0
08E0
1860
1FE0
3070
2030
6038
F07C
ENDCHAR
STARTCHAR Atilde
ENCODING 195
SWIDTH 718 0
DWIDTH 14 0
BBX 14 17 0 0
BITMAP
0620
09C0
0000
0300
0300
0380
0580
0580
0CC0
08C0
08E0
1860
1FE0
3070
2030
6038
F07C
ENDCHAR
STARTCHAR Adieresis
ENCODING 196
SWIDTH 718 0
DWIDTH 14 0
BBX 14 17 0 0
BITMAP
0CC0
0CC0
0000
0300
0300
0380
0580
0580
0CC0
08C0
08E0
1860
1FE0
3070
2030
6038
F07C
ENDCHAR
STARTCHAR Aring
ENCODING 197
SWIDTH 718 0
DWIDTH 14 0
BBX 14 18 0 0
BITMAP
0300
0480
0480
0300
0300
0300
0380
0580
0580
0CC0
08C0
08E0
1860
1FE0
3070
2030
6038
F07C
ENDCHAR
STARTCHAR AE
ENCODING 198
SWIDTH 894 0
DWIDTH 18 0
BBX 17 14 0 0
BITMAP
03FF80
01C180
02C080
02C080
04C000
04C200
08C200
0FFE00
18C200
10C200
20C080
20C080
60C080
F3FF80
ENDCHAR
STARTCHAR Ccedilla
ENCODING 199
SWIDTH 670 0
DWIDTH 13 0
BBX 12 19 1 -5
BITMAP
0FA0
3060
6020
6020
C020
C000
C000
C000
C000
C000
6000
6010
3060
0F80
0400
0600
0100
0100
0E00
ENDCHAR
STARTCHAR Egrave
ENCODING 200
SWIDTH 626 0
DWIDTH 13 0
BBX 11 17 1 0
BITMAP
1800
0C00
0200
FFC0
3040
3040
3000
3080
3080
3080
3F80
3080
3000
3020
3020
3060
FFC0
ENDCHAR
STARTCHAR Eacute
ENCODING 201
SWIDTH 626 0
DWIDTH 13 0
BBX 11 17 1 0
BITMAP
0300
0600
0800
FFC0
3040
3040
3000
3080
3080
3080
3F80
3080
3000
3020
3020
3060
FFC0
ENDCHAR
STARTCHAR Ecircumflex
ENCODING 202
SWIDTH 626 0
DWIDTH 13 0
BBX 11 17 1 0
BITMAP
0E00
0A00
1100
FFC0
3040
3040
3000
3080
3080
3080
3F80
3080
3000
3020
3020
3060
FFC0
ENDCHAR
STARTCHAR Edieresis
ENCODING 203
SWIDTH 626 0
DWIDTH 13 0
BBX 11 17 1 0
BITMAP
3380
3180
0000
FFC0
3040
3040
3000
3080
3080
3080
3F80
3080
3000
3020
3020
3060
FFC0
ENDCHAR
STARTCHAR Igrave
ENCODING 204
SWIDTH 357 0
DWIDTH 7 0
BBX 5 17 1 0
BITMAP
C0
60
10
F8
30
20
20
20
20
20
20
20
20
20
20
30
F8
ENDCHAR
STARTCHAR Iacute
ENCODING 205
SWIDTH 357 0
DWIDTH 7 0
BBX 5 17 1 0
BITMAP
18
30
40
F8
30
20
20
20
20
20
20
20
20
20
20
30
F8
ENDCHAR
STARTCHAR Icircumflex
ENCODING 206
SWIDTH 357 0
DWIDTH 7 0
BBX 6 17 1 0
BITMAP
30
50
8C
F8
30
20
20
20
20
20
20
20
20
20
20
30
F8
ENDCHAR
STARTCHAR Idieresis
ENCODING 207
SWIDTH 357 0
DWIDTH 7 0
BBX 7 17 0 0
BITMAP
E6
C6
00
7C
18
10
10
10
10
10
10
10
10
10
10
18
7C
ENDCHAR
STARTCHAR Eth
ENCODING 208
SWIDTH 737 0
DWIDTH 15 0
BBX 13 14 1 0
BITMAP
FF80
30E0
3060
3030
3030
3038
3038
FE18
3038
3030
3030
3060
30E0
FF80
ENDCHAR
STARTCHAR Ntilde
ENCODING 209
SWIDTH 742 0
DWIDTH 15 0
BBX 13 17 1 0
BITMAP
0E40
1180
0000
E078
7030
7830
5C20
4C20
4E20
4720
4320
41A0
41E0
40E0
4060
6020
F020
ENDCHAR
STARTCHAR Ograve
ENCODING 210
SWIDTH 738 0
DWIDTH 15 0
BBX 13 17 1 0
BITMAP
0C00
0600
0100
0F80
3060
6030
6030
C030
C018
C018
C018
C018
C030
6030
6020
3060
0F80
ENDCHAR
STARTCHAR Oacute
ENCODING 211
SWIDTH 738 0
DWIDTH 15 0
BBX 13 17 1 0
BITMAP
0180
0300
0400
0F80
3060
6030
6030
C030
C018
C018
C018
C018
C030
6030
6020
3060
0F80
ENDCHAR
STARTCHAR Ocircumflex
ENCODING 212
SWIDTH 738 0
DWIDTH 15 0
BBX 13 17 1 0
BITMAP
0600
0500
1880
0F80
3060
6030
6030
C030
C018
C018
C018
C018
C030
6030
6020
3060
0F80
ENDCHAR
STARTCHAR Otilde
ENCODING 213
SWIDTH 738 0
DWIDTH 15 0
BBX 13 17 1 0
BITMAP
0E40
1380
0000
0F80
3060
6030
6030
C030
C018
C018
C018
C018
C030
6030
6020
3060
0F80
ENDCHAR
STARTCHAR Odieresis
ENCODING 214
SWIDTH 738 0
DWIDTH 15 0
BBX 13 17 1 0
BITMAP
19C0
18C0
0000
0F80
3060
6030
6030
C030
C018
C018
C018
C018
C030
6030
6020
3060
0F80
ENDCHAR
STARTCHAR multiply
ENCODING 215
SWIDTH 720 0
DWIDTH 14 0
BBX 11 12 2 -1
BITMAP
8040
C060
6080
3180
1B00
0E00
0E00
1B00
3180
60C0
C060
8040
ENDCHAR
STARTCHAR Oslash
ENCODING 216
SWIDTH 737 0
DWIDTH 15 0
BBX 13 14 1 0
BITMAP
0FB0
30E0
6070
60B0
C130
C118
C218
C418
C818
C830
7030
6020
7060
CF80
ENDCHAR
STARTCHAR Ugrave
ENCODING 217
SWIDTH 752 0
DWIDTH 15 0
BBX 15 17 0 0
BITMAP
0300
0180
00C0
FC3E
3018
3008
3008
3008
3008
3008
3008
3008
3008
1008
1810
1830
07C0
ENDCHAR
STARTCHAR Uacute
ENCODING 218
SWIDTH 752 0
DWIDTH 15 0
BBX 15 17 0 0
BITMAP
00C0
0180
0300
FC3E
3018
3008
3008
3008
3008
3008
3008
3008
3008
1008
1810
1830
07C0
ENDCHAR
STARTCHAR Ucircumflex
ENCODING 219
SWIDTH 752 0
DWIDTH 15 0
BBX 15 17 0 0
BITMAP
0180
03C0
0420
FC3E
3018
3008
3008
3008
3008
3008
3008
3008
3008
1008
1810
1830
07C0
ENDCHAR
STARTCHAR Udieresis
ENCODING 220
SWIDTH 752 0
DWIDTH 15 0
BBX 15 17 0 0
BITMAP
0660
0660
0000
FC3E
3018
3008
3008
3008
3008
3008
3008
3008
3008
1008
1810
1830
07C0
ENDCHAR
STARTCHAR Yacute
ENCODING 221
SWIDTH 647 0
DWIDTH 13 0
BBX 13 17 0 0
BITMAP
0180
0300
0600
F878
7020
3020
1840
1C80
0C80
0700
0700
0200
0200
0200
0200
0700
0FC0
ENDCHAR
STARTCHAR Thorn
ENCODING 222
SWIDTH 572 0
DWIDTH 11 0
BBX 10 14 1 0
BITMAP
FC00
3000
2000
3F00
2180
20C0
20C0
20C0
2080
2180
3E00
2000
3000
FC00
ENDCHAR
STARTCHAR germandbls
ENCODING 223
SWIDTH 563 0
DWIDTH 11 0
BBX 11 15 0 0
BITMAP
0F00
1180
3080
3080
3180
7300
3600
3180
30C0
3040
3060
3060
3440
36C0
F780
ENDCHAR
STARTCHAR agrave
ENCODING 224
SWIDTH 480 0
DWIDTH 10 0
BBX 9 14 1 0
BITMAP
7000
1000
1800
0000
3C00
C400
C600
0600
0E00
7600
C600
C600
CE00
7780
ENDCHAR
STARTCHAR aacute
ENCODING 225
SWIDTH 480 0
DWIDTH 10 0
BBX 9 14 1 0
BITMAP
0C00
1800
1000
0000
3C00
C400
C600
0600
0E00
7600
C600
C600
CE00
7780
ENDCHAR
STARTCHAR acircumflex
ENCODING 226
SWIDTH 480 0
DWIDTH 10 0
BBX 9 14 1 0
BITMAP
1800
2800
4400
0000
3C00
C400
C600
0600
0E00
7600
C600
C600
CE00
7780
ENDCHAR
STARTCHAR atilde
ENCODING 227
SWIDTH 480 0
DWIDTH 10 0
BBX 9 13 1 0
BITMAP
7200
8C00
0000
3C00
C400
C600
0600
0E00
7600
C600
C600
CE00
7780
ENDCHAR
STARTCHAR adieresis
ENCODING 228
SWIDTH 480 0
DWIDTH 10 0
BBX 9 14 1 0
BITMAP
E600
C600
0000
0000
3C00
C400
C600
0600
0E00
7600
C600
C600
CE00
7780
ENDCHAR
STARTCHAR aring
ENCODING 229
SWIDTH 480 0
DWIDTH 10 0
BBX 9 15 1 0
BITMAP
3800
2400
2400
3800
0000
3C00
C400
C600
0600
0E00
7600
C600
C600
CE00
7780
ENDCHAR
STARTCHAR ae
ENCODING 230
SWIDTH 709 0
DWIDTH 14 0
BBX 13 10 1 0
BITMAP
79E0
C630
C610
0FF8
3400
4600
C608
C710
CBF0
71E0
ENDCHAR
STARTCHAR ccedilla
ENCODING 231
SWIDTH 446 0
DWIDTH 9 0
BBX 8 15 1 -5
BITMAP
3C
46
C6
80
80
80
C0
C1
E2
7C
10
10
1C
04
38
ENDCHAR
STARTCHAR egrave
ENCODING 232
SWIDTH 464 0
DWIDTH 9 0
BBX 8 14 1 0
BITMAP
30
10
08
00
3C
46
82
FF
80
80
C1
E2
7E
3C
ENDCHAR
STARTCHAR eacute
ENCODING 233
SWIDTH 464 0
DWIDTH 9 0
BBX 8 14 1 0
BITMAP
0C
18
10
00
3C
46
82
FF
80
80
C1
E2
7E
3C
ENDCHAR
STARTCHAR ecircumflex
ENCODING 234
SWIDTH 464 0
DWIDTH 9 0
BBX 8 14 1 0
BITMAP
18
2C
46
00
3C
46
82
FF
80
80
C1
E2
7E
3C
ENDCHAR
STARTCHAR edieresis
ENCODING 235
SWIDTH 464 0
DWIDTH 9 0
BBX 8 14 1 0
BITMAP
66
66
00
00
3C
46
82
FF
80
80
C1
E2
7E
3C
ENDCHAR
STARTCHAR igrave
ENCODING 236
SWIDTH 285 0
DWIDTH 6 0
BBX 5 14 0 0
BITMAP
C0
60
30
00
70
30
30
30
30
30
30
30
30
78
ENDCHAR
STARTCHAR iacute
ENCODING 237
SWIDTH 285 0
DWIDTH 6 0
BBX 4 14 1 0
BITMAP
30
60
C0
00
E0
60
60
60
60
60
60
60
60
F0
ENDCHAR
STARTCHAR icircumflex
ENCODING 238
SWIDTH 285 0
DWIDTH 6 0
BBX 5 14 0 0
BITMAP
20
50
88
00
70
30
30
30
30
30
30
30
30
78
ENDCHAR
STARTCHAR idieresis
ENCODING 239
SWIDTH 285 0
DWIDTH 6 0
BBX 7 14 -1 0
BITMAP
64
EE
00
00
38
18
18
18
18
18
18
18
18
3C
ENDCHAR
STARTCHAR eth
ENCODING 240
SWIDTH 532 0
DWIDTH 11 0
BBX 9 15 1 0
BITMAP
7800
0F80
0E00
1300
0300
3D00
4380
C380
C180
C180
C180
C100
C300
4200
3C00
ENDCHAR
STARTCHAR ntilde
ENCODING 241
SWIDTH 576 0
DWIDTH 12 0
BBX 10 13 1 0
BITMAP
1900
2700
0000
EF00
7100
6180
6180
6180
6180
6180
6180
6180
F7C0
ENDCHAR
STARTCHAR ograve
ENCODING 242
SWIDTH 514 0
DWIDTH 10 0
BBX 9 14 1 0
BITMAP
3000
1800
0800
0000
3C00
4300
C300
C100
C180
C180
C100
C300
6300
3C00
ENDCHAR
STARTCHAR oacute
ENCODING 243
SWIDTH 514 0
DWIDTH 10 0
BBX 9 14 1 0
BITMAP
0C00
0800
1000
0000
3C00
4300
C300
C100
C180
C180
C100
C300
6300
3C00
ENDCHAR
STARTCHAR ocircumflex
ENCODING 244
SWIDTH 514 0
DWIDTH 10 0
BBX 9 14 1 0
BITMAP
1800
3400
6200
0000
3C00
4300
C300
C100
C180
C180
C100
C300
6300
3C00
ENDCHAR
STARTCHAR otilde
ENCODING 245
SWIDTH 514 0
DWIDTH 10 0
BBX 9 13 1 0
BITMAP
3900
4E00
0000
3C00
4300
C300
C100
C180
C180
C100
C300
6300
3C00
ENDCHAR
STARTCHAR odieresis
ENCODING 246
SWIDTH 514 0
DWIDTH 10 0
BBX 9 14 1 0
BITMAP
6700
6600
0000
0000
3C00
4300
C300
C100
C180
C180
C100
C300
6300
3C00
ENDCHAR
STARTCHAR divide
ENCODING 247
SWIDTH 720 0
DWIDTH 14 0
BBX 12 11 1 0
BITMAP
0600
0600
0000
0000
0000
FFF0
0000
0000
0000
0600
0600
ENDCHAR
STARTCHAR oslash
ENCODING 248
SWIDTH 514 0
DWIDTH 10 0
BBX 9 10 1 0
BITMAP
3D00
4200
C700
C900
C980
D180
E100
C300
4300
BC00
ENDCHAR
STARTCHAR ugrave
ENCODING 249
SWIDTH 570 0
DWIDTH 11 0
BBX 11 14 0 0
BITMAP
1800
0C00
0600
0000
E380
2080
2080
2080
2080
2080
2080
3080
3180
1EE0
ENDCHAR
STARTCHAR uacute
ENCODING 250
SWIDTH 570 0
DWIDTH 11 0
BBX 11 14 0 0
BITMAP
0300
0600
0C00
0000
E380
2080
2080
2080
2080
2080
2080
3080
3180
1EE0
ENDCHAR
STARTCHAR ucircumflex
ENCODING 251
SWIDTH 570 0
DWIDTH 11 0
BBX 11 14 0 0
BITMAP
0E00
0A00
1100
0000
E380
2080
2080
2080
2080
2080
2080
3080
3180
1EE0
ENDCHAR
STARTCHAR udieresis
ENCODING 252
SWIDTH 570 0
DWIDTH 11 0
BBX 11 14 0 0
BITMAP
3180
3180
0000
0000
E380
2080
2080
2080
2080
2080
2080
3080
3180
1EE0
ENDCHAR
STARTCHAR yacute
ENCODING 253
SWIDTH 483 0
DWIDTH 10 0
BBX 10 19 0 -5
BITMAP
0600
0400
0800
0000
F3C0
6080
6100
3100
3100
1A00
1A00
0A00
0C00
0C00
0800
0800
0800
F000
E000
ENDCHAR
STARTCHAR thorn
ENCODING 254
SWIDTH 524 0
DWIDTH 10 0
BBX 10 19 0 -5
BITMAP
E000
2000
2000
2000
2700
3980
2080
20C0
20C0
20C0
20C0
2080
3180
3E00
2000
2000
2000
2000
F800
ENDCHAR
STARTCHAR ydieresis
ENCODING 255
SWIDTH 483 0
DWIDTH 10 0
BBX 10 19 0 -5
BITMAP
3380
3300
0000
0000
F3C0
6080
6100
3100
3100
1A00
1A00
0A00
0C00
0C00
0800
0800
0800
F000
E000
ENDCHAR
STARTCHAR Amacron
ENCODING 256
SWIDTH 718 0
DWIDTH 14 0
BBX 14 16 0 0
BITMAP
0FC0
0000
0300
0300
0380
0580
0580
0CC0
08C0
08E0
1860
1FE0
3070
2030
6038
F07C
ENDCHAR
STARTCHAR amacron
ENCODING 257
SWIDTH 480 0
DWIDTH 10 0
BBX 9 13 1 0
BITMAP
7E00
0000
0000
3C00
C400
C600
0600
0E00
7600
C600
C600
CE00
7780
ENDCHAR
STARTCHAR Abreve
ENCODING 258
SWIDTH 718 0
DWIDTH 14 0
BBX 14 18 0 0
BITMAP
0840
0840
0780
0000
0300
0300
0380
0580
0580
0CC0
08C0
08E0
1860
1FE0
3070
2030
6038
F07C
ENDCHAR
STARTCHAR abreve
ENCODING 259
SWIDTH 480 0
DWIDTH 10 0
BBX 9 14 1 0
BITMAP
4200
4400
3800
0000
3C00
C400
C600
0600
0E00
7600
C600
C600
CE00
7780
ENDCHAR
STARTCHAR Aogonek
ENCODING 260
SWIDTH 719 0
DWIDTH 14 0
BBX 14 19 0 -5
BITMAP
0300
0300
0380
0580
0580
0CC0
08C0
08E0
1860
1FE0
3070
2030
2038
F03C
00C0
0180
0100
0100
01E0
ENDCHAR
STARTCHAR aogonek
ENCODING 261
SWIDTH 480 0
DWIDTH 10 0
BBX 9 15 1 -5
BITMAP
7C00
C400
C600
0600
0E00
7600
C600
C600
CE80
7700
0200
0400
0C00
0C80
0700
ENDCHAR
STARTCHAR Cacute
ENCODING 262
SWIDTH 670 0
DWIDTH 13 0
BBX 12 17 1 0
BITMAP
0180
0300
0400
0FA0
3060
6020
6020
C020
C000
C000
C000
C000
C000
6000
6010
3060
0F80
ENDCHAR
STARTCHAR cacute
ENCODING 263
SWIDTH 446 0
DWIDTH 9 0
BBX 8 14 1 0
BITMAP
0C
18
10
00
3C
46
82
80
80
80
C1
C2
7E
3C
ENDCHAR
STARTCHAR Ccircumflex
ENCODING 264
SWIDTH 670 0
DWIDTH 13 0
BBX 12 17 1 0
BITMAP
0700
0500
0880
0FA0
3060
6020
6020
C020
C000
C000
C000
C000
C000
6000
6010
3060
0F80
ENDCHAR
STARTCHAR ccircumflex
ENCODING 265
SWIDTH 446 0
DWIDTH 9 0
BBX 8 14 1 0
BITMAP
18
2C
46
00
3C
46
82
80
80
80
C1
C2
7E
3C
ENDCHAR
STARTCHAR Cdotaccent
ENCODING 266
SWIDTH 670 0
DWIDTH 13 0
BBX 12 17 1 0
BITMAP
0700
0300
0000
0FA0
3060
6020
6020
C020
C000
C000
C000
C000
C000
6000
6010
3060
0F80
ENDCHAR
STARTCHAR cdotaccent
ENCODING 267
SWIDTH 446 0
DWIDTH 9 0
BBX 8 14 1 0
BITMAP
18
18
00
00
3C
46
82
80
80
80
C1
C2
7E
3C
ENDCHAR
STARTCHAR Ccaron
ENCODING 268
SWIDTH 670 0
DWIDTH 13 0
BBX 12 17 1 0
BITMAP
0880
0500
0700
0FA0
3060
6020
6020
C020
C000
C000
C000
C000
C000
6000
6010
3060
0F80
ENDCHAR
STARTCHAR ccaron
ENCODING 269
SWIDTH 446 0
DWIDTH 9 0
BBX 8 14 1 0
BITMAP
46
2C
18
00
3C
46
82
80
80
80
C1
C2
7E
3C
ENDCHAR
STARTCHAR Dcaron
ENCODING 270
SWIDTH 730 0
DWIDTH 15 0
BBX 13 17 1 0
BITMAP
1180
0F00
0600
FF80
30C0
3060
3030
3030
3038
3038
3038
3030
3030
3030
3060
30C0
FF80
ENDCHAR
STARTCHAR dcaron
ENCODING 271
SWIDTH 626 0
DWIDTH 13 0
BBX 11 14 1 0
BITMAP
0760
0360
0360
0340
3F00
4300
C300
C300
8300
8300
C300
C300
C300
7F80
ENDCHAR
STARTCHAR Dcroat
ENCODING 272
SWIDTH 733 0
DWIDTH 15 0
BBX 13 14 1 0
BITMAP
FF80
30C0
3060
3030
3030
3038
3038
FE38
3038
3030
3030
3060
30C0
FF80
ENDCHAR
STARTCHAR dcroat
ENCODING 273
SWIDTH 540 0
DWIDTH 11 0
BBX 9 14 1 0
BITMAP
0700
0300
1F80
0300
3F00
4300
C300
C300
8300
8300
C300
C300
C300
7F80
ENDCHAR
STARTCHAR Emacron
ENCODING 274
SWIDTH 626 0
DWIDTH 13 0
BBX 11 16 1 0
BITMAP
3F00
0000
FFC0
3040
3040
3000
3080
3080
3080
3F80
3080
3000
3020
3020
3060
FFC0
ENDCHAR
STARTCHAR emacron
ENCODING 275
SWIDTH 464 0
DWIDTH 9 0
BBX 8 13 1 0
BITMAP
7E
00
00
3C
46
82
FF
80
80
C1
E2
7E
3C
ENDCHAR
STARTCHAR Ebreve
ENCODING 276
SWIDTH 626 0
DWIDTH 13 0
BBX 11 18 1 0
BITMAP
2100
1100
0E00
0000
FFC0
3040
3040
3000
3080
3080
3080
3F80
3080
3000
3020
3020
3060
FFC0
ENDCHAR
STARTCHAR ebreve
ENCODING 277
SWIDTH 464 0
DWIDTH 9 0
BBX 8 14 1 0
BITMAP
42
44
38
00
3C
46
82
FF
80
80
C1
E2
7E
3C
ENDCHAR
STARTCHAR Edotaccent
ENCODING 278
SWIDTH 626 0
DWIDTH 13 0
BBX 11 17 1 0
BITMAP
0E00
0C00
0000
FFC0
3040
3040
3000
3080
3080
3080
3F80
3080
3000
3020
3020
3060
FFC0
ENDCHAR
STARTCHAR edotaccent
ENCODING 279
SWIDTH 464 0
DWIDTH 9 0
BBX 8 14 1 0
BITMAP
18
18
00
00
3C
46
82
FF
80
80
C1
E2
7E
3C
ENDCHAR
STARTCHAR Eogonek
ENCODING 280
SWIDTH 625 0
DWIDTH 13 0
BBX 11 19 1 -5
BITMAP
FFC0
2040
2040
2000
2080
2080
2080
3F80
2080
2000
2020
2020
2060
FFC0
0080
0100
0100
0120
01C0
ENDCHAR
STARTCHAR eogonek
ENCODING 281
SWIDTH 464 0
DWIDTH 9 0
BBX 8 15 1 -5
BITMAP
3C
46
C6
82
FF
80
C0
C1
7E
3C
08
10
10
32
1C
ENDCHAR
STARTCHAR Ecaron
ENCODING 282
SWIDTH 626 0
DWIDTH 13 0
BBX 11 17 1 0
BITMAP
3100
0A00
0C00
FFC0
3040
3040
3000
3080
3080
3080
3F80
3080
3000
3020
3020
3060
FFC0
ENDCHAR
STARTCHAR ecaron
ENCODING 283
SWIDTH 464 0
DWIDTH 9 0
BBX 8 14 1 0
BITMAP
46
2C
18
00
3C
46
82
FF
80
80
C1
E2
7E
3C
ENDCHAR
STARTCHAR Gcircumflex
ENCODING 284
SWIDTH 720 0
DWIDTH 14 0
BBX 13 17 1 0
BITMAP
0700
0500
0880
0FA0
3060
6020
6020
C020
C000
C000
C0F8
C060
C020
6020
6020
3060
1FC0
ENDCHAR
STARTCHAR gcircumflex
ENCODING 285
SWIDTH 484 0
DWIDTH 10 0
BBX 9 19 0 -5
BITMAP
0C00
1600
2300
0000
1F80
6300
6300
6300
6300
2300
3E00
6000
7F00
3F80
4080
4080
C080
6100
3E00
ENDCHAR
STARTCHAR Gbreve
ENCODING 286
SWIDTH 720 0
DWIDTH 14 0
BBX 13 18 1 0
BITMAP
1040
0880
0700
0000
0FA0
3060
6020
6020
C020
C000
C000
C0F8
C060
C020
6020
6020
3060
1FC0
ENDCHAR
STARTCHAR gbreve
ENCODING 287
SWIDTH 484 0
DWIDTH 10 0
BBX 9 19 0 -5
BITMAP
2100
2200
1C00
0000
1F80
6300
6300
6300
6300
2300
3E00
6000
7F00
3F80
4080
4080
C080
6100
3E00
ENDCHAR
STARTCHAR Gdotaccent
ENCODING 288
SWIDTH 720 0
DWIDTH 14 0
BBX 13 17 1 0
BITMAP
0700
0200
0000
0FA0
3060
6020
6020
C020
C000
C000
C0F8
C060
C020
6020
6020
3060
1FC0
ENDCHAR
STARTCHAR gdotaccent
ENCODING 289
SWIDTH 484 0
DWIDTH 10 0
BBX 9 19 0 -5
BITMAP
0C00
0C00
0000
0000
1F80
6300
6300
6300
6300
2300
3E00
6000
7F00
3F80
4080
4080
C080
6100
3E00
ENDCHAR
STARTCHAR Gcommaaccent
ENCODING 290
SWIDTH 720 0
DWIDTH 14 0
BBX 13 19 1 -5
BITMAP
0FA0
3060
6020
6020
C020
C000
C000
C0F8
C060
C020
6020
6020
3060
1FC0
0000
0600
0700
0200
0600
ENDCHAR
STARTCHAR gcommaaccent
ENCODING 291
SWIDTH 484 0
DWIDTH 10 0
BBX 9 21 0 -5
BITMAP
0400
0800
1000
1C00
0C00
0000
1F80
6300
6300
6300
6300
2300
3E00
6000
7F00
3F80
4080
4080
C080
6100
3E00
ENDCHAR
STARTCHAR Hcircumflex
ENCODING 292
SWIDTH 777 0
DWIDTH 16 0
BBX 14 17 1 0
BITMAP
0300
0580
0880
F8FC
3030
3030
3030
3030
3030
3030
3FF0
3030
3030
3030
3030
3030
F8FC
ENDCHAR
STARTCHAR hcircumflex
ENCODING 293
SWIDTH 577 0
DWIDTH 12 0
BBX 11 18 0 0
BITMAP
0E00
0A00
3100
0000
F000
3000
3000
3000
3780
3880
30C0
30C0
30C0
30C0
30C0
30C0
30C0
79E0
ENDCHAR
STARTCHAR Hbar
ENCODING 294
SWIDTH 788 0
DWIDTH 16 0
BBX 14 14 1 0
BITMAP
FCFC
3030
3030
3030
FFFC
3030
3030
3FF0
3030
3030
3030
3030
3030
FCFC
ENDCHAR
STARTCHAR hbar
ENCODING 295
SWIDTH 579 0
DWIDTH 12 0
BBX 11 14 0 0
BITMAP
F000
3000
FE00
3000
3780
3880
30C0
30C0
30C0
30C0
30C0
30C0
30C0
79E0
ENDCHAR
STARTCHAR Itilde
ENCODING 296
SWIDTH 357 0
DWIDTH 7 0
BBX 7 17 0 0
BITMAP
72
8C
00
7C
18
10
10
10
10
10
10
10
10
10
10
18
7C
ENDCHAR
STARTCHAR itilde
ENCODING 297
SWIDTH 285 0
DWIDTH 6 0
BBX 6 14 0 0
BITMAP
44
A8
98
00
70
30
30
30
30
30
30
30
30
78
ENDCHAR
STARTCHAR Imacron
ENCODING 298
SWIDTH 357 0
DWIDTH 7 0
BBX 6 16 1 0
BITMAP
FC
00
F8
30
20
20
20
20
20
20
20
20
20
20
30
F8
ENDCHAR
STARTCHAR imacron
ENCODING 299
SWIDTH 285 0
DWIDTH 6 0
BBX 5 13 0 0
BITMAP
F8
00
00
70
30
30
30
30
30
30
30
30
78
ENDCHAR
STARTCHAR Ibreve
ENCODING 300
SWIDTH 357 0
DWIDTH 7 0
BBX 6 18 1 0
BITMAP
84
88
70
00
F8
30
20
20
20
20
20
20
20
20
20
20
30
F8
ENDCHAR
STARTCHAR ibreve
ENCODING 301
SWIDTH 285 0
DWIDTH 6 0
BBX 5 14 0 0
BITMAP
88
88
70
00
70
30
30
30
30
30
30
30
30
78
ENDCHAR
STARTCHAR Iogonek
ENCODING 302
SWIDTH 357 0
DWIDTH 7 0
BBX 5 19 1 -5
BITMAP
F8
30
20
20
20
20
20
20
20
20
20
20
30
F8
20
40
40
40
78
ENDCHAR
STARTCHAR iogonek
ENCODING 303
SWIDTH 285 0
DWIDTH 6 0
BBX 4 19 1 -5
BITMAP
60
60
00
00
E0
60
60
60
60
60
60
60
60
F0
40
80
80
80
F0
ENDCHAR
STARTCHAR Idotaccent
ENCODING 304
SWIDTH 357 0
DWIDTH 7 0
BBX 5 17 1 0
BITMAP
70
30
00
F8
30
20
20
20
20
20
20
20
20
20
20
30
F8
ENDCHAR
STARTCHAR dotlessi
ENCODING 305
SWIDTH 285 0
DWIDTH 6 0
BBX 4 10 1 0
BITMAP
E0
60
60
60
60
60
60
60
60
F0
ENDCHAR
STARTCHAR IJ
ENCODING 306
SWIDTH 753 0
DWIDTH 15 0
BBX 14 14 1 0
BITMAP
F8FC
3030
2030
2030
2030
2030
2030
2030
2030
2030
2030
2330
3320
F9E0
ENDCHAR
STARTCHAR ij
ENCODING 307
SWIDTH 548 0
DWIDTH 11 0
BBX 9 19 1 -5
BITMAP
6300
6380
0000
0000
E700
6100
6100
6100
6100
6100
6100
6100
6100
F100
0100
0100
0100
1B00
1E00
ENDCHAR
STARTCHAR Jcircumflex
ENCODING 308
SWIDTH 396 0
DWIDTH 8 0
BBX 8 17 0 0
BITMAP
0C
16
22
3F
0C
0C
0C
0C
0C
0C
0C
0C
0C
0C
8C
C8
78
ENDCHAR
STARTCHAR jcircumflex
ENCODING 309
SWIDTH 263 0
DWIDTH 5 0
BBX 7 19 -2 -5
BITMAP
0C
14
22
00
1C
0C
0C
0C
0C
0C
0C
0C
0C
0C
0C
0C
08
C8
70
ENDCHAR
STARTCHAR Kcommaaccent
ENCODING 310
SWIDTH 702 0
DWIDTH 14 0
BBX 13 19 1 -5
BITMAP
F9F0
30C0
2080
2100
2200
2400
2800
3C00
2600
2300
2180
20C0
30E0
F9F8
0000
0600
0600
0200
0600
ENDCHAR
STARTCHAR kcommaaccent
ENCODING 311
SWIDTH 542 0
DWIDTH 11 0
BBX 10 19 1 -5
BITMAP
E000
6000
6000
6000
6780
6200
6400
6800
7800
7800
6C00
6600
6300
F7C0
0000
1C00
1C00
0400
1800
ENDCHAR
STARTCHAR kgreenlandic
ENCODING 312
SWIDTH 542 0
DWIDTH 11 0
BBX 10 10 1 0
BITMAP
E780
6200
6400
6800
7000
7800
6C00
6600
6300
F7C0
ENDCHAR
STARTCHAR Lacute
ENCODING 313
SWIDTH 585 0
DWIDTH 12 0
BBX 10 17 1 0
BITMAP
0C00
1800
2000
F800
3000
3000
3000
3000
3000
3000
3000
3000
3000
3040
3040
3040
FFC0
ENDCHAR
STARTCHAR lacute
ENCODING 314
SWIDTH 283 0
DWIDTH 6 0
BBX 4 18 1 0
BITMAP
30
60
C0
00
E0
60
60
60
60
60
60
60
60
60
60
60
60
F0
ENDCHAR
STARTCHAR Lcommaaccent
ENCODING 315
SWIDTH 585 0
DWIDTH 12 0
BBX 10 19 1 -5
BITMAP
F800
3000
3000
3000
3000
3000
3000
3000
3000
3000
3040
3040
3040
FFC0
0000
0C00
0C00
0400
0800
ENDCHAR
STARTCHAR lcommaaccent
ENCODING 316
SWIDTH 283 0
DWIDTH 6 0
BBX 4 19 1 -5
BITMAP
E0
60
60
60
60
60
60
60
60
60
60
60
60
F0
00
60
60
20
40
ENDCHAR
STARTCHAR Lcaron
ENCODING 317
SWIDTH 585 0
DWIDTH 12 0
BBX 10 14 1 0
BITMAP
F880
3180
3180
3100
3000
3000
3000
3000
3000
3000
3040
3040
3040
FFC0
ENDCHAR
STARTCHAR lcaron
ENCODING 318
SWIDTH 366 0
DWIDTH 7 0
BBX 6 14 1 0
BITMAP
EC
6C
68
68
60
60
60
60
60
60
60
60
60
F0
ENDCHAR
STARTCHAR Ldot
ENCODING 319
SWIDTH 605 0
DWIDTH 12 0
BBX 10 14 1 0
BITMAP
F800
3000
3000
3000
3000
31C0
30C0
3000
3000
3000
3040
3040
3040
FFC0
ENDCHAR
STARTCHAR ldot
ENCODING 320
SWIDTH 357 0
DWIDTH 7 0
BBX 7 14 1 0
BITMAP
E0
60
60
60
60
6E
6C
60
60
60
60
60
60
F0
ENDCHAR
STARTCHAR Lslash
ENCODING 321
SWIDTH 590 0
DWIDTH 12 0
BBX 10 14 1 0
BITMAP
FC00
3000
3000
3000
3200
3C00
3000
7000
B000
3000
3040
3040
3040
FFC0
ENDCHAR
STARTCHAR lslash
ENCODING 322
SWIDTH 290 0
DWIDTH 6 0
BBX 6 14 0 0
BITMAP
70
30
30
30
30
3C
30
70
B0
30
30
30
30
78
ENDCHAR
STARTCHAR Nacute
ENCODING 323
SWIDTH 742 0
DWIDTH 15 0
BBX 13 17 1 0
BITMAP
0180
0300
0400
E078
7030
7830
5C20
4C20
4E20
4720
4320
41A0
41E0
40E0
4060
6020
F020
ENDCHAR
STARTCHAR nacute
ENCODING 324
SWIDTH 576 0
DWIDTH 12 0
BBX 10 14 1 0
BITMAP
0600
0400
0800
0000
EF00
7100
6180
6180
6180
6180
6180
6180
6180
F7C0
ENDCHAR
STARTCHAR Ncommaaccent
ENCODING 325
SWIDTH 742 0
DWIDTH 15 0
BBX 13 19 1 -5
BITMAP
E078
7030
7830
5C20
4C20
4E20
4720
4320
41A0
41E0
40E0
4060
6020
F020
0000
0600
0700
0200
0600
ENDCHAR
STARTCHAR ncommaaccent
ENCODING 326
SWIDTH 576 0
DWIDTH 12 0
BBX 10 15 1 -5
BITMAP
EF00
7100
6180
6180
6180
6180
6180
6180
6180
F7C0
0000
1C00
1C00
0400
1800
ENDCHAR
STARTCHAR Ncaron
ENCODING 327
SWIDTH 742 0
DWIDTH 15 0
BBX 13 17 1 0
BITMAP
08C0
0500
0300
E078
7030
7830
5C20
4C20
4E20
4720
4320
41A0
41E0
40E0
4060
6020
F020
ENDCHAR
STARTCHAR ncaron
ENCODING 328
SWIDTH 576 0
DWIDTH 12 0
BBX 10 14 1 0
BITMAP
3100
1E00
0C00
0000
EF00
7100
6180
6180
6180
6180
6180
6180
6180
F7C0
ENDCHAR
STARTCHAR napostrophe
ENCODING 329
SWIDTH 576 0
DWIDTH 12 0
BBX 14 14 -3 0
BITMAP
C000
E000
2000
4000
8EF0
0710
0618
0618
0618
0618
0618
0618
0618
0F7C
ENDCHAR
STARTCHAR Eng
ENCODING 330
SWIDTH 742 0
DWIDTH 15 0
BBX 13 19 1 -5
BITMAP
E078
7030
7830
5820
4C20
4E20
4720
4320
41A0
41E0
40E0
4060
6060
F020
0020
0020
0220
0320
03C0
ENDCHAR
STARTCHAR eng
ENCODING 331
SWIDTH 559 0
DWIDTH 11 0
BBX 9 15 1 -5
BITMAP
EF00
7100
6180
6180
6180
6180
6180
6180
6180
F180
0180
0180
0100
1900
0E00
ENDCHAR
STARTCHAR Omacron
ENCODING 332
SWIDTH 738 0
DWIDTH 15 0
BBX 13 16 1 0
BITMAP
1F80
0000
0F80
3060
6030
6030
C030
C018
C018
C018
C018
C030
6030
6020
3060
0F80
ENDCHAR
STARTCHAR omacron
ENCODING 333
SWIDTH 514 0
DWIDTH 10 0
BBX 9 13 1 0
BITMAP
7E00
0000
0000
3C00
4300
C300
C100
C180
C180
C100
C300
6300
3C00
ENDCHAR
STARTCHAR Obreve
ENCODING 334
SWIDTH 738 0
DWIDTH 15 0
BBX 13 18 1 0
BITMAP
1080
0880
0700
0000
0F80
3060
6030
6030
C030
C018
C018
C018
C018
C030
6030
6020
3060
0F80
ENDCHAR
STARTCHAR obreve
ENCODING 335
SWIDTH 514 0
DWIDTH 10 0
BBX 9 14 1 0
BITMAP
4200
2200
1C00
0000
3C00
4300
C300
C100
C180
C180
C100
C300
6300
3C00
ENDCHAR
STARTCHAR Ohungarumlaut
ENCODING 336
SWIDTH 738 0
DWIDTH 15 0
BBX 13 17 1 0
BITMAP
0360
06C0
0580
0F80
3060
6030
6030
C030
C018
C018
C018
C018
C030
6030
6020
3060
0F80
ENDCHAR
STARTCHAR ohungarumlaut
ENCODING 337
SWIDTH 514 0
DWIDTH 10 0
BBX 9 14 1 0
BITMAP
1B00
1200
3400
0000
3C00
4300
C300
C100
C180
C180
C100
C300
6300
3C00
ENDCHAR
STARTCHAR OE
ENCODING 338
SWIDTH 945 0
DWIDTH 19 0
BBX 17 14 1 0
BITMAP
0FFF80
30C180
60C080
60C000
C0C200
C0C200
C0FE00
C0C200
C0C200
C0C000
60C080
60C080
30C180
0FFF80
ENDCHAR
STARTCHAR oe
ENCODING 339
SWIDTH 807 0
DWIDTH 16 0
BBX 15 10 1 0
BITMAP
3C78
428C
C304
C1FC
C100
C100
C182
C3C4
62FC
3C78
ENDCHAR
STARTCHAR Racute
ENCODING 340
SWIDTH 659 0
DWIDTH 13 0
BBX 12 17 1 0
BITMAP
0600
0600
0800
FF00
3180
30C0
30C0
30C0
30C0
3180
3E00
3600
3300
3180
31C0
30C0
F870
ENDCHAR
STARTCHAR racute
ENCODING 341
SWIDTH 380 0
DWIDTH 8 0
BBX 6 14 1 0
BITMAP
18
10
20
00
EC
7C
60
60
60
60
60
60
60
F8
ENDCHAR
STARTCHAR Rcommaaccent
ENCODING 342
SWIDTH 659 0
DWIDTH 13 0
BBX 12 19 1 -5
BITMAP
FF00
3180
30C0
30C0
30C0
30C0
3180
3E00
3600
3300
3180
31C0
30C0
F870
0000
0E00
0E00
0200
0C00
ENDCHAR
STARTCHAR rcommaaccent
ENCODING 343
SWIDTH 380 0
DWIDTH 8 0
BBX 6 15 1 -5
BITMAP
EC
7C
60
60
60
60
60
60
60
F8
00
60
70
20
60
ENDCHAR
STARTCHAR Rcaron
ENCODING 344
SWIDTH 659 0
DWIDTH 13 0
BBX 12 17 1 0
BITMAP
3100
1A00
0C00
FF00
3180
30C0
30C0
30C0
30C0
3180
3E00
3600
3300
3180
31C0
30C0
F870
ENDCHAR
STARTCHAR rcaron
ENCODING 345
SWIDTH 380 0
DWIDTH 8 0
BBX 6 14 1 0
BITMAP
8C
58
30
00
EC
7C
60
60
60
60
60
60
60
F8
ENDCHAR
STARTCHAR Sacute
ENCODING 346
SWIDTH 504 0
DWIDTH 10 0
BBX 8 17 1 0
BITMAP
0C
18
30
3F
43
C1
C1
E0
70
3C
1E
07
03
83
83
C3
FE
ENDCHAR
STARTCHAR sacute
ENCODING 347
SWIDTH 394 0
DWIDTH 8 0
BBX 6 14 1 0
BITMAP
18
10
20
00
7C
84
84
C0
70
3C
0C
84
84
F8
ENDCHAR
STARTCHAR Scircumflex
ENCODING 348
SWIDTH 504 0
DWIDTH 10 0
BBX 8 17 1 0
BITMAP
18
3C
42
3F
43
C1
C1
E0
70
3C
1E
07
03
83
83
C3
FE
ENDCHAR
STARTCHAR scircumflex
ENCODING 349
SWIDTH 394 0
DWIDTH 8 0
BBX 6 14 1 0
BITMAP
30
78
C4
00
7C
84
84
C0
70
3C
0C
84
84
F8
ENDCHAR
STARTCHAR uni015E
ENCODING 350
SWIDTH 504 0
DWIDTH 10 0
BBX 8 19 1 -5
BITMAP
3F
43
C1
C1
E0
70
3C
1E
07
03
83
83
C3
FE
10
18
04
04
38
ENDCHAR
STARTCHAR uni015F
ENCODING 351
SWIDTH 394 0
DWIDTH 8 0
BBX 6 15 1 -5
BITMAP
7C
84
84
C0
70
3C
0C
84
84
F8
20
30
08
08
70
ENDCHAR
STARTCHAR Scaron
ENCODING 352
SWIDTH 504 0
DWIDTH 10 0
BBX 8 17 1 0
BITMAP
62
3C
18
3F
43
C1
C1
E0
70
3C
1E
07
03
83
83
C3
FE
ENDCHAR
STARTCHAR scaron
ENCODING 353
SWIDTH 394 0
DWIDTH 8 0
BBX 6 14 1 0
BITMAP
8C
78
30
00
7C
84
84
C0
70
3C
0C
84
84
F8
ENDCHAR
STARTCHAR uni0162
ENCODING 354
SWIDTH 603 0
DWIDTH 12 0
BBX 12 19 0 -5
BITMAP
FFF0
C630
8610
8610
0600
0600
0600
0600
0600
0600
0600
0600
0600
1F80
0400
0700
0100
0100
0E00
ENDCHAR
STARTCHAR uni0163
ENCODING 355
SWIDTH 315 0
DWIDTH 6 0
BBX 5 18 1 -5
BITMAP
20
60
60
F8
60
60
60
60
60
60
60
68
70
20
30
18
18
70
ENDCHAR
STARTCHAR Tcaron
ENCODING 356
SWIDTH 603 0
DWIDTH 12 0
BBX 12 17 0 0
BITMAP
1880
0F00
0600
FFF0
C630
8610
8610
0600
0600
0600
0600
0600
0600
0600
0600
0600
1F80
ENDCHAR
STARTCHAR tcaron
ENCODING 357
SWIDTH 353 0
DWIDTH 7 0
BBX 6 14 1 0
BITMAP
0C
2C
68
68
F8
60
60
60
60
60
60
60
68
70
ENDCHAR
STARTCHAR Tbar
ENCODING 358
SWIDTH 603 0
DWIDTH 12 0
BBX 12 14 0 0
BITMAP
FFF0
C630
8610
8610
0600
0600
1FC0
0600
0600
0600
0600
0600
0600
1F80
ENDCHAR
STARTCHAR tbar
ENCODING 359
SWIDTH 328 0
DWIDTH 7 0
BBX 5 13 1 0
BITMAP
20
60
60
F8
60
60
F8
60
60
60
60
68
70
ENDCHAR
STARTCHAR Utilde
ENCODING 360
SWIDTH 752 0
DWIDTH 15 0
BBX 15 17 0 0
BITMAP
0320
04E0
0000
FC3E
3018
3008
3008
3008
3008
3008
3008
3008
3008
1008
1810
1830
07C0
ENDCHAR
STARTCHAR utilde
ENCODING 361
SWIDTH 570 0
DWIDTH 11 0
BBX 11 13 0 0
BITMAP
1C80
2300
0000
E380
2080
2080
2080
2080
2080
2080
3080
3180
1EE0
ENDCHAR
STARTCHAR Umacron
ENCODING 362
SWIDTH 752 0
DWIDTH 15 0
BBX 15 16 0 0
BITMAP
07E0
0000
FC3E
3018
3008
3008
3008
3008
3008
3008
3008
3008
1008
1810
1830
07C0
ENDCHAR
STARTCHAR umacron
ENCODING 363
SWIDTH 570 0
DWIDTH 11 0
BBX 11 13 0 0
BITMAP
1F00
0000
0000
E380
2080
2080
2080
2080
2080
2080
3080
3180
1EE0
ENDCHAR
STARTCHAR Ubreve
ENCODING 364
SWIDTH 752 0
DWIDTH 15 0
BBX 15 18 0 0
BITMAP
0420
0420
03C0
0000
FC3E
3018
3008
3008
3008
3008
3008
3008
3008
3008
1008
1810
1830
07C0
ENDCHAR
STARTCHAR ubreve
ENCODING 365
SWIDTH 570 0
DWIDTH 11 0
BBX 11 14 0 0
BITMAP
2100
1100
0E00
0000
E380
2080
2080
2080
2080
2080
2080
3080
3180
1EE0
ENDCHAR
STARTCHAR Uring
ENCODING 366
SWIDTH 752 0
DWIDTH 15 0
BBX 15 18 0 0
BITMAP
0180
0240
0240
0180
FC3E
3018
3008
3008
3008
3008
3008
3008
3008
3008
1008
1810
1830
07C0
ENDCHAR
STARTCHAR uring
ENCODING 367
SWIDTH 570 0
DWIDTH 11 0
BBX 11 15 0 0
BITMAP
0E00
1100
1100
0E00
0000
E380
2080
2080
2080
2080
2080
2080
3080
3180
1EE0
ENDCHAR
STARTCHAR Uhungarumlaut
ENCODING 368
SWIDTH 752 0
DWIDTH 15 0
BBX 15 17 0 0
BITMAP
01B0
0120
0240
FC3E
3018
3008
3008
3008
3008
3008
3008
3008
3008
1008
1810
1830
07C0
ENDCHAR
STARTCHAR uhungarumlaut
ENCODING 369
SWIDTH 570 0
DWIDTH 11 0
BBX 11 14 0 0
BITMAP
0780
0D00
0A00
0000
E380
2080
2080
2080
2080
2080
2080
3080
3180
1EE0
ENDCHAR
STARTCHAR Uogonek
ENCODING 370
SWIDTH 753 0
DWIDTH 15 0
BBX 15 19 0 -5
BITMAP
FC3E
3018
3008
3008
3008
3008
3008
3008
3008
3008
1008
1810
1830
07E0
00C0
0100
0100
0120
01C0
ENDCHAR
STARTCHAR uogonek
ENCODING 371
SWIDTH 570 0
DWIDTH 11 0
BBX 11 15 0 -5
BITMAP
E380
2080
2080
2080
2080
2080
2080
3080
3180
1EE0
0100
0300
0200
0200
03C0
ENDCHAR
STARTCHAR Wcircumflex
ENCODING 372
SWIDTH 944 0
DWIDTH 19 0
BBX 19 17 0 0
BITMAP
00C000
01A000
031000
F9F1E0
70C080
306080
306080
186100
187100
18B100
0CB200
0C9A00
0D1A00
071C00
070C00
020C00
020400
ENDCHAR
STARTCHAR wcircumflex
ENCODING 373
SWIDTH 749 0
DWIDTH 15 0
BBX 15 14 0 0
BITMAP
0380
0280
0440
0000
F7CE
6184
6184
3188
31C8
12C8
1A50
1C70
0C60
0820
ENDCHAR
STARTCHAR Ycircumflex
ENCODING 374
SWIDTH 647 0
DWIDTH 13 0
BBX 13 17 0 0
BITMAP
0300
0580
0880
F878
7020
3020
1840
1C80
0C80
0700
0700
0200
0200
0200
0200
0700
0FC0
ENDCHAR
STARTCHAR ycircumflex
ENCODING 375
SWIDTH 483 0
DWIDTH 10 0
BBX 10 19 0 -5
BITMAP
0C00
1A00
3100
0000
F3C0
6080
6100
3100
3100
1A00
1A00
0A00
0C00
0C00
0800
0800
0800
F000
E000
ENDCHAR
STARTCHAR Ydieresis
ENCODING 376
SWIDTH 647 0
DWIDTH 13 0
BBX 13 17 0 0
BITMAP
1CC0
0CC0
0000
F878
7020
3020
1840
1C80
0C80
0700
0700
0200
0200
0200
0200
0700
0FC0
ENDCHAR
STARTCHAR Zacute
ENCODING 377
SWIDTH 594 0
DWIDTH 12 0
BBX 10 17 1 0
BITMAP
0600
0600
0800
FFC0
C1C0
8180
8300
0700
0600
0C00
1C00
1800
3000
7040
6040
E040
FFC0
ENDCHAR
STARTCHAR zacute
ENCODING 378
SWIDTH 458 0
DWIDTH 9 0
BBX 8 14 1 0
BITMAP
0C
18
10
00
FE
86
8C
0C
18
30
30
61
C2
FE
ENDCHAR
STARTCHAR Zdotaccent
ENCODING 379
SWIDTH 594 0
DWIDTH 12 0
BBX 10 17 1 0
BITMAP
0C00
0C00
0000
FFC0
C1C0
8180
8300
0700
0600
0C00
1C00
1800
3000
7040
6040
E040
FFC0
ENDCHAR
STARTCHAR zdotaccent
ENCODING 380
SWIDTH 458 0
DWIDTH 9 0
BBX 8 14 1 0
BITMAP
18
18
00
00
FE
86
8C
0C
18
30
30
61
C2
FE
ENDCHAR
STARTCHAR Zcaron
ENCODING 381
SWIDTH 594 0
DWIDTH 12 0
BBX 10 17 1 0
BITMAP
3100
1A00
0C00
FFC0
C1C0
8180
8300
0700
0600
0C00
1C00
1800
3000
7040
6040
E040
FFC0
ENDCHAR
STARTCHAR zcaron
ENCODING 382
SWIDTH 458 0
DWIDTH 9 0
BBX 8 14 1 0
BITMAP
46
2C
18
00
FE
86
8C
0C
18
30
30
61
C2
FE
ENDCHAR
STARTCHAR longs
ENCODING 383
SWIDTH 285 0
DWIDTH 6 0
BBX 8 15 0 0
BITMAP
0E
13
30
30
30
70
30
30
30
30
30
30
30
30
FC
ENDCHAR
STARTCHAR uni0180
ENCODING 384
SWIDTH 522 0
DWIDTH 10 0
BBX 10 14 0 0
BITMAP
E000
2000
FE00
2000
2700
3980
2080
20C0
20C0
20C0
2080
2080
3100
3E00
ENDCHAR
STARTCHAR uni0188
ENCODING 392
SWIDTH 446 0
DWIDTH 9 0
BBX 10 14 1 0
BITMAP
0180
02C0
0200
0400
3C00
4600
8200
8000
8000
8000
C100
C200
7E00
3C00
ENDCHAR
STARTCHAR uni0190
ENCODING 400
SWIDTH 518 0
DWIDTH 10 0
BBX 9 14 1 0
BITMAP
3E00
4300
C380
C000
C000
6000
1C00
6000
C000
C000
C000
C080
E100
3E00
ENDCHAR
STARTCHAR uni0192
ENCODING 402
SWIDTH 301 0
DWIDTH 6 0
BBX 10 20 -2 -5
BITMAP
0380
04C0
0C00
0C00
0C00
3F00
0C00
0C00
0C00
0C00
0C00
0C00
0C00
0C00
0C00
0C00
0C00
0800
C800
7000
ENDCHAR
STARTCHAR uni0195
ENCODING 405
SWIDTH 798 0
DWIDTH 16 0
BBX 15 14 0 0
BITMAP
F000
3000
3000
3000
370C
3986
3086
3082
3082
3082
3082
3082
30C4
7878
ENDCHAR
STARTCHAR uni0199
ENCODING 409
SWIDTH 538 0
DWIDTH 11 0
BBX 10 15 1 0
BITMAP
1E00
2600
6000
6000
6000
6780
6200
6400
6800
7000
7800
6C00
6600
6300
F7C0
ENDCHAR
STARTCHAR uni019A
ENCODING 410
SWIDTH 287 0
DWIDTH 6 0
BBX 4 14 1 0
BITMAP
E0
60
60
60
60
60
F0
60
60
60
60
60
60
F0
ENDCHAR
STARTCHAR uni019B
ENCODING 411
SWIDTH 495 0
DWIDTH 10 0
BBX 10 14 0 0
BITMAP
7000
7200
0C00
1800
2400
0400
0E00
0A00
1A00
1100
3100
2100
6080
F1C0
ENDCHAR
STARTCHAR uni019E
ENCODING 414
SWIDTH 559 0
DWIDTH 11 0
BBX 10 15 1 -5
BITMAP
EF00
7100
6180
6180
6180
6180
6180
6180
6180
F180
0180
0180
0180
0180
01C0
ENDCHAR
STARTCHAR Ohorn
ENCODING 416
SWIDTH 737 0
DWIDTH 15 0
BBX 13 17 1 0
BITMAP
0008
0018
0008
0FF0
3060
6030
6030
C030
C018
C018
C018
C018
C030
6030
6020
3060
0F80
ENDCHAR
STARTCHAR ohorn
ENCODING 417
SWIDTH 516 0
DWIDTH 10 0
BBX 9 13 1 0
BITMAP
0180
0080
0080
3F00
4200
C300
C100
C180
C180
C100
C300
6300
3C00
ENDCHAR
STARTCHAR uni01A5
ENCODING 421
SWIDTH 522 0
DWIDTH 10 0
BBX 10 19 0 -5
BITMAP
1E00
2300
2000
2000
2F00
3180
2080
20C0
20C0
20C0
20C0
2080
3100
3E00
2000
2000
2000
2000
F800
ENDCHAR
STARTCHAR uni01AA
ENCODING 426
SWIDTH 298 0
DWIDTH 6 0
BBX 9 19 -1 -5
BITMAP
7000
9800
8800
8800
7800
0800
0800
0800
0800
0800
0800
0800
0800
0800
0800
0800
0800
0980
0780
ENDCHAR
STARTCHAR uni01AB
ENCODING 427
SWIDTH 321 0
DWIDTH 6 0
BBX 5 18 1 -5
BITMAP
20
60
60
F8
60
60
60
60
60
60
60
68
78
08
08
08
48
70
ENDCHAR
STARTCHAR uni01AD
ENCODING 429
SWIDTH 315 0
DWIDTH 6 0
BBX 7 15 1 0
BITMAP
1C
26
60
60
60
F8
60
60
60
60
60
60
60
68
70
ENDCHAR
STARTCHAR Uhorn
ENCODING 431
SWIDTH 762 0
DWIDTH 15 0
BBX 16 18 0 0
BITMAP
0001
0003
0001
0001
FC3E
3018
3008
3008
3008
3008
3008
3008
3008
3008
1008
1810
1830
07C0
ENDCHAR
STARTCHAR uhorn
ENCODING 432
SWIDTH 574 0
DWIDTH 11 0
BBX 12 13 0 0
BITMAP
0020
0030
0020
E3E0
2080
2080
2080
2080
2080
2080
3080
3180
1EE0
ENDCHAR
STARTCHAR uni01B5
ENCODING 437
SWIDTH 594 0
DWIDTH 12 0
BBX 10 14 1 0
BITMAP
FFC0
C1C0
8180
8300
0700
0600
7F80
1C00
1800
3000
7040
6040
E040
FFC0
ENDCHAR
STARTCHAR uni01BA
ENCODING 442
SWIDTH 430 0
DWIDTH 9 0
BBX 7 15 1 -5
BITMAP
FE
8C
98
30
20
7C
06
06
06
0C
38
C0
84
8C
78
ENDCHAR
STARTCHAR uni01BB
ENCODING 443
SWIDTH 508 0
DWIDTH 10 0
BBX 8 14 1 0
BITMAP
3C
46
83
03
03
02
06
FF
08
10
20
41
FF
FF
ENDCHAR
STARTCHAR uni01BE
ENCODING 446
SWIDTH 406 0
DWIDTH 8 0
BBX 7 13 1 0
BITMAP
20
60
60
F8
60
60
1C
0C
04
06
84
8C
F8
ENDCHAR
STARTCHAR uni01C0
ENCODING 448
SWIDTH 250 0
DWIDTH 5 0
BBX 1 14 2 0
BITMAP
80
80
80
80
80
80
80
80
80
80
80
80
80
80
ENDCHAR
STARTCHAR uni01C1
ENCODING 449
SWIDTH 423 0
DWIDTH 8 0
BBX 5 14 2 0
BITMAP
98
98
98
98
98
98
98
98
98
98
98
98
98
98
ENDCHAR
STARTCHAR uni01C2
ENCODING 450
SWIDTH 422 0
DWIDTH 8 0
BBX 7 14 1 0
BITMAP
30
30
30
30
FE
30
30
FE
30
30
30
30
30
30
ENDCHAR
STARTCHAR uni01C3
ENCODING 451
SWIDTH 245 0
DWIDTH 5 0
BBX 3 14 1 0
BITMAP
40
C0
40
40
40
40
40
40
40
40
40
00
E0
C0
ENDCHAR
STARTCHAR uni01DE
ENCODING 478
SWIDTH 718 0
DWIDTH 14 0
BBX 14 18 0 0
BITMAP
0FC0
0CC0
0CC0
0000
0300
0300
0380
0580
0580
0CC0
08C0
08E0
1860
1FE0
3070
2030
6038
F07C
ENDCHAR
STARTCHAR uni01DF
ENCODING 479
SWIDTH 480 0
DWIDTH 10 0
BBX 9 16 1 0
BITMAP
7E00
0000
E600
C600
0000
0000
3C00
C400
C600
0600
0E00
7600
C600
C600
CE00
7780
ENDCHAR
STARTCHAR uni01F0
ENCODING 496
SWIDTH 263 0
DWIDTH 5 0
BBX 7 19 -2 -5
BITMAP
22
14
0C
00
1C
0C
0C
0C
0C
0C
0C
0C
0C
0C
0C
0C
08
C8
70
ENDCHAR
STARTCHAR Aringacute
ENCODING 506
SWIDTH 718 0
DWIDTH 14 0
BBX 14 21 0 0
BITMAP
0180
0300
0600
0300
0480
0480
0300
0300
0300
0380
0580
0580
0CC0
08C0
08E0
1860
1FE0
3070
2030
6038
F07C
ENDCHAR
STARTCHAR aringacute
ENCODING 507
SWIDTH 480 0
DWIDTH 10 0
BBX 9 18 1 0
BITMAP
0C00
1800
2000
3800
2400
2400
3800
0000
3C00
C400
C600
0600
0E00
7600
C600
C600
CE00
7780
ENDCHAR
STARTCHAR AEacute
ENCODING 508
SWIDTH 894 0
DWIDTH 18 0
BBX 17 17 0 0
BITMAP
001800
001800
002000
03FF80
01C180
02C080
02C080
04C000
04C200
08C200
0FFE00
18C200
10C200
20C080
20C080
60C080
F3FF80
ENDCHAR
STARTCHAR aeacute
ENCODING 509
SWIDTH 709 0
DWIDTH 14 0
BBX 13 14 1 0
BITMAP
0300
0600
0C00
0000
79E0
C630
C610
0FF8
3400
4600
C608
C710
CBF0
71E0
ENDCHAR
STARTCHAR Oslashacute
ENCODING 510
SWIDTH 737 0
DWIDTH 15 0
BBX 13 17 1 0
BITMAP
0180
0300
0400
0FB0
30E0
6070
60B0
C130
C118
C218
C418
C818
C830
7030
6020
7060
CF80
ENDCHAR
STARTCHAR oslashacute
ENCODING 511
SWIDTH 514 0
DWIDTH 10 0
BBX 9 14 1 0
BITMAP
0C00
1800
1000
0000
3D00
4200
C700
C900
C980
D180
E100
C300
4300
BC00
ENDCHAR
STARTCHAR uni0218
ENCODING 536
SWIDTH 504 0
DWIDTH 10 0
BBX 8 19 1 -5
BITMAP
3F
43
C1
C1
E0
70
3C
1E
07
03
83
83
C3
FE
00
18
18
08
18
ENDCHAR
STARTCHAR uni0219
ENCODING 537
SWIDTH 394 0
DWIDTH 8 0
BBX 6 15 1 -5
BITMAP
7C
84
84
C0
70
3C
0C
84
84
F8
00
30
30
10
20
ENDCHAR
STARTCHAR uni021A
ENCODING 538
SWIDTH 603 0
DWIDTH 12 0
BBX 12 19 0 -5
BITMAP
FFF0
C630
8610
8610
0600
0600
0600
0600
0600
0600
0600
0600
0600
1F80
0000
0600
0600
0200
0600
ENDCHAR
STARTCHAR uni021B
ENCODING 539
SWIDTH 315 0
DWIDTH 6 0
BBX 5 18 1 -5
BITMAP
20
60
60
F8
60
60
60
60
60
60
60
68
70
00
70
30
10
20
ENDCHAR
STARTCHAR uni0221
ENCODING 545
SWIDTH 674 0
DWIDTH 13 0
BBX 13 17 1 -3
BITMAP
0700
0300
0300
0300
3F00
4300
C300
8300
8300
8300
C330
C348
FF90
79E0
0100
0100
0200
ENDCHAR
STARTCHAR uni0228
ENCODING 552
SWIDTH 626 0
DWIDTH 13 0
BBX 11 19 1 -5
BITMAP
FFC0
3040
3040
3000
3080
3080
3080
3F80
3080
3000
3020
3020
3060
FFC0
0400
0E00
0200
0200
0E00
ENDCHAR
STARTCHAR uni0229
ENCODING 553
SWIDTH 464 0
DWIDTH 9 0
BBX 8 15 1 -5
BITMAP
3C
46
82
FF
80
80
C1
E2
7E
3C
10
18
04
04
38
ENDCHAR
STARTCHAR uni0234
ENCODING 564
SWIDTH 399 0
DWIDTH 8 0
BBX 8 17 0 -3
BITMAP
E0
20
20
20
20
20
20
20
20
20
27
29
29
3E
10
20
20
ENDCHAR
STARTCHAR uni0235
ENCODING 565
SWIDTH 702 0
DWIDTH 14 0
BBX 13 13 1 -3
BITMAP
EE00
7300
6100
6100
6100
6100
6118
6128
6148
F1F0
0080
0100
0100
ENDCHAR
STARTCHAR uni0236
ENCODING 566
SWIDTH 406 0
DWIDTH 8 0
BBX 7 16 1 -3
BITMAP
20
60
60
F8
60
60
60
60
60
66
6A
72
3C
20
40
40
ENDCHAR
STARTCHAR uni0237
ENCODING 567
SWIDTH 263 0
DWIDTH 5 0
BBX 6 15 -2 -5
BITMAP
1C
0C
0C
0C
0C
0C
0C
0C
0C
0C
0C
0C
08
C8
70
ENDCHAR
STARTCHAR uni0250
ENCODING 592
SWIDTH 475 0
DWIDTH 10 0
BBX 9 10 0 0
BITMAP
EF00
3180
2180
2100
2600
3800
2000
3100
3100
1E00
ENDCHAR
STARTCHAR uni0251
ENCODING 593
SWIDTH 542 0
DWIDTH 11 0
BBX 9 10 1 0
BITMAP
3D00
4300
C300
8300
8300
8300
8300
C300
C300
7F80
ENDCHAR
STARTCHAR uni0252
ENCODING 594
SWIDTH 544 0
DWIDTH 11 0
BBX 9 10 1 0
BITMAP
EF00
7300
6180
6180
6180
6180
6180
6180
6300
5E00
ENDCHAR
STARTCHAR uni0253
ENCODING 595
SWIDTH 518 0
DWIDTH 10 0
BBX 8 15 2 0
BITMAP
78
8C
88
80
80
BC
C6
86
83
83
83
82
86
84
F8
ENDCHAR
STARTCHAR uni0254
ENCODING 596
SWIDTH 454 0
DWIDTH 9 0
BBX 8 10 0 0
BITMAP
3C
7E
43
83
01
01
01
61
62
3C
ENDCHAR
STARTCHAR uni0255
ENCODING 597
SWIDTH 447 0
DWIDTH 9 0
BBX 7 12 1 -2
BITMAP
3C
46
C6
80
80
80
CE
D2
62
3C
40
40
ENDCHAR
STARTCHAR uni0256
ENCODING 598
SWIDTH 528 0
DWIDTH 11 0
BBX 12 19 1 -5
BITMAP
0700
0300
0300
0300
3F00
4300
C300
8300
8300
8300
C300
C300
E700
7B00
0300
0300
0300
0130
00E0
ENDCHAR
STARTCHAR uni0257
ENCODING 599
SWIDTH 542 0
DWIDTH 11 0
BBX 12 15 1 0
BITMAP
00E0
0130
0110
0300
0300
3F00
4300
C300
C300
8300
8300
C300
C300
C300
7F80
ENDCHAR
STARTCHAR uni0258
ENCODING 600
SWIDTH 466 0
DWIDTH 9 0
BBX 8 10 1 0
BITMAP
3C
C6
C2
FF
03
03
06
86
7E
38
ENDCHAR
STARTCHAR uni0259
ENCODING 601
SWIDTH 464 0
DWIDTH 9 0
BBX 8 10 1 0
BITMAP
78
FE
86
02
03
FF
C2
C2
46
38
ENDCHAR
STARTCHAR uni025A
ENCODING 602
SWIDTH 642 0
DWIDTH 13 0
BBX 12 10 1 0
BITMAP
7800
FE00
8790
0260
0300
FF00
C200
C200
4600
3800
ENDCHAR
STARTCHAR uni025B
ENCODING 603
SWIDTH 399 0
DWIDTH 8 0
BBX 7 10 1 0
BITMAP
7C
C6
C0
C0
38
C0
C0
80
C2
7C
ENDCHAR
STARTCHAR uni025C
ENCODING 604
SWIDTH 398 0
DWIDTH 8 0
BBX 7 10 0 0
BITMAP
7C
C6
06
06
38
06
06
02
86
7C
ENDCHAR
STARTCHAR uni025D
ENCODING 605
SWIDTH 575 0
DWIDTH 12 0
BBX 11 10 0 0
BITMAP
7C00
C600
07A0
04E0
3C00
0600
0600
0200
8600
7C00
ENDCHAR
STARTCHAR uni025E
ENCODING 606
SWIDTH 500 0
DWIDTH 10 0
BBX 8 10 1 0
BITMAP
3E
63
C3
83
9C
83
81
C1
43
3E
ENDCHAR
STARTCHAR uni025F
ENCODING 607
SWIDTH 272 0
DWIDTH 5 0
BBX 7 15 -2 -5
BITMAP
1C
0C
0C
0C
3E
0C
0C
0C
0C
0C
0C
0C
08
C8
70
ENDCHAR
STARTCHAR uni0260
ENCODING 608
SWIDTH 541 0
DWIDTH 11 0
BBX 12 20 1 -5
BITMAP
00F0
0130
0310
0300
0300
3F00
4300
C300
8300
8300
8300
C300
C300
E700
7B00
0300
0300
C200
C600
7C00
ENDCHAR
STARTCHAR uni0261
ENCODING 609
SWIDTH 521 0
DWIDTH 10 0
BBX 8 15 1 -5
BITMAP
3D
43
C3
83
83
83
C3
C3
E7
7B
03
03
C2
C6
7C
ENDCHAR
STARTCHAR uni0262
ENCODING 610
SWIDTH 535 0
DWIDTH 11 0
BBX 9 10 1 0
BITMAP
3F00
6100
C100
C100
C000
C780
C100
C100
6100
3E00
ENDCHAR
STARTCHAR uni0263
ENCODING 611
SWIDTH 479 0
DWIDTH 10 0
BBX 10 15 0 -5
BITMAP
F3C0
6080
6100
3100
3100
1200
1A00
1C00
0C00
0C00
0C00
1600
1600
1600
1C00
ENDCHAR
STARTCHAR uni0264
ENCODING 612
SWIDTH 466 0
DWIDTH 9 0
BBX 9 10 0 0
BITMAP
7780
C880
9480
1600
2600
2200
2200
2200
2200
1C00
ENDCHAR
STARTCHAR uni0265
ENCODING 613
SWIDTH 553 0
DWIDTH 11 0
BBX 11 15 0 -5
BITMAP
E380
2080
2080
2080
2080
2080
2080
3080
3180
1E80
0080
0080
0080
00C0
00E0
ENDCHAR
STARTCHAR uni0266
ENCODING 614
SWIDTH 577 0
DWIDTH 12 0
BBX 10 15 1 0
BITMAP
1E00
2600
6200
6000
6000
6F00
7100
6180
6180
6180
6180
6180
6180
6180
F3C0
ENDCHAR
STARTCHAR uni0267
ENCODING 615
SWIDTH 562 0
DWIDTH 11 0
BBX 9 20 1 -5
BITMAP
1E00
2600
6200
6000
6000
6F00
7100
6180
6180
6180
6180
6180
6180
6180
F180
0180
0180
0100
1900
0E00
ENDCHAR
STARTCHAR uni0268
ENCODING 616
SWIDTH 295 0
DWIDTH 6 0
BBX 4 14 1 0
BITMAP
60
60
00
00
E0
60
60
60
F0
60
60
60
60
F0
ENDCHAR
STARTCHAR uni0269
ENCODING 617
SWIDTH 286 0
DWIDTH 6 0
BBX 6 10 0 0
BITMAP
E0
20
20
20
20
20
20
20
34
38
ENDCHAR
STARTCHAR uni026A
ENCODING 618
SWIDTH 287 0
DWIDTH 6 0
BBX 4 10 1 0
BITMAP
F0
60
60
60
60
60
60
60
60
F0
ENDCHAR
STARTCHAR uni026B
ENCODING 619
SWIDTH 290 0
DWIDTH 6 0
BBX 6 14 0 0
BITMAP
70
30
30
30
30
74
B8
30
30
30
30
30
30
78
ENDCHAR
STARTCHAR uni026C
ENCODING 620
SWIDTH 318 0
DWIDTH 6 0
BBX 7 14 0 0
BITMAP
70
10
10
10
70
90
92
94
78
10
10
10
10
7C
ENDCHAR
STARTCHAR uni026D
ENCODING 621
SWIDTH 248 0
DWIDTH 5 0
BBX 7 19 0 -5
BITMAP
E0
20
20
20
20
20
20
20
20
20
20
20
20
20
20
20
20
26
1E
ENDCHAR
STARTCHAR uni026E
ENCODING 622
SWIDTH 590 0
DWIDTH 12 0
BBX 11 19 1 -5
BITMAP
E000
6000
6000
6000
7FC0
60C0
6180
6300
6200
6600
6F00
6180
60C0
F040
0060
0040
10C0
3080
1F00
ENDCHAR
STARTCHAR uni026F
ENCODING 623
SWIDTH 846 0
DWIDTH 17 0
BBX 16 10 0 0
BITMAP
E38E
2186
2186
2186
2186
2186
2186
3186
318E
1EF7
ENDCHAR
STARTCHAR uni0270
ENCODING 624
SWIDTH 826 0
DWIDTH 17 0
BBX 16 15 0 -5
BITMAP
E38E
2186
2186
2186
2186
2186
2186
3186
318E
1EF6
0006
0006
0006
0006
0007
ENDCHAR
STARTCHAR uni0271
ENCODING 625
SWIDTH 835 0
DWIDTH 17 0
BBX 14 15 1 -5
BITMAP
EF78
718C
610C
610C
610C
610C
610C
610C
618C
F7CC
000C
000C
000C
0068
0078
ENDCHAR
STARTCHAR uni0272
ENCODING 626
SWIDTH 574 0
DWIDTH 11 0
BBX 13 15 -2 -5
BITMAP
1DE0
0E60
0C30
0C30
0C30
0C30
0C30
0C30
0C30
0CF8
0C00
0C00
0800
C800
7000
ENDCHAR
STARTCHAR uni0273
ENCODING 627
SWIDTH 563 0
DWIDTH 11 0
BBX 12 15 1 -5
BITMAP
EF00
7100
6180
6180
6180
6180
6180
6180
6180
F180
0180
0180
0180
00B0
00F0
ENDCHAR
STARTCHAR uni0274
ENCODING 628
SWIDTH 568 0
DWIDTH 11 0
BBX 11 10 0 0
BITMAP
F1E0
3040
3840
2C40
2E40
2740
2340
21C0
20C0
F040
ENDCHAR
STARTCHAR uni0275
ENCODING 629
SWIDTH 514 0
DWIDTH 10 0
BBX 9 10 1 0
BITMAP
3C00
4300
C300
C100
FF80
C180
C100
C300
6300
3C00
ENDCHAR
STARTCHAR uni0276
ENCODING 630
SWIDTH 732 0
DWIDTH 15 0
BBX 13 10 1 0
BITMAP
3FF0
6308
C308
C320
C3E0
C320
C320
C308
4308
3FF8
ENDCHAR
STARTCHAR uni0277
ENCODING 631
SWIDTH 672 0
DWIDTH 13 0
BBX 12 10 1 0
BITMAP
1F00
60C0
4060
C020
C630
C630
C630
C420
C660
79C0
ENDCHAR
STARTCHAR uni0278
ENCODING 632
SWIDTH 658 0
DWIDTH 13 0
BBX 11 19 1 -5
BITMAP
1C00
0400
0400
0400
3F80
64C0
C460
C460
C420
C420
C420
C460
6440
3F80
0400
0400
0400
0400
1F00
ENDCHAR
STARTCHAR uni0279
ENCODING 633
SWIDTH 380 0
DWIDTH 8 0
BBX 7 10 0 0
BITMAP
3E
0C
0C
0C
0C
0C
0C
1C
EC
EE
ENDCHAR
STARTCHAR uni027A
ENCODING 634
SWIDTH 374 0
DWIDTH 7 0
BBX 7 14 0 0
BITMAP
3C
0C
0C
0C
0C
0C
0C
0C
0C
0C
0C
1C
EC
EE
ENDCHAR
STARTCHAR uni027B
ENCODING 635
SWIDTH 375 0
DWIDTH 8 0
BBX 9 15 0 -5
BITMAP
3E00
0C00
0C00
0C00
0C00
0C00
0C00
1C00
EC00
EC00
0C00
0C00
0C80
0580
0780
ENDCHAR
STARTCHAR uni027C
ENCODING 636
SWIDTH 378 0
DWIDTH 8 0
BBX 6 15 1 -5
BITMAP
EC
7C
60
60
60
60
60
60
60
60
60
60
60
60
F8
ENDCHAR
STARTCHAR uni027D
ENCODING 637
SWIDTH 373 0
DWIDTH 7 0
BBX 6 15 1 -5
BITMAP
EC
7C
60
60
60
60
60
60
60
60
60
60
60
2C
3C
ENDCHAR
STARTCHAR uni027E
ENCODING 638
SWIDTH 371 0
DWIDTH 7 0
BBX 7 10 0 0
BITMAP
1E
12
30
30
30
30
30
30
30
F8
ENDCHAR
STARTCHAR uni027F
ENCODING 639
SWIDTH 371 0
DWIDTH 7 0
BBX 7 10 0 0
BITMAP
F0
C8
08
08
0C
0C
0C
0C
0C
3E
ENDCHAR
STARTCHAR uni0280
ENCODING 640
SWIDTH 494 0
DWIDTH 10 0
BBX 9 10 1 0
BITMAP
FC00
6200
6200
6200
6600
7800
6C00
6600
6700
F380
ENDCHAR
STARTCHAR uni0281
ENCODING 641
SWIDTH 494 0
DWIDTH 10 0
BBX 9 10 1 0
BITMAP
F380
6700
6600
6C00
7800
6600
6200
6200
6600
FC00
ENDCHAR
STARTCHAR uni0282
ENCODING 642
SWIDTH 395 0
DWIDTH 8 0
BBX 6 15 1 -5
BITMAP
7C
84
84
C0
70
3C
8C
84
84
F8
80
80
80
90
70
ENDCHAR
STARTCHAR uni0283
ENCODING 643
SWIDTH 253 0
DWIDTH 5 0
BBX 9 20 -2 -5
BITMAP
0780
0D80
0880
0800
0800
0800
0800
0800
0800
0800
0800
0800
0800
0800
0800
0800
0800
0800
C800
F000
ENDCHAR
STARTCHAR uni0284
ENCODING 644
SWIDTH 286 0
DWIDTH 6 0
BBX 9 19 -2 -5
BITMAP
0380
0480
0C00
0C00
0C00
0C00
0C00
0C00
0C00
0C00
0C00
0C00
0C00
3E00
0C00
0C00
0800
C800
7000
ENDCHAR
STARTCHAR uni0285
ENCODING 645
SWIDTH 361 0
DWIDTH 7 0
BBX 9 15 0 -5
BITMAP
7000
C800
0800
0800
0C00
0C00
0C00
0C00
0C00
0C00
0C00
0C00
0C00
0C80
0780
ENDCHAR
STARTCHAR uni0286
ENCODING 646
SWIDTH 253 0
DWIDTH 5 0
BBX 9 20 -2 -5
BITMAP
0780
0D80
0880
0800
0800
0800
0800
0800
0800
0800
0800
0800
0800
0800
0800
0800
7800
8E00
8800
7000
ENDCHAR
STARTCHAR uni0287
ENCODING 647
SWIDTH 315 0
DWIDTH 6 0
BBX 6 13 0 -3
BITMAP
70
90
10
10
10
10
10
10
10
7C
18
10
10
ENDCHAR
STARTCHAR uni0288
ENCODING 648
SWIDTH 309 0
DWIDTH 6 0
BBX 6 18 1 -5
BITMAP
20
20
60
F8
60
60
60
60
60
60
60
60
60
60
60
60
2C
3C
ENDCHAR
STARTCHAR uni0289
ENCODING 649
SWIDTH 580 0
DWIDTH 12 0
BBX 10 10 1 0
BITMAP
E780
6180
6180
6180
FFC0
6180
6180
6180
6380
3DC0
ENDCHAR
STARTCHAR uni028A
ENCODING 650
SWIDTH 548 0
DWIDTH 11 0
BBX 9 10 1 0
BITMAP
E380
2200
4100
C180
C180
C180
C180
C180
6300
3E00
ENDCHAR
STARTCHAR uni028B
ENCODING 651
SWIDTH 530 0
DWIDTH 11 0
BBX 10 10 0 0
BITMAP
E180
2180
20C0
20C0
2040
2040
2040
3080
3080
1F00
ENDCHAR
STARTCHAR uni028C
ENCODING 652
SWIDTH 495 0
DWIDTH 10 0
BBX 10 10 0 0
BITMAP
0C00
0C00
1400
1600
1600
2300
2300
4300
4180
E3C0
ENDCHAR
STARTCHAR uni028D
ENCODING 653
SWIDTH 764 0
DWIDTH 15 0
BBX 15 10 0 0
BITMAP
0820
0C60
1470
16B0
1698
2298
2318
230C
410C
E3DE
ENDCHAR
STARTCHAR uni028E
ENCODING 654
SWIDTH 492 0
DWIDTH 10 0
BBX 10 14 0 0
BITMAP
01C0
03C0
0400
0400
0800
0800
0C00
1400
1600
2200
2300
2300
4180
E3C0
ENDCHAR
STARTCHAR uni028F
ENCODING 655
SWIDTH 454 0
DWIDTH 9 0
BBX 9 10 0 0
BITMAP
F380
6100
2100
3200
1C00
0C00
0C00
0C00
0C00
3E00
ENDCHAR
STARTCHAR uni0290
ENCODING 656
SWIDTH 458 0
DWIDTH 9 0
BBX 11 15 1 -5
BITMAP
FE00
8600
8C00
1800
1800
3000
3000
6100
C200
FE00
0200
0200
0200
0160
01C0
ENDCHAR
STARTCHAR uni0291
ENCODING 657
SWIDTH 458 0
DWIDTH 9 0
BBX 8 13 1 -3
BITMAP
FE
86
8C
18
18
30
37
69
C9
FE
20
20
60
ENDCHAR
STARTCHAR uni0292
ENCODING 658
SWIDTH 443 0
DWIDTH 9 0
BBX 9 15 0 -5
BITMAP
7F00
4300
4600
0C00
0C00
1800
3C00
0600
0300
0100
0180
0100
4300
E200
7C00
ENDCHAR
STARTCHAR uni0293
ENCODING 659
SWIDTH 443 0
DWIDTH 9 0
BBX 7 18 1 -8
BITMAP
FE
86
8C
18
18
30
70
0C
06
06
02
C2
A6
96
78
08
04
04
ENDCHAR
STARTCHAR uni0294
ENCODING 660
SWIDTH 383 0
DWIDTH 8 0
BBX 8 15 0 0
BITMAP
3C
46
42
43
03
02
06
0C
30
30
30
30
30
30
F8
ENDCHAR
STARTCHAR uni0295
ENCODING 661
SWIDTH 383 0
DWIDTH 8 0
BBX 7 14 0 0
BITMAP
3C
46
C6
C0
C0
C0
60
18
0C
0C
0C
0C
0C
3E
ENDCHAR
STARTCHAR uni0296
ENCODING 662
SWIDTH 408 0
DWIDTH 8 0
BBX 7 14 1 0
BITMAP
E0
60
60
60
60
60
30
08
0C
06
06
84
84
78
ENDCHAR
STARTCHAR uni0297
ENCODING 663
SWIDTH 437 0
DWIDTH 9 0
BBX 8 13 1 -3
BITMAP
3C
46
C6
C0
80
80
80
80
80
C0
C1
62
3C
ENDCHAR
STARTCHAR uni0298
ENCODING 664
SWIDTH 736 0
DWIDTH 15 0
BBX 13 14 1 0
BITMAP
0F80
3060
6030
C030
C018
C618
C718
C618
C018
C018
C030
6030
3060
0F80
ENDCHAR
STARTCHAR uni0299
ENCODING 665
SWIDTH 485 0
DWIDTH 10 0
BBX 8 10 1 0
BITMAP
FC
62
63
66
7C
62
63
63
63
FE
ENDCHAR
STARTCHAR uni029A
ENCODING 666
SWIDTH 500 0
DWIDTH 10 0
BBX 8 10 1 0
BITMAP
7C
C6
C3
C1
39
C1
81
83
C2
7C
ENDCHAR
STARTCHAR uni029B
ENCODING 667
SWIDTH 536 0
DWIDTH 11 0
BBX 12 14 1 0
BITMAP
00E0
00B0
0100
0100
3F00
6100
C100
C000
C000
C780
C100
C100
6100
3E00
ENDCHAR
STARTCHAR uni029C
ENCODING 668
SWIDTH 599 0
DWIDTH 12 0
BBX 10 10 1 0
BITMAP
F3C0
6180
6180
6180
7F80
6180
6180
6180
6180
F3C0
ENDCHAR
STARTCHAR uni029D
ENCODING 669
SWIDTH 263 0
DWIDTH 5 0
BBX 6 19 -1 -5
BITMAP
18
18
00
00
38
18
18
18
18
18
18
18
18
18
18
78
9C
90
E0
ENDCHAR
STARTCHAR uni029E
ENCODING 670
SWIDTH 542 0
DWIDTH 11 0
BBX 10 15 0 -5
BITMAP
F3C0
3180
1980
0D80
0D80
0780
0580
0980
1180
7980
0180
0180
0180
0180
01C0
ENDCHAR
STARTCHAR uni029F
ENCODING 671
SWIDTH 440 0
DWIDTH 9 0
BBX 9 10 0 0
BITMAP
F800
3000
2000
2000
2000
2000
2000
2080
2100
FF00
ENDCHAR
STARTCHAR uni02A0
ENCODING 672
SWIDTH 541 0
DWIDTH 11 0
BBX 12 19 1 -5
BITMAP
00F0
0130
0300
0300
3F00
4300
C300
8300
8300
8300
C300
C300
E700
7B00
0300
0300
0300
0300
0F80
ENDCHAR
STARTCHAR uni02A1
ENCODING 673
SWIDTH 393 0
DWIDTH 8 0
BBX 7 15 1 0
BITMAP
78
CC
86
06
06
04
0C
18
60
60
F8
60
60
60
F8
ENDCHAR
STARTCHAR uni02A2
ENCODING 674
SWIDTH 393 0
DWIDTH 8 0
BBX 7 14 0 0
BITMAP
3C
46
C2
C0
C0
40
20
1C
0C
3E
0C
0C
0C
3E
ENDCHAR
STARTCHAR uni02A3
ENCODING 675
SWIDTH 830 0
DWIDTH 17 0
BBX 15 14 1 0
BITMAP
0700
0300
0300
0300
3FFE
430C
C30C
C318
8330
8330
C360
C3C2
E7C2
7BFE
ENDCHAR
STARTCHAR uni02A4
ENCODING 676
SWIDTH 838 0
DWIDTH 17 0
BBX 15 19 1 -5
BITMAP
0700
0300
0300
0300
3FFE
430E
C30C
C318
8318
8330
C360
C31C
C306
7F86
0002
0002
0186
0184
00F8
ENDCHAR
STARTCHAR uni02A5
ENCODING 677
SWIDTH 829 0
DWIDTH 17 0
BBX 15 17 1 -3
BITMAP
0700
0300
0300
0300
3FFE
430C
C30C
8318
8330
8330
C366
C3CA
E7D2
7BFC
0020
0040
0040
ENDCHAR
STARTCHAR uni02A6
ENCODING 678
SWIDTH 614 0
DWIDTH 12 0
BBX 11 13 1 0
BITMAP
2000
6000
6000
FFC0
6C40
6C40
6E00
6700
61C0
60E0
6060
6040
3F80
ENDCHAR
STARTCHAR uni02A7
ENCODING 679
SWIDTH 513 0
DWIDTH 10 0
BBX 11 20 1 -5
BITMAP
00E0
0160
2300
6300
6300
FF00
6300
6300
6300
6300
6300
6300
6300
6B00
7300
0300
0300
0200
3200
1C00
ENDCHAR
STARTCHAR uni02A8
ENCODING 680
SWIDTH 687 0
DWIDTH 14 0
BBX 12 13 1 0
BITMAP
2000
6000
6000
F9E0
6230
6430
6400
6400
6C00
64F0
6710
6710
7BE0
ENDCHAR
STARTCHAR uni02A9
ENCODING 681
SWIDTH 866 0
DWIDTH 17 0
BBX 16 20 0 -5
BITMAP
0E00
1300
3200
3000
3000
7FDE
30E2
30C3
30C3
30C3
30C3
30C3
30C3
30C3
FDE3
0003
0003
0003
0032
001C
ENDCHAR
STARTCHAR uni02AA
ENCODING 682
SWIDTH 595 0
DWIDTH 12 0
BBX 11 14 0 0
BITMAP
E000
2000
2000
2000
23E0
2420
2420
2600
2380
21E0
2060
2020
3060
1FC0
ENDCHAR
STARTCHAR uni02AB
ENCODING 683
SWIDTH 580 0
DWIDTH 12 0
BBX 10 14 1 0
BITMAP
E000
6000
6000
6000
7FC0
6180
6180
6300
6600
6600
6C00
6840
78C0
FFC0
ENDCHAR
STARTCHAR uni02AC
ENCODING 684
SWIDTH 599 0
DWIDTH 12 0
BBX 12 14 0 0
BITMAP
EF70
6620
2640
3740
1940
1980
0000
EF70
6620
2220
3740
3540
1980
1980
ENDCHAR
STARTCHAR uni02AD
ENCODING 685
SWIDTH 479 0
DWIDTH 10 0
BBX 7 14 1 0
BITMAP
FE
C2
C2
C2
C2
C2
C2
00
FE
C2
C2
C2
C2
C2
ENDCHAR
STARTCHAR uni02AE
ENCODING 686
SWIDTH 595 0
DWIDTH 12 0
BBX 13 15 -1 -5
BITMAP
70E0
C860
0820
0820
0820
0820
0820
0C20
0C60
07A0
0020
0020
0020
0020
0038
ENDCHAR
STARTCHAR uni02AF
ENCODING 687
SWIDTH 600 0
DWIDTH 12 0
BBX 15 15 -1 -5
BITMAP
70E0
C860
0820
0820
0820
0820
0820
0C20
0C60
07A0
0020
0020
0022
0036
001E
ENDCHAR
STARTCHAR uni02B0
ENCODING 688
SWIDTH 488 0
DWIDTH 10 0
BBX 9 11 0 5
BITMAP
E000
2000
2000
2E00
3300
2100
2100
2100
2100
2100
7780
ENDCHAR
STARTCHAR uni02B1
ENCODING 689
SWIDTH 488 0
DWIDTH 10 0
BBX 8 12 1 5
BITMAP
3C
4C
40
40
5C
66
42
42
42
42
42
EF
ENDCHAR
STARTCHAR uni02B2
ENCODING 690
SWIDTH 222 0
DWIDTH 4 0
BBX 4 14 -1 2
BITMAP
30
10
00
30
10
10
10
10
10
10
10
10
90
E0
ENDCHAR
STARTCHAR uni02B3
ENCODING 691
SWIDTH 325 0
DWIDTH 7 0
BBX 5 8 1 5
BITMAP
D8
68
40
40
40
40
40
F0
ENDCHAR
STARTCHAR uni02B4
ENCODING 692
SWIDTH 325 0
DWIDTH 7 0
BBX 5 8 1 5
BITMAP
78
10
10
10
10
10
B0
D8
ENDCHAR
STARTCHAR uni02B5
ENCODING 693
SWIDTH 325 0
DWIDTH 7 0
BBX 7 10 1 3
BITMAP
78
10
10
10
10
10
B0
D0
10
0E
ENDCHAR
STARTCHAR uni02B6
ENCODING 694
SWIDTH 443 0
DWIDTH 9 0
BBX 8 8 1 5
BITMAP
E7
44
4C
58
78
44
44
FC
ENDCHAR
STARTCHAR uni02B7
ENCODING 695
SWIDTH 653 0
DWIDTH 13 0
BBX 13 8 0 5
BITMAP
E738
6210
2310
3320
35A0
15C0
18C0
08C0
ENDCHAR
STARTCHAR uni02B8
ENCODING 696
SWIDTH 427 0
DWIDTH 9 0
BBX 9 11 0 2
BITMAP
F380
6200
2200
3200
1400
1C00
0800
0800
0800
5000
E000
ENDCHAR
STARTCHAR uni02B9
ENCODING 697
SWIDTH 296 0
DWIDTH 6 0
BBX 4 6 1 9
BITMAP
30
20
60
40
40
80
ENDCHAR
STARTCHAR uni02BA
ENCODING 698
SWIDTH 456 0
DWIDTH 9 0
BBX 7 6 1 9
BITMAP
36
26
64
4C
48
88
ENDCHAR
STARTCHAR uni02BB
ENCODING 699
SWIDTH 245 0
DWIDTH 5 0
BBX 3 5 1 9
BITMAP
20
40
80
E0
60
ENDCHAR
STARTCHAR uni02BC
ENCODING 700
SWIDTH 244 0
DWIDTH 5 0
BBX 3 5 1 9
BITMAP
C0
E0
20
40
80
ENDCHAR
STARTCHAR uni02BD
ENCODING 701
SWIDTH 244 0
DWIDTH 5 0
BBX 3 5 1 9
BITMAP
E0
E0
80
40
20
ENDCHAR
STARTCHAR uni02BE
ENCODING 702
SWIDTH 203 0
DWIDTH 4 0
BBX 3 4 1 10
BITMAP
C0
60
60
C0
ENDCHAR
STARTCHAR uni02BF
ENCODING 703
SWIDTH 203 0
DWIDTH 4 0
BBX 3 4 0 10
BITMAP
60
C0
40
60
ENDCHAR
STARTCHAR uni02C0
ENCODING 704
SWIDTH 364 0
DWIDTH 7 0
BBX 6 8 1 7
BITMAP
70
C8
8C
0C
08
18
60
60
ENDCHAR
STARTCHAR uni02C1
ENCODING 705
SWIDTH 364 0
DWIDTH 7 0
BBX 5 8 1 7
BITMAP
70
C8
88
80
80
40
30
10
ENDCHAR
STARTCHAR uni02C2
ENCODING 706
SWIDTH 324 0
DWIDTH 6 0
BBX 5 6 1 9
BITMAP
18
30
C0
C0
30
18
ENDCHAR
STARTCHAR uni02C3
ENCODING 707
SWIDTH 324 0
DWIDTH 6 0
BBX 5 6 1 9
BITMAP
80
60
38
30
60
80
ENDCHAR
STARTCHAR uni02C4
ENCODING 708
SWIDTH 324 0
DWIDTH 6 0
BBX 7 5 0 10
BITMAP
10
30
68
4C
86
ENDCHAR
STARTCHAR uni02C5
ENCODING 709
SWIDTH 324 0
DWIDTH 6 0
BBX 7 5 0 10
BITMAP
86
4C
68
30
10
ENDCHAR
STARTCHAR circumflex
ENCODING 710
SWIDTH 342 0
DWIDTH 7 0
BBX 5 3 1 11
BITMAP
60
50
88
ENDCHAR
STARTCHAR caron
ENCODING 711
SWIDTH 342 0
DWIDTH 7 0
BBX 5 3 1 11
BITMAP
88
50
60
ENDCHAR
STARTCHAR uni02C8
ENCODING 712
SWIDTH 284 0
DWIDTH 6 0
BBX 1 6 2 9
BITMAP
80
80
80
80
80
80
ENDCHAR
STARTCHAR uni02C9
ENCODING 713
SWIDTH 350 0
DWIDTH 7 0
BBX 5 1 1 12
BITMAP
F8
ENDCHAR
STARTCHAR uni02CA
ENCODING 714
SWIDTH 222 0
DWIDTH 4 0
BBX 3 3 1 11
BITMAP
60
C0
80
ENDCHAR
STARTCHAR uni02CB
ENCODING 715
SWIDTH 222 0
DWIDTH 4 0
BBX 3 3 1 11
BITMAP
C0
40
20
ENDCHAR
STARTCHAR uni02CC
ENCODING 716
SWIDTH 284 0
DWIDTH 6 0
BBX 1 6 2 -4
BITMAP
80
80
80
80
80
80
ENDCHAR
STARTCHAR uni02CD
ENCODING 717
SWIDTH 342 0
DWIDTH 7 0
BBX 7 1 0 -3
BITMAP
FE
ENDCHAR
STARTCHAR uni02CE
ENCODING 718
SWIDTH 222 0
DWIDTH 4 0
BBX 3 3 1 -3
BITMAP
C0
40
20
ENDCHAR
STARTCHAR uni02CF
ENCODING 719
SWIDTH 223 0
DWIDTH 4 0
BBX 3 3 1 -3
BITMAP
60
C0
80
ENDCHAR
STARTCHAR uni02D0
ENCODING 720
SWIDTH 341 0
DWIDTH 7 0
BBX 3 9 2 0
BITMAP
E0
C0
40
00
00
00
40
C0
E0
ENDCHAR
STARTCHAR uni02D1
ENCODING 721
SWIDTH 341 0
DWIDTH 7 0
BBX 3 3 2 6
BITMAP
E0
C0
40
ENDCHAR
STARTCHAR uni02D2
ENCODING 722
SWIDTH 341 0
DWIDTH 7 0
BBX 4 6 1 2
BITMAP
E0
10
10
10
10
E0
ENDCHAR
STARTCHAR uni02D3
ENCODING 723
SWIDTH 341 0
DWIDTH 7 0
BBX 4 6 1 2
BITMAP
30
40
C0
C0
40
30
ENDCHAR
STARTCHAR uni02D4
ENCODING 724
SWIDTH 341 0
DWIDTH 7 0
BBX 5 4 1 3
BITMAP
20
20
20
F8
ENDCHAR
STARTCHAR uni02D5
ENCODING 725
SWIDTH 341 0
DWIDTH 7 0
BBX 5 4 1 3
BITMAP
F8
20
20
20
ENDCHAR
STARTCHAR uni02D6
ENCODING 726
SWIDTH 341 0
DWIDTH 7 0
BBX 4 4 1 3
BITMAP
20
F0
20
20
ENDCHAR
STARTCHAR uni02D7
ENCODING 727
SWIDTH 341 0
DWIDTH 7 0
BBX 4 1 1 5
BITMAP
F0
ENDCHAR
STARTCHAR breve
ENCODING 728
SWIDTH 353 0
DWIDTH 7 0
BBX 5 3 1 11
BITMAP
88
88
70
ENDCHAR
STARTCHAR dotaccent
ENCODING 729
SWIDTH 194 0
DWIDTH 4 0
BBX 2 2 1 12
BITMAP
C0
C0
ENDCHAR
STARTCHAR ring
ENCODING 730
SWIDTH 265 0
DWIDTH 5 0
BBX 4 4 1 11
BITMAP
E0
90
90
E0
ENDCHAR
STARTCHAR ogonek
ENCODING 731
SWIDTH 277 0
DWIDTH 6 0
BBX 4 4 1 -4
BITMAP
60
80
90
E0
ENDCHAR
STARTCHAR tilde
ENCODING 732
SWIDTH 381 0
DWIDTH 8 0
BBX 6 2 1 11
BITMAP
E4
98
ENDCHAR
STARTCHAR hungarumlaut
ENCODING 733
SWIDTH 350 0
DWIDTH 7 0
BBX 5 3 1 11
BITMAP
78
D0
A0
ENDCHAR
STARTCHAR uni02DE
ENCODING 734
SWIDTH 205 0
DWIDTH 4 0
BBX 5 3 -1 4
BITMAP
20
E8
30
ENDCHAR
STARTCHAR uni02DF
ENCODING 735
SWIDTH 302 0
DWIDTH 6 0
BBX 4 5 1 10
BITMAP
90
D0
60
70
90
ENDCHAR
STARTCHAR uni02E0
ENCODING 736
SWIDTH 413 0
DWIDTH 8 0
BBX 8 11 0 2
BITMAP
E7
62
22
34
34
14
18
18
1C
24
18
ENDCHAR
STARTCHAR uni02E1
ENCODING 737
SWIDTH 244 0
DWIDTH 5 0
BBX 3 11 1 5
BITMAP
C0
40
40
40
40
40
40
40
40
40
E0
ENDCHAR
STARTCHAR uni02E2
ENCODING 738
SWIDTH 337 0
DWIDTH 7 0
BBX 5 8 1 5
BITMAP
F8
88
88
E0
38
98
88
F0
ENDCHAR
STARTCHAR uni02E3
ENCODING 739
SWIDTH 445 0
DWIDTH 9 0
BBX 8 8 0 5
BITMAP
77
32
14
18
1C
14
26
E7
ENDCHAR
STARTCHAR uni02E4
ENCODING 740
SWIDTH 364 0
DWIDTH 7 0
BBX 6 11 1 5
BITMAP
7C
CC
84
80
C0
40
38
18
18
18
3C
ENDCHAR
STARTCHAR uni02E5
ENCODING 741
SWIDTH 423 0
DWIDTH 8 0
BBX 7 14 1 0
BITMAP
FE
02
02
02
02
02
02
02
02
02
02
02
02
02
ENDCHAR
STARTCHAR uni02E6
ENCODING 742
SWIDTH 414 0
DWIDTH 8 0
BBX 6 14 1 0
BITMAP
04
04
04
04
FC
04
04
04
04
04
04
04
04
04
ENDCHAR
STARTCHAR uni02E7
ENCODING 743
SWIDTH 414 0
DWIDTH 8 0
BBX 6 14 1 0
BITMAP
04
04
04
04
04
04
04
FC
04
04
04
04
04
04
ENDCHAR
STARTCHAR uni02E8
ENCODING 744
SWIDTH 414 0
DWIDTH 8 0
BBX 6 14 1 0
BITMAP
04
04
04
04
04
04
04
04
04
FC
04
04
04
04
ENDCHAR
STARTCHAR uni02E9
ENCODING 745
SWIDTH 414 0
DWIDTH 8 0
BBX 6 14 1 0
BITMAP
04
04
04
04
04
04
04
04
04
04
04
04
04
FC
ENDCHAR
STARTCHAR uni02EC
ENCODING 748
SWIDTH 341 0
DWIDTH 7 0
BBX 6 5 0 -3
BITMAP
C4
4C
28
38
10
ENDCHAR
STARTCHAR uni02ED
ENCODING 749
SWIDTH 380 0
DWIDTH 8 0
BBX 6 4 1 11
BITMAP
FC
00
00
FC
ENDCHAR
STARTCHAR uni02F7
ENCODING 759
SWIDTH 381 0
DWIDTH 8 0
BBX 6 2 1 -3
BITMAP
E4
98
ENDCHAR
STARTCHAR uni0300
ENCODING 768
SWIDTH 0 0
DWIDTH 0 0
BBX 3 3 -7 11
BITMAP
C0
60
20
ENDCHAR
STARTCHAR uni0301
ENCODING 769
SWIDTH 0 0
DWIDTH 0 0
BBX 4 3 -6 11
BITMAP
70
60
C0
ENDCHAR
STARTCHAR uni0302
ENCODING 770
SWIDTH 0 0
DWIDTH 0 0
BBX 5 3 -7 11
BITMAP
60
50
88
ENDCHAR
STARTCHAR uni0303
ENCODING 771
SWIDTH 0 0
DWIDTH 0 0
BBX 7 2 -8 11
BITMAP
72
9C
ENDCHAR
STARTCHAR uni0304
ENCODING 772
SWIDTH 0 0
DWIDTH 0 0
BBX 6 1 -8 12
BITMAP
FC
ENDCHAR
STARTCHAR uni0305
ENCODING 773
SWIDTH 0 0
DWIDTH 0 0
BBX 8 1 -8 12
BITMAP
FF
ENDCHAR
STARTCHAR uni0306
ENCODING 774
SWIDTH 0 0
DWIDTH 0 0
BBX 6 3 -8 11
BITMAP
84
44
38
ENDCHAR
STARTCHAR uni0307
ENCODING 775
SWIDTH 0 0
DWIDTH 0 0
BBX 3 2 -6 12
BITMAP
E0
C0
ENDCHAR
STARTCHAR uni0308
ENCODING 776
SWIDTH 0 0
DWIDTH 0 0
BBX 7 2 -8 12
BITMAP
CE
C6
ENDCHAR
STARTCHAR uni0309
ENCODING 777
SWIDTH 0 0
DWIDTH 0 0
BBX 4 5 -6 11
BITMAP
E0
A0
30
20
40
ENDCHAR
STARTCHAR uni030A
ENCODING 778
SWIDTH 0 0
DWIDTH 0 0
BBX 4 4 -7 11
BITMAP
70
90
90
70
ENDCHAR
STARTCHAR uni030B
ENCODING 779
SWIDTH 0 0
DWIDTH 0 0
BBX 6 3 -7 11
BITMAP
3C
68
D0
ENDCHAR
STARTCHAR uni030C
ENCODING 780
SWIDTH 0 0
DWIDTH 0 0
BBX 5 3 -7 11
BITMAP
88
50
60
ENDCHAR
STARTCHAR uni030D
ENCODING 781
SWIDTH 0 0
DWIDTH 0 0
BBX 1 4 -5 11
BITMAP
80
80
80
80
ENDCHAR
STARTCHAR uni030E
ENCODING 782
SWIDTH 0 0
DWIDTH 0 0
BBX 4 4 -7 11
BITMAP
D0
D0
D0
D0
ENDCHAR
STARTCHAR uni030F
ENCODING 783
SWIDTH 0 0
DWIDTH 0 0
BBX 6 3 -9 11
BITMAP
F8
2C
34
ENDCHAR
STARTCHAR uni0310
ENCODING 784
SWIDTH 0 0
DWIDTH 0 0
BBX 6 5 -8 11
BITMAP
30
BC
84
44
38
ENDCHAR
STARTCHAR uni0311
ENCODING 785
SWIDTH 0 0
DWIDTH 0 0
BBX 5 3 -7 11
BITMAP
70
88
88
ENDCHAR
STARTCHAR uni0312
ENCODING 786
SWIDTH 0 0
DWIDTH 0 0
BBX 3 5 -6 11
BITMAP
20
40
80
E0
C0
ENDCHAR
STARTCHAR uni0313
ENCODING 787
SWIDTH 0 0
DWIDTH 0 0
BBX 3 4 -6 11
BITMAP
E0
E0
20
C0
ENDCHAR
STARTCHAR uni0314
ENCODING 788
SWIDTH 0 0
DWIDTH 0 0
BBX 3 4 -6 11
BITMAP
E0
E0
80
60
ENDCHAR
STARTCHAR uni0315
ENCODING 789
SWIDTH 0 0
DWIDTH 0 0
BBX 2 4 -5 10
BITMAP
C0
C0
80
80
ENDCHAR
STARTCHAR uni0316
ENCODING 790
SWIDTH 0 0
DWIDTH 0 0
BBX 3 3 -7 -4
BITMAP
C0
60
20
ENDCHAR
STARTCHAR uni0317
ENCODING 791
SWIDTH 0 0
DWIDTH 0 0
BBX 3 3 -5 -4
BITMAP
60
C0
80
ENDCHAR
STARTCHAR uni0318
ENCODING 792
SWIDTH 0 0
DWIDTH 0 0
BBX 3 4 -6 -5
BITMAP
20
E0
20
20
ENDCHAR
STARTCHAR uni0319
ENCODING 793
SWIDTH 0 0
DWIDTH 0 0
BBX 3 4 -6 -5
BITMAP
80
E0
80
80
ENDCHAR
STARTCHAR uni031A
ENCODING 794
SWIDTH 0 0
DWIDTH 0 0
BBX 5 4 -7 10
BITMAP
F8
18
18
18
ENDCHAR
STARTCHAR uni031B
ENCODING 795
SWIDTH 0 0
DWIDTH 0 0
BBX 4 4 -4 9
BITMAP
20
30
10
E0
ENDCHAR
STARTCHAR uni031C
ENCODING 796
SWIDTH 0 0
DWIDTH 0 0
BBX 3 4 -6 -5
BITMAP
60
80
80
60
ENDCHAR
STARTCHAR uni031D
ENCODING 797
SWIDTH 0 0
DWIDTH 0 0
BBX 4 3 -7 -4
BITMAP
20
20
F0
ENDCHAR
STARTCHAR uni031E
ENCODING 798
SWIDTH 0 0
DWIDTH 0 0
BBX 4 3 -7 -4
BITMAP
F0
20
20
ENDCHAR
STARTCHAR uni031F
ENCODING 799
SWIDTH 0 0
DWIDTH 0 0
BBX 4 4 -7 -5
BITMAP
20
F0
20
20
ENDCHAR
STARTCHAR uni0320
ENCODING 800
SWIDTH 0 0
DWIDTH 0 0
BBX 4 1 -7 -4
BITMAP
F0
ENDCHAR
STARTCHAR uni0321
ENCODING 801
SWIDTH 0 0
DWIDTH 0 0
BBX 6 6 -9 -5
BITMAP
0C
0C
0C
4C
C8
70
ENDCHAR
STARTCHAR uni0322
ENCODING 802
SWIDTH 0 0
DWIDTH 0 0
BBX 6 6 -5 -5
BITMAP
C0
C0
C0
48
4C
38
ENDCHAR
STARTCHAR uni0323
ENCODING 803
SWIDTH 0 0
DWIDTH 0 0
BBX 3 2 -6 -4
BITMAP
E0
C0
ENDCHAR
STARTCHAR uni0324
ENCODING 804
SWIDTH 0 0
DWIDTH 0 0
BBX 7 2 -8 -4
BITMAP
CE
C6
ENDCHAR
STARTCHAR uni0325
ENCODING 805
SWIDTH 0 0
DWIDTH 0 0
BBX 4 4 -7 -5
BITMAP
70
90
90
70
ENDCHAR
STARTCHAR uni0326
ENCODING 806
SWIDTH 0 0
DWIDTH 0 0
BBX 3 4 -6 -5
BITMAP
E0
E0
20
C0
ENDCHAR
STARTCHAR uni0327
ENCODING 807
SWIDTH 0 0
DWIDTH 0 0
BBX 3 5 -6 -5
BITMAP
40
E0
20
20
E0
ENDCHAR
STARTCHAR uni0328
ENCODING 808
SWIDTH 0 0
DWIDTH 0 0
BBX 5 4 -7 -4
BITMAP
60
40
C8
70
ENDCHAR
STARTCHAR uni0329
ENCODING 809
SWIDTH 0 0
DWIDTH 0 0
BBX 1 4 -5 -5
BITMAP
80
80
80
80
ENDCHAR
STARTCHAR uni032A
ENCODING 810
SWIDTH 0 0
DWIDTH 0 0
BBX 5 2 -7 -3
BITMAP
F8
88
ENDCHAR
STARTCHAR uni032B
ENCODING 811
SWIDTH 0 0
DWIDTH 0 0
BBX 7 3 -8 -4
BITMAP
92
92
6C
ENDCHAR
STARTCHAR uni032C
ENCODING 812
SWIDTH 0 0
DWIDTH 0 0
BBX 5 3 -7 -4
BITMAP
88
50
60
ENDCHAR
STARTCHAR uni032D
ENCODING 813
SWIDTH 0 0
DWIDTH 0 0
BBX 5 3 -7 -4
BITMAP
60
50
88
ENDCHAR
STARTCHAR uni032E
ENCODING 814
SWIDTH 0 0
DWIDTH 0 0
BBX 6 3 -8 -4
BITMAP
84
44
38
ENDCHAR
STARTCHAR uni032F
ENCODING 815
SWIDTH 0 0
DWIDTH 0 0
BBX 6 3 -8 -4
BITMAP
38
44
84
ENDCHAR
STARTCHAR uni0330
ENCODING 816
SWIDTH 0 0
DWIDTH 0 0
BBX 7 2 -8 -3
BITMAP
72
9C
ENDCHAR
STARTCHAR uni0331
ENCODING 817
SWIDTH 0 0
DWIDTH 0 0
BBX 6 1 -8 -3
BITMAP
FC
ENDCHAR
STARTCHAR uni0332
ENCODING 818
SWIDTH 0 0
DWIDTH 0 0
BBX 11 1 -10 -3
BITMAP
FFE0
ENDCHAR
STARTCHAR uni0333
ENCODING 819
SWIDTH 0 0
DWIDTH 0 0
BBX 11 3 -10 -5
BITMAP
FFE0
0000
FFE0
ENDCHAR
STARTCHAR uni0334
ENCODING 820
SWIDTH 0 0
DWIDTH 0 0
BBX 7 2 -8 4
BITMAP
72
9C
ENDCHAR
STARTCHAR uni0335
ENCODING 821
SWIDTH 0 0
DWIDTH 0 0
BBX 7 1 -8 5
BITMAP
FE
ENDCHAR
STARTCHAR uni0336
ENCODING 822
SWIDTH 0 0
DWIDTH 0 0
BBX 11 1 -10 5
BITMAP
FFE0
ENDCHAR
STARTCHAR uni0337
ENCODING 823
SWIDTH 0 0
DWIDTH 0 0
BBX 5 5 -7 5
BITMAP
08
10
20
C0
80
ENDCHAR
STARTCHAR uni0338
ENCODING 824
SWIDTH 0 0
DWIDTH 0 0
BBX 9 18 -9 -3
BITMAP
0080
0100
0100
0300
0200
0200
0400
0400
0800
0800
0800
1000
1000
2000
2000
6000
4000
C000
ENDCHAR
STARTCHAR uni0339
ENCODING 825
SWIDTH 0 0
DWIDTH 0 0
BBX 3 4 -6 -5
BITMAP
C0
20
20
C0
ENDCHAR
STARTCHAR uni033A
ENCODING 826
SWIDTH 0 0
DWIDTH 0 0
BBX 5 3 -7 -4
BITMAP
88
88
F8
ENDCHAR
STARTCHAR uni033B
ENCODING 827
SWIDTH 0 0
DWIDTH 0 0
BBX 3 4 -6 -5
BITMAP
E0
A0
A0
E0
ENDCHAR
STARTCHAR uni033C
ENCODING 828
SWIDTH 0 0
DWIDTH 0 0
BBX 6 2 -8 -3
BITMAP
EC
10
ENDCHAR
STARTCHAR uni033D
ENCODING 829
SWIDTH 0 0
DWIDTH 0 0
BBX 4 4 -7 11
BITMAP
D0
50
20
50
ENDCHAR
STARTCHAR uni033E
ENCODING 830
SWIDTH 0 0
DWIDTH 0 0
BBX 2 7 -6 10
BITMAP
40
40
C0
40
40
40
80
ENDCHAR
STARTCHAR uni033F
ENCODING 831
SWIDTH 0 0
DWIDTH 0 0
BBX 8 3 -9 11
BITMAP
FF
00
FF
ENDCHAR
STARTCHAR uni0346
ENCODING 838
SWIDTH 0 0
DWIDTH 0 0
BBX 6 3 -8 11
BITMAP
FC
C4
C4
ENDCHAR
STARTCHAR uni0347
ENCODING 839
SWIDTH 0 0
DWIDTH 0 0
BBX 7 3 -8 -4
BITMAP
FE
00
FE
ENDCHAR
STARTCHAR uni034C
ENCODING 844
SWIDTH 0 0
DWIDTH 0 0
BBX 7 5 -8 11
BITMAP
72
9C
00
72
9C
ENDCHAR
STARTCHAR uni034D
ENCODING 845
SWIDTH 0 0
DWIDTH 0 0
BBX 10 5 -10 -6
BITMAP
1100
2080
FFC0
2080
1100
ENDCHAR
STARTCHAR uni0359
ENCODING 857
SWIDTH 0 0
DWIDTH 0 0
BBX 6 7 -8 -8
BITMAP
10
10
D4
38
38
D4
10
ENDCHAR
STARTCHAR uni035C
ENCODING 860
SWIDTH 0 0
DWIDTH 0 0
BBX 14 4 -7 -5
BITMAP
8004
8004
6018
1FE0
ENDCHAR
STARTCHAR uni0360
ENCODING 864
SWIDTH 0 0
DWIDTH 0 0
BBX 10 3 -5 11
BITMAP
7040
8C40
8380
ENDCHAR
STARTCHAR uni0361
ENCODING 865
SWIDTH 0 0
DWIDTH 0 0
BBX 10 3 -5 11
BITMAP
3F00
4080
8040
ENDCHAR
STARTCHAR uni0362
ENCODING 866
SWIDTH 0 0
DWIDTH 0 0
BBX 15 4 -7 -6
BITMAP
000C
FFFE
0004
0008
ENDCHAR
STARTCHAR uni037E
ENCODING 894
SWIDTH 261 0
DWIDTH 5 0
BBX 3 13 1 -3
BITMAP
60
E0
00
00
00
00
00
00
60
E0
20
20
C0
ENDCHAR
STARTCHAR tonos
ENCODING 900
SWIDTH 165 0
DWIDTH 3 0
BBX 2 3 1 11
BITMAP
C0
80
80
ENDCHAR
STARTCHAR dieresistonos
ENCODING 901
SWIDTH 426 0
DWIDTH 9 0
BBX 7 3 1 11
BITMAP
96
D6
20
ENDCHAR
STARTCHAR Alphatonos
ENCODING 902
SWIDTH 718 0
DWIDTH 14 0
BBX 14 14 0 0
BITMAP
6300
6300
4380
4580
0580
0CC0
08C0
08E0
1860
1FE0
3070
2030
6038
F07C
ENDCHAR
STARTCHAR anoteleia
ENCODING 903
SWIDTH 261 0
DWIDTH 5 0
BBX 3 2 1 8
BITMAP
60
E0
ENDCHAR
STARTCHAR Epsilontonos
ENCODING 904
SWIDTH 745 0
DWIDTH 15 0
BBX 14 14 0 0
BITMAP
DFFC
860C
8604
8600
0610
0610
0610
07F0
0610
0600
0604
0604
060C
1FFC
ENDCHAR
STARTCHAR Etatonos
ENCODING 905
SWIDTH 896 0
DWIDTH 18 0
BBX 17 14 0 0
BITMAP
DF9F80
860600
860600
860600
060600
060600
060600
07FE00
060600
060600
060600
060600
060600
1F9F80
ENDCHAR
STARTCHAR Iotatonos
ENCODING 906
SWIDTH 478 0
DWIDTH 10 0
BBX 9 14 0 0
BITMAP
DF80
8600
8600
8600
0600
0600
0600
0600
0600
0600
0600
0600
0600
1F80
ENDCHAR
STARTCHAR Omicrontonos
ENCODING 908
SWIDTH 806 0
DWIDTH 16 0
BBX 15 14 0 0
BITMAP
C3E0
8418
8C0C
980C
1806
3806
3006
3006
3806
1806
1804
0C0C
0C18
03E0
ENDCHAR
STARTCHAR Upsilontonos
ENCODING 910
SWIDTH 787 0
DWIDTH 16 0
BBX 17 14 -1 0
BITMAP
4F8F80
470200
C30400
818400
018800
00C800
00F000
007000
006000
006000
006000
006000
006000
01F800
ENDCHAR
STARTCHAR Omegatonos
ENCODING 911
SWIDTH 830 0
DWIDTH 17 0
BBX 16 14 0 0
BITMAP
C3F0
8618
8C0C
9806
1806
1806
1806
1806
1806
0C0C
2C09
2611
3F3E
3F3E
ENDCHAR
STARTCHAR iotadieresistonos
ENCODING 912
SWIDTH 259 0
DWIDTH 5 0
BBX 7 15 -1 0
BITMAP
18
D6
D6
10
00
30
30
30
30
30
30
30
30
3C
18
ENDCHAR
STARTCHAR Alpha
ENCODING 913
SWIDTH 718 0
DWIDTH 14 0
BBX 14 14 0 0
BITMAP
0300
0300
0380
0580
0580
0CC0
08C0
08E0
1860
1FE0
3070
2030
6038
F07C
ENDCHAR
STARTCHAR Beta
ENCODING 914
SWIDTH 618 0
DWIDTH 12 0
BBX 11 14 1 0
BITMAP
FF00
3180
30C0
30C0
30C0
3180
3E00
3180
30C0
3060
3060
30C0
30C0
FF80
ENDCHAR
STARTCHAR Gamma
ENCODING 915
SWIDTH 569 0
DWIDTH 11 0
BBX 10 14 1 0
BITMAP
FFC0
2040
2040
2040
2000
2000
2000
2000
2000
2000
2000
2000
7000
FC00
ENDCHAR
STARTCHAR Delta
ENCODING 916
SWIDTH 667 0
DWIDTH 13 0
BBX 12 14 1 0
BITMAP
0400
0600
0E00
0B00
1300
1300
1180
2180
21C0
40C0
40C0
C060
FFE0
FFF0
ENDCHAR
STARTCHAR Epsilon
ENCODING 917
SWIDTH 626 0
DWIDTH 13 0
BBX 11 14 1 0
BITMAP
FFC0
3040
3040
3000
3080
3080
3080
3F80
3080
3000
3020
3020
3060
FFC0
ENDCHAR
STARTCHAR Zeta
ENCODING 918
SWIDTH 594 0
DWIDTH 12 0
BBX 10 14 1 0
BITMAP
FFC0
C1C0
8180
8300
0700
0600
0C00
1C00
1800
3000
7040
6040
E040
FFC0
ENDCHAR
STARTCHAR Eta
ENCODING 919
SWIDTH 777 0
DWIDTH 16 0
BBX 14 14 1 0
BITMAP
F8FC
3030
3030
3030
3030
3030
3030
3FF0
3030
3030
3030
3030
3030
F8FC
ENDCHAR
STARTCHAR Theta
ENCODING 920
SWIDTH 738 0
DWIDTH 15 0
BBX 13 14 1 0
BITMAP
0F80
30E0
6060
6030
C030
C898
CF98
CF98
C8B8
C030
6030
6030
30E0
0F80
ENDCHAR
STARTCHAR Iota
ENCODING 921
SWIDTH 357 0
DWIDTH 7 0
BBX 5 14 1 0
BITMAP
F8
30
20
20
20
20
20
20
20
20
20
20
30
F8
ENDCHAR
STARTCHAR Kappa
ENCODING 922
SWIDTH 702 0
DWIDTH 14 0
BBX 13 14 1 0
BITMAP
F9F0
30C0
2080
2100
2200
2400
2800
3C00
2600
2300
2180
20C0
30E0
F9F8
ENDCHAR
STARTCHAR Lambda
ENCODING 923
SWIDTH 710 0
DWIDTH 14 0
BBX 14 14 0 0
BITMAP
0300
0300
0300
0580
0580
08C0
08C0
08C0
1060
1060
3030
2030
6038
F07C
ENDCHAR
STARTCHAR Mu
ENCODING 924
SWIDTH 895 0
DWIDTH 18 0
BBX 16 14 1 0
BITMAP
F00F
700C
781C
581C
583C
4C2C
4C2C
464C
464C
46CC
438C
438C
610C
F11F
ENDCHAR
STARTCHAR Nu
ENCODING 925
SWIDTH 742 0
DWIDTH 15 0
BBX 13 14 1 0
BITMAP
E078
7030
7830
5C20
4C20
4E20
4720
4320
41A0
41E0
40E0
4060
6020
F020
ENDCHAR
STARTCHAR Xi
ENCODING 926
SWIDTH 648 0
DWIDTH 13 0
BBX 11 14 1 0
BITMAP
FFE0
FFE0
8020
0000
2080
2080
3F80
3F80
2080
0000
8020
8020
FFE0
FFE0
ENDCHAR
STARTCHAR Omicron
ENCODING 927
SWIDTH 738 0
DWIDTH 15 0
BBX 13 14 1 0
BITMAP
0F80
3060
6030
6030
C030
C018
C018
C018
C018
C030
6030
6020
3060
0F80
ENDCHAR
STARTCHAR Pi
ENCODING 928
SWIDTH 759 0
DWIDTH 15 0
BBX 13 14 1 0
BITMAP
FFF8
3030
3030
3030
3030
3030
3030
3030
3030
3030
3030
3030
3030
F8F8
ENDCHAR
STARTCHAR Rho
ENCODING 929
SWIDTH 569 0
DWIDTH 11 0
BBX 10 14 1 0
BITMAP
FF00
3180
30C0
30C0
30C0
3080
3180
3E00
3000
3000
3000
3000
3000
FC00
ENDCHAR
STARTCHAR Sigma
ENCODING 931
SWIDTH 604 0
DWIDTH 12 0
BBX 11 14 1 0
BITMAP
FFC0
E0C0
7040
3040
1800
0C00
0C00
0800
1800
1020
2040
4040
FFC0
FFC0
ENDCHAR
STARTCHAR Tau
ENCODING 932
SWIDTH 603 0
DWIDTH 12 0
BBX 12 14 0 0
BITMAP
FFF0
C630
8610
8610
0600
0600
0600
0600
0600
0600
0600
0600
0600
1F80
ENDCHAR
STARTCHAR Upsilon
ENCODING 933
SWIDTH 647 0
DWIDTH 13 0
BBX 13 14 0 0
BITMAP
F878
7020
3020
1840
1C80
0C80
0700
0700
0200
0200
0200
0200
0700
0FC0
ENDCHAR
STARTCHAR Phi
ENCODING 934
SWIDTH 718 0
DWIDTH 14 0
BBX 13 14 1 0
BITMAP
1F80
0600
0600
3FE0
6630
C630
C618
C618
C618
C630
6620
1FC0
0600
1F80
ENDCHAR
STARTCHAR Chi
ENCODING 935
SWIDTH 664 0
DWIDTH 13 0
BBX 13 14 0 0
BITMAP
FCF8
3820
1840
1CC0
0C80
0700
0700
0700
0580
0980
10C0
3060
2070
F0F8
ENDCHAR
STARTCHAR Psi
ENCODING 936
SWIDTH 720 0
DWIDTH 14 0
BBX 14 14 0 0
BITMAP
CFCC
6318
6318
6318
6318
6318
6318
3318
3330
0FC0
0300
0300
0300
0FC0
ENDCHAR
STARTCHAR Omega
ENCODING 937
SWIDTH 777 0
DWIDTH 16 0
BBX 14 14 1 0
BITMAP
0FC0
3860
3030
6038
6018
6018
6018
6018
6038
2030
B024
9844
FCF8
FCF8
ENDCHAR
STARTCHAR Iotadieresis
ENCODING 938
SWIDTH 357 0
DWIDTH 7 0
BBX 7 17 0 0
BITMAP
E6
C6
00
7C
18
10
10
10
10
10
10
10
10
10
10
18
7C
ENDCHAR
STARTCHAR Upsilondieresis
ENCODING 939
SWIDTH 647 0
DWIDTH 13 0
BBX 13 17 0 0
BITMAP
1CC0
0CC0
0000
F878
7020
3020
1840
1C80
0C80
0700
0700
0200
0200
0200
0200
0700
0FC0
ENDCHAR
STARTCHAR alphatonos
ENCODING 940
SWIDTH 561 0
DWIDTH 11 0
BBX 10 15 1 0
BITMAP
0C00
0800
0800
0800
0000
39C0
7D80
C300
8300
8200
8200
8600
8600
FBC0
7180
ENDCHAR
STARTCHAR epsilontonos
ENCODING 941
SWIDTH 381 0
DWIDTH 8 0
BBX 6 15 1 0
BITMAP
08
18
18
10
00
3C
FC
80
80
70
50
80
84
FC
78
ENDCHAR
STARTCHAR etatonos
ENCODING 942
SWIDTH 510 0
DWIDTH 10 0
BBX 9 20 0 -5
BITMAP
0200
0600
0600
0400
0000
6700
E700
B980
3080
3080
3080
3080
3080
3080
2080
0180
0180
0180
0180
0200
ENDCHAR
STARTCHAR iotatonos
ENCODING 943
SWIDTH 259 0
DWIDTH 5 0
BBX 4 15 1 0
BITMAP
60
60
40
40
00
C0
C0
C0
C0
C0
C0
C0
C0
F0
60
ENDCHAR
STARTCHAR upsilondieresistonos
ENCODING 944
SWIDTH 491 0
DWIDTH 10 0
BBX 9 15 0 0
BITMAP
0C00
6B00
6B00
0800
0000
6200
E100
A180
2080
2080
2180
2180
2100
3F00
1E00
ENDCHAR
STARTCHAR alpha
ENCODING 945
SWIDTH 561 0
DWIDTH 11 0
BBX 10 10 1 0
BITMAP
39C0
7D80
C300
8300
8200
8200
8600
8600
FBC0
7180
ENDCHAR
STARTCHAR beta
ENCODING 946
SWIDTH 530 0
DWIDTH 11 0
BBX 9 19 1 -4
BITMAP
0E00
1F00
2100
6100
4100
4200
5C00
5200
4100
C180
C080
C180
E180
FF00
DE00
C000
C000
C000
C000
ENDCHAR
STARTCHAR gamma
ENCODING 947
SWIDTH 466 0
DWIDTH 9 0
BBX 9 14 0 -4
BITMAP
6180
F300
9300
1200
1600
1400
1400
1800
0800
1800
1800
1800
1800
1000
ENDCHAR
STARTCHAR delta
ENCODING 948
SWIDTH 479 0
DWIDTH 10 0
BBX 8 15 1 0
BITMAP
3C
47
62
30
18
3C
7E
C2
83
83
83
83
82
FE
78
ENDCHAR
STARTCHAR epsilon
ENCODING 949
SWIDTH 381 0
DWIDTH 8 0
BBX 6 10 1 0
BITMAP
3C
FC
80
80
70
50
80
84
FC
78
ENDCHAR
STARTCHAR zeta
ENCODING 950
SWIDTH 386 0
DWIDTH 8 0
BBX 7 20 1 -5
BITMAP
30
22
26
1C
30
20
40
C0
80
80
80
80
C0
F8
7C
06
02
04
38
30
ENDCHAR
STARTCHAR eta
ENCODING 951
SWIDTH 510 0
DWIDTH 10 0
BBX 9 15 0 -5
BITMAP
6700
E700
B980
3080
3080
3080
3080
3080
3080
2080
0180
0180
0180
0180
0200
ENDCHAR
STARTCHAR theta
ENCODING 952
SWIDTH 514 0
DWIDTH 10 0
BBX 8 15 1 0
BITMAP
1C
3E
42
41
81
81
81
FF
81
81
81
C1
42
7E
3C
ENDCHAR
STARTCHAR iota
ENCODING 953
SWIDTH 259 0
DWIDTH 5 0
BBX 4 10 1 0
BITMAP
C0
C0
C0
C0
C0
C0
C0
C0
F0
60
ENDCHAR
STARTCHAR kappa
ENCODING 954
SWIDTH 495 0
DWIDTH 10 0
BBX 10 10 0 0
BITMAP
6080
F380
B700
3400
2800
3400
3400
3600
33C0
3380
ENDCHAR
STARTCHAR lambda
ENCODING 955
SWIDTH 506 0
DWIDTH 10 0
BBX 10 15 0 0
BITMAP
1800
3800
4400
0400
0400
0400
0C00
0A00
1A00
1200
3200
3200
6300
63C0
C180
ENDCHAR
STARTCHAR mu
ENCODING 956
SWIDTH 552 0
DWIDTH 11 0
BBX 10 14 1 -4
BITMAP
C300
C300
C300
C300
C200
C200
C600
C700
BBC0
B980
8000
8000
C000
C000
ENDCHAR
STARTCHAR nu
ENCODING 957
SWIDTH 453 0
DWIDTH 9 0
BBX 9 10 0 0
BITMAP
6300
F100
B180
1180
1100
1300
1200
1600
1C00
1800
ENDCHAR
STARTCHAR xi
ENCODING 958
SWIDTH 390 0
DWIDTH 8 0
BBX 7 19 1 -4
BITMAP
60
46
3E
60
40
C0
4C
7C
80
80
80
80
F8
7C
0E
02
02
3C
38
ENDCHAR
STARTCHAR omicron
ENCODING 959
SWIDTH 475 0
DWIDTH 10 0
BBX 8 10 1 0
BITMAP
3C
7E
C2
81
81
81
81
C2
FE
3C
ENDCHAR
STARTCHAR pi
ENCODING 960
SWIDTH 591 0
DWIDTH 12 0
BBX 11 10 0 0
BITMAP
3FE0
7FE0
8880
0880
0900
1100
1100
3180
31E0
60C0
ENDCHAR
STARTCHAR rho
ENCODING 961
SWIDTH 515 0
DWIDTH 10 0
BBX 9 14 1 -4
BITMAP
1E00
3F00
6100
4100
4080
C080
C100
C100
FE00
DC00
C000
C000
C000
C000
ENDCHAR
STARTCHAR uni03C2
ENCODING 962
SWIDTH 377 0
DWIDTH 8 0
BBX 7 14 1 -4
BITMAP
3C
7C
80
80
80
80
C0
F0
7C
0C
02
04
3C
30
ENDCHAR
STARTCHAR sigma
ENCODING 963
SWIDTH 545 0
DWIDTH 11 0
BBX 10 10 1 0
BITMAP
3FC0
7FC0
C200
8100
8100
8100
8100
C300
FE00
7C00
ENDCHAR
STARTCHAR tau
ENCODING 964
SWIDTH 392 0
DWIDTH 8 0
BBX 8 10 0 0
BITMAP
7F
FF
88
10
10
10
10
10
1E
1C
ENDCHAR
STARTCHAR upsilon
ENCODING 965
SWIDTH 491 0
DWIDTH 10 0
BBX 9 10 0 0
BITMAP
6200
E100
A180
2080
2080
2180
2180
2100
3F00
1E00
ENDCHAR
STARTCHAR phi
ENCODING 966
SWIDTH 603 0
DWIDTH 12 0
BBX 10 14 1 -4
BITMAP
3380
77C0
C440
8C40
8840
8840
8840
C8C0
7F80
3E00
0800
0800
0C00
0C00
ENDCHAR
STARTCHAR chi
ENCODING 967
SWIDTH 462 0
DWIDTH 9 0
BBX 11 14 -1 -4
BITMAP
30E0
78C0
8980
0980
0700
0600
0400
0C00
0A00
1A00
3200
2320
61C0
C1C0
ENDCHAR
STARTCHAR psi
ENCODING 968
SWIDTH 620 0
DWIDTH 12 0
BBX 12 19 0 -4
BITMAP
0300
0200
0200
0200
0200
6240
F220
A220
2220
2230
2220
2220
2260
3FC0
1F80
0200
0600
0600
0600
ENDCHAR
STARTCHAR omega
ENCODING 969
SWIDTH 660 0
DWIDTH 13 0
BBX 12 10 1 0
BITMAP
3080
7040
C420
8620
8620
8430
8420
8460
FBE0
73C0
ENDCHAR
STARTCHAR iotadieresis
ENCODING 970
SWIDTH 259 0
DWIDTH 5 0
BBX 7 14 -1 0
BITMAP
C6
C4
00
00
30
30
30
30
30
30
30
30
3C
18
ENDCHAR
STARTCHAR upsilondieresis
ENCODING 971
SWIDTH 491 0
DWIDTH 10 0
BBX 9 14 0 0
BITMAP
6300
6200
0000
0000
6200
E100
A180
2080
2080
2180
2180
2100
3F00
1E00
ENDCHAR
STARTCHAR omicrontonos
ENCODING 972
SWIDTH 475 0
DWIDTH 10 0
BBX 8 15 1 0
BITMAP
0C
0C
08
08
00
3C
7E
C2
81
81
81
81
C2
FE
3C
ENDCHAR
STARTCHAR upsilontonos
ENCODING 973
SWIDTH 491 0
DWIDTH 10 0
BBX 9 15 0 0
BITMAP
0400
0400
0C00
0800
0000
6200
E100
A180
2080
2080
2180
2180
2100
3F00
1E00
ENDCHAR
STARTCHAR omegatonos
ENCODING 974
SWIDTH 660 0
DWIDTH 13 0
BBX 12 15 1 0
BITMAP
0600
0600
0400
0400
0000
3080
7040
C420
8620
8620
8430
8420
8460
FBE0
73C0
ENDCHAR
STARTCHAR uni03D0
ENCODING 976
SWIDTH 438 0
DWIDTH 9 0
BBX 7 15 1 0
BITMAP
1C
3E
22
42
62
DE
8C
98
FC
C2
C2
C2
62
7E
3C
ENDCHAR
STARTCHAR uni03D1
ENCODING 977
SWIDTH 541 0
DWIDTH 11 0
BBX 10 15 0 0
BITMAP
0E00
1F00
3100
2080
2080
1080
10C0
0FC0
2380
7080
9080
1080
1180
1F00
0E00
ENDCHAR
STARTCHAR uni03D2
ENCODING 978
SWIDTH 616 0
DWIDTH 12 0
BBX 12 14 0 0
BITMAP
7870
9CB0
0D30
0500
0500
0600
0600
0600
0600
0600
0600
0600
0600
1F80
ENDCHAR
STARTCHAR uni03D5
ENCODING 981
SWIDTH 575 0
DWIDTH 12 0
BBX 10 19 1 -4
BITMAP
0C00
0C00
0C00
0C00
0C00
3F00
6D80
CCC0
8840
8840
8840
8880
C980
7F00
1C00
0800
0800
1800
1800
ENDCHAR
STARTCHAR uni03D6
ENCODING 982
SWIDTH 821 0
DWIDTH 16 0
BBX 16 10 0 0
BITMAP
7FFF
FFFF
9804
10C4
10C4
1086
1084
1084
1F7C
0E78
ENDCHAR
STARTCHAR uni03D8
ENCODING 984
SWIDTH 627 0
DWIDTH 13 0
BBX 11 14 1 0
BITMAP
1F00
6180
C0C0
C060
C060
C060
C060
C0C0
60C0
3B80
0C00
0C00
0C00
3F00
ENDCHAR
STARTCHAR uni03D9
ENCODING 985
SWIDTH 475 0
DWIDTH 10 0
BBX 8 14 1 -4
BITMAP
3C
7E
C2
81
81
81
81
82
FE
38
10
10
10
30
ENDCHAR
STARTCHAR uni03DA
ENCODING 986
SWIDTH 578 0
DWIDTH 12 0
BBX 10 14 1 0
BITMAP
1FC0
61C0
C0C0
C040
C040
C000
C000
C000
E000
7000
1E00
0600
0600
1F80
ENDCHAR
STARTCHAR uni03DB
ENCODING 987
SWIDTH 490 0
DWIDTH 10 0
BBX 9 14 1 -4
BITMAP
1F80
7F80
8000
8000
8000
8000
C000
F000
7800
0C00
0400
0400
3800
3000
ENDCHAR
STARTCHAR uni03DC
ENCODING 988
SWIDTH 588 0
DWIDTH 12 0
BBX 10 14 1 0
BITMAP
FFC0
3040
3040
3000
3080
3080
3F80
3080
3080
3000
3000
3000
3000
FC00
ENDCHAR
STARTCHAR uni03DD
ENCODING 989
SWIDTH 386 0
DWIDTH 8 0
BBX 10 15 -2 -5
BITMAP
0FC0
0F80
0800
0800
0800
0B00
0F00
0800
0800
0800
1000
1000
1000
E000
E000
ENDCHAR
STARTCHAR uni03DE
ENCODING 990
SWIDTH 525 0
DWIDTH 11 0
BBX 10 14 0 0
BITMAP
3E00
0800
1000
1000
2000
2000
7FC0
FFC0
0080
0100
0100
0200
0600
0F00
ENDCHAR
STARTCHAR uni03DF
ENCODING 991
SWIDTH 434 0
DWIDTH 9 0
BBX 10 14 -1 0
BITMAP
7000
7000
9000
1000
1000
1100
2F00
3F00
3100
0200
0200
0240
0380
0380
ENDCHAR
STARTCHAR uni03E0
ENCODING 992
SWIDTH 697 0
DWIDTH 14 0
BBX 14 14 0 0
BITMAP
0E00
0600
0300
0300
0780
0580
0CC0
09C0
11E0
1260
2270
2430
4438
C87C
ENDCHAR
STARTCHAR uni03E1
ENCODING 993
SWIDTH 458 0
DWIDTH 9 0
BBX 8 19 0 -5
BITMAP
C0
E0
70
18
0C
04
1E
72
63
01
0F
19
01
01
01
01
01
01
01
ENDCHAR
STARTCHAR uni03F0
ENCODING 1008
SWIDTH 504 0
DWIDTH 10 0
BBX 10 10 0 0
BITMAP
60C0
F180
1300
1300
1600
1E00
1A00
3A00
33C0
61C0
ENDCHAR
STARTCHAR uni03F1
ENCODING 1009
SWIDTH 467 0
DWIDTH 9 0
BBX 8 14 1 -4
BITMAP
3C
7E
42
81
81
C2
BE
9C
40
70
38
04
38
30
ENDCHAR
STARTCHAR uni03F4
ENCODING 1012
SWIDTH 737 0
DWIDTH 15 0
BBX 13 14 1 0
BITMAP
0F80
30E0
6070
6030
C030
C018
FFF8
C018
C018
C030
6030
6060
30E0
0F80
ENDCHAR
STARTCHAR uni03F5
ENCODING 1013
SWIDTH 380 0
DWIDTH 8 0
BBX 6 10 1 0
BITMAP
3C
7C
80
80
F8
80
80
C4
7C
38
ENDCHAR
STARTCHAR uni03F6
ENCODING 1014
SWIDTH 382 0
DWIDTH 8 0
BBX 6 10 1 0
BITMAP
F0
F8
08
04
7C
04
04
8C
F8
F0
ENDCHAR
STARTCHAR uni0400
ENCODING 1024
SWIDTH 626 0
DWIDTH 13 0
BBX 11 17 1 0
BITMAP
1800
0C00
0200
FFC0
3040
3040
3000
3080
3080
3080
3F80
3080
3000
3020
3020
3060
FFC0
ENDCHAR
STARTCHAR uni0401
ENCODING 1025
SWIDTH 626 0
DWIDTH 13 0
BBX 11 17 1 0
BITMAP
3380
3180
0000
FFC0
3040
3040
3000
3080
3080
3080
3F80
3080
3000
3020
3020
3060
FFC0
ENDCHAR
STARTCHAR uni0402
ENCODING 1026
SWIDTH 731 0
DWIDTH 15 0
BBX 14 14 0 0
BITMAP
7FF0
4610
8610
8610
0600
0600
07F0
0618
060C
060C
060C
060C
06C8
1EF0
ENDCHAR
STARTCHAR uni0403
ENCODING 1027
SWIDTH 548 0
DWIDTH 11 0
BBX 10 17 1 0
BITMAP
0600
0400
0800
FF80
3080
3040
3040
3000
3000
3000
3000
3000
3000
3000
3000
3000
FC00
ENDCHAR
STARTCHAR uni0404
ENCODING 1028
SWIDTH 668 0
DWIDTH 13 0
BBX 12 14 1 0
BITMAP
0FA0
3060
6020
4020
C020
C000
FF80
C000
C000
C000
6000
6010
3060
1F80
ENDCHAR
STARTCHAR uni0405
ENCODING 1029
SWIDTH 504 0
DWIDTH 10 0
BBX 8 14 1 0
BITMAP
3F
43
C1
C1
E0
70
3C
1E
07
03
83
83
C3
FE
ENDCHAR
STARTCHAR uni0406
ENCODING 1030
SWIDTH 357 0
DWIDTH 7 0
BBX 5 14 1 0
BITMAP
F8
30
20
20
20
20
20
20
20
20
20
20
30
F8
ENDCHAR
STARTCHAR uni0407
ENCODING 1031
SWIDTH 357 0
DWIDTH 7 0
BBX 7 17 0 0
BITMAP
E6
C6
00
7C
18
10
10
10
10
10
10
10
10
10
10
18
7C
ENDCHAR
STARTCHAR uni0408
ENCODING 1032
SWIDTH 396 0
DWIDTH 8 0
BBX 8 14 0 0
BITMAP
3F
0C
0C
0C
0C
0C
0C
0C
0C
0C
0C
8C
C8
78
ENDCHAR
STARTCHAR uni0409
ENCODING 1033
SWIDTH 924 0
DWIDTH 18 0
BBX 18 14 0 0
BITMAP
1FF800
046000
046000
046000
046000
086000
087F00
086180
0860C0
0860C0
1060C0
1060C0
F06180
E1FF00
ENDCHAR
STARTCHAR uni040A
ENCODING 1034
SWIDTH 1013 0
DWIDTH 20 0
BBX 19 14 1 0
BITMAP
F8FC00
303000
303000
303000
303000
303000
3FFF00
3031C0
3030C0
303060
303060
3030C0
3030C0
F8FF00
ENDCHAR
STARTCHAR uni040B
ENCODING 1035
SWIDTH 761 0
DWIDTH 15 0
BBX 15 14 0 0
BITMAP
7FF0
4610
8610
8610
0600
0600
07F0
0618
0618
0608
0608
0608
0618
1FBE
ENDCHAR
STARTCHAR uni040C
ENCODING 1036
SWIDTH 658 0
DWIDTH 13 0
BBX 12 17 1 0
BITMAP
0300
0300
0400
F870
30F0
3080
3080
3100
3100
3100
3E00
3300
3380
3180
30C0
30C0
F870
ENDCHAR
STARTCHAR uni040D
ENCODING 1037
SWIDTH 780 0
DWIDTH 16 0
BBX 14 17 1 0
BITMAP
1800
0C00
0200
F8FC
3030
3030
3070
30B0
30B0
3130
3230
3430
3830
3830
3030
3030
F8FC
ENDCHAR
STARTCHAR uni040E
ENCODING 1038
SWIDTH 625 0
DWIDTH 13 0
BBX 13 19 0 0
BITMAP
0880
18C0
08C0
0780
0000
F878
3020
3020
1840
1840
0C80
0C80
0700
0700
0300
0200
0200
3C00
3800
ENDCHAR
STARTCHAR uni040F
ENCODING 1039
SWIDTH 759 0
DWIDTH 15 0
BBX 14 19 1 -5
BITMAP
F8F8
3030
3030
3030
3030
3030
3030
3030
3030
3030
3030
3030
3030
FFF8
0204
0200
0200
0300
0200
ENDCHAR
STARTCHAR uni0410
ENCODING 1040
SWIDTH 718 0
DWIDTH 14 0
BBX 14 14 0 0
BITMAP
0300
0300
0380
0580
0580
0CC0
08C0
08E0
1860
1FE0
3070
2030
6038
F07C
ENDCHAR
STARTCHAR uni0411
ENCODING 1041
SWIDTH 617 0
DWIDTH 12 0
BBX 11 14 1 0
BITMAP
FFC0
30C0
3040
3040
3000
3000
3F00
31C0
30C0
30E0
30C0
30C0
30C0
FF00
ENDCHAR
STARTCHAR uni0412
ENCODING 1042
SWIDTH 618 0
DWIDTH 12 0
BBX 11 14 1 0
BITMAP
FF00
3180
30C0
30C0
30C0
3180
3E00
3180
30C0
3060
3060
30C0
30C0
FF80
ENDCHAR
STARTCHAR uni0413
ENCODING 1043
SWIDTH 548 0
DWIDTH 11 0
BBX 10 14 1 0
BITMAP
FF80
3080
3040
3040
3000
3000
3000
3000
3000
3000
3000
3000
3000
FC00
ENDCHAR
STARTCHAR uni0414
ENCODING 1044
SWIDTH 663 0
DWIDTH 13 0
BBX 13 18 0 -4
BITMAP
3FF8
0860
0860
0860
0860
0860
0860
1060
1060
1060
3060
2060
6060
FFF0
C010
8010
8010
8010
ENDCHAR
STARTCHAR uni0415
ENCODING 1045
SWIDTH 626 0
DWIDTH 13 0
BBX 11 14 1 0
BITMAP
FFC0
3040
3040
3000
3080
3080
3080
3F80
3080
3000
3020
3020
3060
FFC0
ENDCHAR
STARTCHAR uni0416
ENCODING 1046
SWIDTH 937 0
DWIDTH 19 0
BBX 19 14 0 0
BITMAP
61F0C0
F0C1C0
10C200
08C200
08C200
08C400
04C400
07FC00
0CCC00
0CC600
18C300
18C300
30C180
E1F1E0
ENDCHAR
STARTCHAR uni0417
ENCODING 1047
SWIDTH 545 0
DWIDTH 11 0
BBX 9 14 1 0
BITMAP
BE00
C300
C180
8180
8300
0300
1C00
0300
0180
0180
0180
8180
C300
3E00
ENDCHAR
STARTCHAR uni0418
ENCODING 1048
SWIDTH 780 0
DWIDTH 16 0
BBX 14 14 1 0
BITMAP
F8FC
3030
3030
3070
30B0
30B0
3130
3230
3430
3830
3830
3030
3030
F8FC
ENDCHAR
STARTCHAR uni0419
ENCODING 1049
SWIDTH 780 0
DWIDTH 16 0
BBX 14 18 1 0
BITMAP
0CC0
18C0
08C0
0780
F8FC
3030
3030
3070
30B0
30B0
3130
3230
3430
3830
3830
3030
3030
F8FC
ENDCHAR
STARTCHAR uni041A
ENCODING 1050
SWIDTH 658 0
DWIDTH 13 0
BBX 12 14 1 0
BITMAP
F870
30F0
3080
3080
3100
3100
3100
3E00
3300
3380
3180
30C0
30C0
F870
ENDCHAR
STARTCHAR uni041B
ENCODING 1051
SWIDTH 684 0
DWIDTH 14 0
BBX 13 14 0 0
BITMAP
1FF8
0460
0460
0460
0460
0860
0860
0860
0860
0860
1060
1060
F060
E1F8
ENDCHAR
STARTCHAR uni041C
ENCODING 1052
SWIDTH 895 0
DWIDTH 18 0
BBX 16 14 1 0
BITMAP
F00F
700C
781C
581C
583C
4C2C
4C2C
464C
464C
46CC
438C
438C
610C
F11F
ENDCHAR
STARTCHAR uni041D
ENCODING 1053
SWIDTH 777 0
DWIDTH 16 0
BBX 14 14 1 0
BITMAP
F8FC
3030
3030
3030
3030
3030
3030
3FF0
3030
3030
3030
3030
3030
F8FC
ENDCHAR
STARTCHAR uni041E
ENCODING 1054
SWIDTH 738 0
DWIDTH 15 0
BBX 13 14 1 0
BITMAP
0F80
3060
6030
6030
C030
C018
C018
C018
C018
C030
6030
6020
3060
0F80
ENDCHAR
STARTCHAR uni041F
ENCODING 1055
SWIDTH 759 0
DWIDTH 15 0
BBX 13 14 1 0
BITMAP
FFF8
3030
3030
3030
3030
3030
3030
3030
3030
3030
3030
3030
3030
F8F8
ENDCHAR
STARTCHAR uni0420
ENCODING 1056
SWIDTH 569 0
DWIDTH 11 0
BBX 10 14 1 0
BITMAP
FF00
3180
30C0
30C0
30C0
3080
3180
3E00
3000
3000
3000
3000
3000
FC00
ENDCHAR
STARTCHAR uni0421
ENCODING 1057
SWIDTH 670 0
DWIDTH 13 0
BBX 12 14 1 0
BITMAP
0FA0
3060
6020
6020
C020
C000
C000
C000
C000
C000
6000
6010
3060
0F80
ENDCHAR
STARTCHAR uni0422
ENCODING 1058
SWIDTH 603 0
DWIDTH 12 0
BBX 12 14 0 0
BITMAP
FFF0
C630
8610
8610
0600
0600
0600
0600
0600
0600
0600
0600
0600
1F80
ENDCHAR
STARTCHAR uni0423
ENCODING 1059
SWIDTH 625 0
DWIDTH 13 0
BBX 13 14 0 0
BITMAP
F878
3020
3020
1840
1840
0C80
0C80
0700
0700
0300
0200
0200
3C00
3800
ENDCHAR
STARTCHAR uni0424
ENCODING 1060
SWIDTH 725 0
DWIDTH 15 0
BBX 13 14 1 0
BITMAP
1F80
0600
1FC0
6660
C630
C618
C618
C618
C618
C630
7660
0F80
0600
1F80
ENDCHAR
STARTCHAR uni0425
ENCODING 1061
SWIDTH 664 0
DWIDTH 13 0
BBX 13 14 0 0
BITMAP
FCF8
3820
1840
1CC0
0C80
0700
0700
0700
0580
0980
10C0
3060
2070
F0F8
ENDCHAR
STARTCHAR uni0426
ENCODING 1062
SWIDTH 756 0
DWIDTH 15 0
BBX 13 18 1 -4
BITMAP
F8F8
3070
3020
3020
3020
3020
3020
3020
3020
3020
3020
3020
3020
FFF8
0008
0008
0008
0008
ENDCHAR
STARTCHAR uni0427
ENCODING 1063
SWIDTH 650 0
DWIDTH 13 0
BBX 12 14 0 0
BITMAP
F9F0
30C0
30C0
30C0
30C0
30C0
30C0
1FC0
00C0
00C0
00C0
00C0
00C0
03F0
ENDCHAR
STARTCHAR uni0428
ENCODING 1064
SWIDTH 1053 0
DWIDTH 21 0
BBX 19 14 1 0
BITMAP
F9F3E0
3061C0
204080
204080
204080
204080
204080
204080
204080
204080
204080
204080
204080
FFFFE0
ENDCHAR
STARTCHAR uni0429
ENCODING 1065
SWIDTH 1044 0
DWIDTH 21 0
BBX 19 18 1 -4
BITMAP
F9F3E0
30C180
204180
204180
204180
204180
204180
204180
204180
204180
204180
204180
204180
FFFFE0
000060
000020
000020
000020
ENDCHAR
STARTCHAR uni042A
ENCODING 1066
SWIDTH 723 0
DWIDTH 14 0
BBX 14 14 0 0
BITMAP
FF80
C600
8600
8600
0600
0600
07F0
0618
060C
060C
060C
060C
0618
1FF0
ENDCHAR
STARTCHAR uni042B
ENCODING 1067
SWIDTH 887 0
DWIDTH 18 0
BBX 16 14 1 0
BITMAP
F83F
300C
300C
300C
300C
300C
3F0C
318C
30CC
30CC
30CC
30CC
318C
FF3F
ENDCHAR
STARTCHAR uni042C
ENCODING 1068
SWIDTH 606 0
DWIDTH 12 0
BBX 11 14 1 0
BITMAP
F800
3000
3000
3000
3000
3000
3F00
31C0
30C0
30E0
30C0
30C0
30C0
FF00
ENDCHAR
STARTCHAR uni042D
ENCODING 1069
SWIDTH 667 0
DWIDTH 13 0
BBX 11 14 1 0
BITMAP
BF00
E180
C0C0
8060
8060
0060
1FE0
0060
0060
0060
0060
80C0
4180
3F00
ENDCHAR
STARTCHAR uni042E
ENCODING 1070
SWIDTH 1042 0
DWIDTH 21 0
BBX 19 14 1 0
BITMAP
F83E00
306180
20C0C0
2180C0
218060
218060
3F8060
218060
218060
218040
2180C0
20C0C0
304180
F83E00
ENDCHAR
STARTCHAR uni042F
ENCODING 1071
SWIDTH 654 0
DWIDTH 13 0
BBX 12 14 0 0
BITMAP
0FF0
1840
3040
3040
3040
3040
1840
07C0
0C40
1C40
1840
3840
30E0
F1F0
ENDCHAR
STARTCHAR uni0430
ENCODING 1072
SWIDTH 480 0
DWIDTH 10 0
BBX 9 10 1 0
BITMAP
3C00
C400
C600
0600
0E00
7600
C600
C600
CE00
7780
ENDCHAR
STARTCHAR uni0431
ENCODING 1073
SWIDTH 520 0
DWIDTH 10 0
BBX 9 15 1 0
BITMAP
0100
0F00
3E00
6000
C000
9E00
E300
C100
C180
C180
C180
C180
C100
6300
3C00
ENDCHAR
STARTCHAR uni0432
ENCODING 1074
SWIDTH 505 0
DWIDTH 10 0
BBX 8 10 1 0
BITMAP
FE
63
63
63
62
7C
63
61
63
FE
ENDCHAR
STARTCHAR uni0433
ENCODING 1075
SWIDTH 429 0
DWIDTH 9 0
BBX 7 10 1 0
BITMAP
FE
62
62
62
60
60
60
60
60
F0
ENDCHAR
STARTCHAR uni0434
ENCODING 1076
SWIDTH 530 0
DWIDTH 11 0
BBX 10 13 0 -3
BITMAP
3FC0
1100
1100
1100
1100
1100
2100
2100
6100
FFC0
C040
8040
8040
ENDCHAR
STARTCHAR uni0435
ENCODING 1077
SWIDTH 464 0
DWIDTH 9 0
BBX 8 10 1 0
BITMAP
3C
46
82
FF
80
80
C1
E2
7E
3C
ENDCHAR
STARTCHAR uni0436
ENCODING 1078
SWIDTH 754 0
DWIDTH 15 0
BBX 15 10 0 0
BITMAP
67CE
F10E
1110
1110
0920
0FE0
1930
3118
3118
E7CE
ENDCHAR
STARTCHAR uni0437
ENCODING 1079
SWIDTH 435 0
DWIDTH 9 0
BBX 8 10 0 0
BITMAP
7C
42
43
02
1C
06
03
03
C3
3C
ENDCHAR
STARTCHAR uni0438
ENCODING 1080
SWIDTH 609 0
DWIDTH 12 0
BBX 11 10 1 0
BITMAP
F3E0
6180
6180
6380
6580
6980
7180
6180
6180
F3C0
ENDCHAR
STARTCHAR uni0439
ENCODING 1081
SWIDTH 609 0
DWIDTH 12 0
BBX 11 15 1 0
BITMAP
2100
3300
2100
1E00
0000
F3E0
6180
6180
6380
6580
6980
7180
6180
6180
F3C0
ENDCHAR
STARTCHAR uni043A
ENCODING 1082
SWIDTH 521 0
DWIDTH 10 0
BBX 10 10 1 0
BITMAP
F180
6380
6400
6400
6400
7800
6C00
6600
6300
F3C0
ENDCHAR
STARTCHAR uni043B
ENCODING 1083
SWIDTH 553 0
DWIDTH 11 0
BBX 10 10 0 0
BITMAP
3FC0
0980
0980
0980
0980
1180
1180
1180
E180
E3C0
ENDCHAR
STARTCHAR uni043C
ENCODING 1084
SWIDTH 697 0
DWIDTH 14 0
BBX 13 10 0 0
BITMAP
F038
3070
3870
3870
2CB0
2CB0
2730
2730
2230
F278
ENDCHAR
STARTCHAR uni043D
ENCODING 1085
SWIDTH 605 0
DWIDTH 12 0
BBX 11 10 1 0
BITMAP
F3E0
6180
6180
6180
7F80
6180
6180
6180
6180
F3E0
ENDCHAR
STARTCHAR uni043E
ENCODING 1086
SWIDTH 514 0
DWIDTH 10 0
BBX 9 10 1 0
BITMAP
3C00
4300
C300
C100
C180
C180
C100
C300
6300
3C00
ENDCHAR
STARTCHAR uni043F
ENCODING 1087
SWIDTH 591 0
DWIDTH 12 0
BBX 10 10 1 0
BITMAP
FFC0
6180
6180
6180
6180
6180
6180
6180
6180
F3C0
ENDCHAR
STARTCHAR uni0440
ENCODING 1088
SWIDTH 537 0
DWIDTH 11 0
BBX 10 15 0 -5
BITMAP
F700
3980
30C0
30C0
30C0
30C0
30C0
3080
3180
3F00
3000
3000
3000
3000
FC00
ENDCHAR
STARTCHAR uni0441
ENCODING 1089
SWIDTH 446 0
DWIDTH 9 0
BBX 8 10 1 0
BITMAP
3C
46
82
80
80
80
C1
C2
7E
3C
ENDCHAR
STARTCHAR uni0442
ENCODING 1090
SWIDTH 456 0
DWIDTH 9 0
BBX 9 10 0 0
BITMAP
FF80
8880
8880
0800
0800
0800
0800
0800
0800
3E00
ENDCHAR
STARTCHAR uni0443
ENCODING 1091
SWIDTH 483 0
DWIDTH 10 0
BBX 10 15 0 -5
BITMAP
F3C0
6080
6100
3100
3100
1A00
1A00
0A00
0C00
0C00
0800
0800
0800
F000
E000
ENDCHAR
STARTCHAR uni0444
ENCODING 1092
SWIDTH 710 0
DWIDTH 14 0
BBX 12 19 1 -5
BITMAP
0E00
0600
0600
0600
3FE0
4630
C630
C610
C610
C610
C610
C630
4630
7FE0
0600
0600
0600
0600
0F80
ENDCHAR
STARTCHAR uni0445
ENCODING 1093
SWIDTH 479 0
DWIDTH 10 0
BBX 10 10 0 0
BITMAP
FB80
3100
3200
1C00
0C00
0C00
1600
2300
6300
E7C0
ENDCHAR
STARTCHAR uni0446
ENCODING 1094
SWIDTH 590 0
DWIDTH 12 0
BBX 10 13 1 -3
BITMAP
F3C0
6180
6180
6180
6180
6180
6180
6180
6180
FFC0
0040
0040
0040
ENDCHAR
STARTCHAR uni0447
ENCODING 1095
SWIDTH 535 0
DWIDTH 11 0
BBX 10 10 0 0
BITMAP
F3C0
6180
6180
6180
6180
3F80
0180
0180
0180
03C0
ENDCHAR
STARTCHAR uni0448
ENCODING 1096
SWIDTH 812 0
DWIDTH 16 0
BBX 15 10 1 0
BITMAP
F7BE
6308
6308
6308
6308
6308
6308
6308
6308
FFFE
ENDCHAR
STARTCHAR uni0449
ENCODING 1097
SWIDTH 814 0
DWIDTH 16 0
BBX 15 13 1 -3
BITMAP
F7BE
6308
6308
6308
6308
6308
6308
6308
6308
FFFE
0006
0002
0002
ENDCHAR
STARTCHAR uni044A
ENCODING 1098
SWIDTH 568 0
DWIDTH 11 0
BBX 11 10 0 0
BITMAP
FE00
8800
8800
0800
0F80
08C0
0860
0860
0840
3F80
ENDCHAR
STARTCHAR uni044B
ENCODING 1099
SWIDTH 728 0
DWIDTH 15 0
BBX 13 10 1 0
BITMAP
F0F8
6030
6030
6030
7E30
6330
6330
6330
6330
FEF8
ENDCHAR
STARTCHAR uni044C
ENCODING 1100
SWIDTH 489 0
DWIDTH 10 0
BBX 8 10 1 0
BITMAP
F0
60
60
60
7E
63
63
63
63
FE
ENDCHAR
STARTCHAR uni044D
ENCODING 1101
SWIDTH 467 0
DWIDTH 9 0
BBX 8 10 1 0
BITMAP
FC
86
82
03
3F
03
02
06
86
78
ENDCHAR
STARTCHAR uni044E
ENCODING 1102
SWIDTH 774 0
DWIDTH 15 0
BBX 14 10 1 0
BITMAP
F1F0
6318
6208
660C
7E0C
660C
660C
6208
6318
F1F0
ENDCHAR
STARTCHAR uni044F
ENCODING 1103
SWIDTH 518 0
DWIDTH 10 0
BBX 10 10 0 0
BITMAP
1FC0
6100
6100
6100
3100
1F00
1900
3100
3100
E7C0
ENDCHAR
STARTCHAR uni0450
ENCODING 1104
SWIDTH 464 0
DWIDTH 9 0
BBX 8 14 1 0
BITMAP
30
10
08
00
3C
46
82
FF
80
80
C1
E2
7E
3C
ENDCHAR
STARTCHAR uni0451
ENCODING 1105
SWIDTH 464 0
DWIDTH 9 0
BBX 8 14 1 0
BITMAP
66
66
00
00
3C
46
82
FF
80
80
C1
E2
7E
3C
ENDCHAR
STARTCHAR uni0452
ENCODING 1106
SWIDTH 563 0
DWIDTH 11 0
BBX 10 19 0 -5
BITMAP
F000
3000
FE00
3000
3780
3880
30C0
30C0
30C0
30C0
30C0
30C0
30C0
78C0
00C0
0080
0080
1900
0F00
ENDCHAR
STARTCHAR uni0453
ENCODING 1107
SWIDTH 429 0
DWIDTH 9 0
BBX 7 14 1 0
BITMAP
18
10
20
00
FE
62
62
62
60
60
60
60
60
F0
ENDCHAR
STARTCHAR uni0454
ENCODING 1108
SWIDTH 460 0
DWIDTH 9 0
BBX 8 10 1 0
BITMAP
3E
46
C2
C0
FC
C0
C0
C0
43
3C
ENDCHAR
STARTCHAR uni0455
ENCODING 1109
SWIDTH 394 0
DWIDTH 8 0
BBX 6 10 1 0
BITMAP
7C
84
84
C0
70
3C
0C
84
84
F8
ENDCHAR
STARTCHAR uni0456
ENCODING 1110
SWIDTH 285 0
DWIDTH 6 0
BBX 4 14 1 0
BITMAP
60
60
00
00
E0
60
60
60
60
60
60
60
60
F0
ENDCHAR
STARTCHAR uni0457
ENCODING 1111
SWIDTH 285 0
DWIDTH 6 0
BBX 7 14 -1 0
BITMAP
64
EE
00
00
38
18
18
18
18
18
18
18
18
3C
ENDCHAR
STARTCHAR uni0458
ENCODING 1112
SWIDTH 263 0
DWIDTH 5 0
BBX 6 19 -2 -5
BITMAP
0C
0C
00
00
1C
0C
0C
0C
0C
0C
0C
0C
0C
0C
0C
0C
08
C8
70
ENDCHAR
STARTCHAR uni0459
ENCODING 1113
SWIDTH 742 0
DWIDTH 15 0
BBX 14 10 0 0
BITMAP
3FC0
0980
0980
0980
09F8
118C
118C
118C
E18C
E3F8
ENDCHAR
STARTCHAR uni045A
ENCODING 1114
SWIDTH 790 0
DWIDTH 16 0
BBX 14 10 1 0
BITMAP
F3C0
6180
6180
6180
7FF8
618C
6184
6184
618C
F3F8
ENDCHAR
STARTCHAR uni045B
ENCODING 1115
SWIDTH 579 0
DWIDTH 12 0
BBX 11 14 0 0
BITMAP
F000
3000
FE00
3000
3780
3880
30C0
30C0
30C0
30C0
30C0
30C0
30C0
79E0
ENDCHAR
STARTCHAR uni045C
ENCODING 1116
SWIDTH 521 0
DWIDTH 10 0
BBX 10 14 1 0
BITMAP
0C00
0800
1000
0000
F180
6380
6400
6400
6400
7800
6C00
6600
6300
F3C0
ENDCHAR
STARTCHAR uni045D
ENCODING 1117
SWIDTH 609 0
DWIDTH 12 0
BBX 11 14 1 0
BITMAP
1800
0800
0400
0000
F3E0
6180
6180
6380
6580
6980
7180
6180
6180
F3C0
ENDCHAR
STARTCHAR uni045E
ENCODING 1118
SWIDTH 483 0
DWIDTH 10 0
BBX 10 19 0 -5
BITMAP
3300
3180
3100
1E00
F3C0
6080
6100
3100
3100
1200
1A00
0A00
0C00
0C00
0800
0800
0800
F000
E000
ENDCHAR
STARTCHAR uni045F
ENCODING 1119
SWIDTH 587 0
DWIDTH 12 0
BBX 10 14 1 -4
BITMAP
F3C0
6180
6180
6180
6180
6180
6180
6180
6180
FFC0
0800
0C00
0C00
0C00
ENDCHAR
STARTCHAR uni0462
ENCODING 1122
SWIDTH 727 0
DWIDTH 15 0
BBX 14 15 0 0
BITMAP
1F80
0600
FFF8
C618
8608
8608
0600
07E0
0638
0618
060C
060C
0618
0618
1FE0
ENDCHAR
STARTCHAR uni0463
ENCODING 1123
SWIDTH 561 0
DWIDTH 11 0
BBX 11 15 0 0
BITMAP
0800
3800
0800
0800
0800
FF80
8880
8880
0800
0F80
08C0
0860
0860
08C0
3F80
ENDCHAR
STARTCHAR uni046A
ENCODING 1130
SWIDTH 881 0
DWIDTH 18 0
BBX 18 14 0 0
BITMAP
1FFC00
0C0C00
0E0800
061000
033000
03A000
01C000
07F000
0CDC00
18CC00
18C600
30C600
30C300
E3E3C0
ENDCHAR
STARTCHAR uni046B
ENCODING 1131
SWIDTH 667 0
DWIDTH 13 0
BBX 14 10 0 0
BITMAP
3FE0
1840
0C80
0C80
0700
1AC0
1260
3260
6330
E7BC
ENDCHAR
STARTCHAR uni0472
ENCODING 1138
SWIDTH 737 0
DWIDTH 15 0
BBX 13 14 1 0
BITMAP
0F80
3060
6030
6030
C030
C018
DE18
E7F8
C018
C010
6030
6020
3060
0F80
ENDCHAR
STARTCHAR uni0473
ENCODING 1139
SWIDTH 514 0
DWIDTH 10 0
BBX 9 10 1 0
BITMAP
3C00
4300
C300
C100
F180
CF80
C100
C300
4200
3C00
ENDCHAR
STARTCHAR uni0474
ENCODING 1140
SWIDTH 705 0
DWIDTH 14 0
BBX 15 14 0 0
BITMAP
F80C
701E
3030
3020
1820
1840
1C40
0CC0
0C80
0680
0780
0700
0300
0200
ENDCHAR
STARTCHAR uni0475
ENCODING 1141
SWIDTH 520 0
DWIDTH 10 0
BBX 11 10 0 0
BITMAP
F0E0
61E0
6100
3100
3200
1200
1A00
1C00
0C00
0800
ENDCHAR
STARTCHAR uni0490
ENCODING 1168
SWIDTH 525 0
DWIDTH 11 0
BBX 9 17 1 0
BITMAP
0080
0080
0080
FF80
3000
3000
3000
3000
3000
3000
3000
3000
3000
3000
3000
3000
FC00
ENDCHAR
STARTCHAR uni0491
ENCODING 1169
SWIDTH 404 0
DWIDTH 8 0
BBX 7 13 1 0
BITMAP
02
02
02
FE
60
60
60
60
60
60
60
60
F0
ENDCHAR
STARTCHAR uni1D00
ENCODING 7424
SWIDTH 511 0
DWIDTH 10 0
BBX 11 10 0 0
BITMAP
0C00
0C00
1600
1600
1200
2300
3F00
4180
4180
E3E0
ENDCHAR
STARTCHAR uni1D07
ENCODING 7431
SWIDTH 495 0
DWIDTH 10 0
BBX 8 10 1 0
BITMAP
FF
61
61
62
62
7E
62
61
61
FF
ENDCHAR
STARTCHAR uni1D1C
ENCODING 7452
SWIDTH 584 0
DWIDTH 12 0
BBX 11 10 0 0
BITMAP
F8E0
3040
2040
2040
2040
2040
2040
3040
3080
1F00
ENDCHAR
STARTCHAR uni1D81
ENCODING 7553
SWIDTH 539 0
DWIDTH 11 0
BBX 9 19 1 -5
BITMAP
0700
0300
0300
0300
3F00
4300
C300
C300
8300
8300
C300
C300
C300
7F80
0080
0080
0080
0680
0700
ENDCHAR
STARTCHAR uni1D84
ENCODING 7556
SWIDTH 542 0
DWIDTH 11 0
BBX 10 19 1 -5
BITMAP
E000
6000
6000
6000
6780
6200
6400
6800
7800
7800
6C00
6600
6300
F7C0
0040
0040
0040
0240
0380
ENDCHAR
STARTCHAR uni1D85
ENCODING 7557
SWIDTH 283 0
DWIDTH 6 0
BBX 4 19 1 -5
BITMAP
E0
60
60
60
60
60
60
60
60
60
60
60
60
F0
10
10
10
90
E0
ENDCHAR
STARTCHAR uni1D8A
ENCODING 7562
SWIDTH 395 0
DWIDTH 8 0
BBX 6 15 1 -5
BITMAP
7C
84
84
C0
70
38
0C
84
84
FC
04
04
04
24
38
ENDCHAR
STARTCHAR uni1D8D
ENCODING 7565
SWIDTH 479 0
DWIDTH 10 0
BBX 10 15 0 -5
BITMAP
FB80
3100
3200
1C00
0C00
0C00
1600
2300
6300
E7C0
0040
0040
0040
0680
0380
ENDCHAR
STARTCHAR uni1D8E
ENCODING 7566
SWIDTH 458 0
DWIDTH 9 0
BBX 8 15 1 -5
BITMAP
FE
86
8C
18
18
30
30
61
C2
FE
02
02
02
1A
1C
ENDCHAR
STARTCHAR uni1D98
ENCODING 7576
SWIDTH 368 0
DWIDTH 7 0
BBX 10 20 0 -5
BITMAP
0380
04C0
0C00
0C00
0C00
0C00
0C00
0C00
0C00
0C00
0C00
0C00
0C00
C800
F800
8000
8000
8000
5800
7000
ENDCHAR
STARTCHAR uni1D9B
ENCODING 7579
SWIDTH 462 0
DWIDTH 9 0
BBX 9 8 0 5
BITMAP
EE00
7300
6100
6180
6100
6100
6300
5E00
ENDCHAR
STARTCHAR uni1DA3
ENCODING 7587
SWIDTH 488 0
DWIDTH 10 0
BBX 9 11 0 2
BITMAP
F780
2100
2100
2100
2100
2100
3300
3D00
0100
0100
0180
ENDCHAR
STARTCHAR uni1E00
ENCODING 7680
SWIDTH 718 0
DWIDTH 14 0
BBX 14 19 0 -5
BITMAP
0300
0300
0380
0580
0580
0CC0
08C0
08E0
1860
1FE0
3070
2030
6038
F07C
0000
0700
0480
0480
0700
ENDCHAR
STARTCHAR uni1E01
ENCODING 7681
SWIDTH 480 0
DWIDTH 10 0
BBX 9 15 1 -5
BITMAP
3C00
C400
C600
0600
0E00
7600
C600
C600
CE00
7780
0000
3800
2400
2400
3800
ENDCHAR
STARTCHAR uni1E02
ENCODING 7682
SWIDTH 618 0
DWIDTH 12 0
BBX 11 17 1 0
BITMAP
0C00
0C00
0000
FF00
3180
30C0
30C0
30C0
3180
3E00
3180
30C0
3060
3060
30C0
30C0
FF80
ENDCHAR
STARTCHAR uni1E03
ENCODING 7683
SWIDTH 522 0
DWIDTH 10 0
BBX 10 18 0 0
BITMAP
0C00
0C00
0000
0000
E000
2000
2000
2000
2700
3980
2080
20C0
20C0
20C0
2080
2080
3100
3E00
ENDCHAR
STARTCHAR uni1E04
ENCODING 7684
SWIDTH 618 0
DWIDTH 12 0
BBX 11 18 1 -4
BITMAP
FF00
3180
30C0
30C0
30C0
3180
3E00
3180
30C0
3060
3060
30C0
30C0
FF80
0000
0000
0C00
0C00
ENDCHAR
STARTCHAR uni1E05
ENCODING 7685
SWIDTH 522 0
DWIDTH 10 0
BBX 10 18 0 -4
BITMAP
E000
2000
2000
2000
2700
3980
2080
20C0
20C0
20C0
2080
2080
3100
3E00
0000
0000
0C00
0C00
ENDCHAR
STARTCHAR uni1E06
ENCODING 7686
SWIDTH 618 0
DWIDTH 12 0
BBX 11 17 1 -3
BITMAP
FF00
3180
30C0
30C0
30C0
3180
3E00
3180
30C0
3060
3060
30C0
30C0
FF80
0000
0000
3F00
ENDCHAR
STARTCHAR uni1E07
ENCODING 7687
SWIDTH 522 0
DWIDTH 10 0
BBX 10 17 0 -3
BITMAP
E000
2000
2000
2000
2700
3980
2080
20C0
20C0
20C0
2080
2080
3100
3E00
0000
0000
3F00
ENDCHAR
STARTCHAR uni1E08
ENCODING 7688
SWIDTH 670 0
DWIDTH 13 0
BBX 12 22 1 -5
BITMAP
0180
0300
0400
0FA0
3060
6020
6020
C020
C000
C000
C000
C000
C000
6000
6010
3060
0F80
0400
0600
0100
0100
0E00
ENDCHAR
STARTCHAR uni1E09
ENCODING 7689
SWIDTH 446 0
DWIDTH 9 0
BBX 8 19 1 -5
BITMAP
0C
18
10
00
3C
46
C6
80
80
80
C0
C1
E2
7C
10
10
1C
04
38
ENDCHAR
STARTCHAR uni1E0A
ENCODING 7690
SWIDTH 730 0
DWIDTH 15 0
BBX 13 17 1 0
BITMAP
0600
0600
0000
FF80
30C0
3060
3030
3030
3038
3038
3038
3030
3030
3030
3060
30C0
FF80
ENDCHAR
STARTCHAR uni1E0B
ENCODING 7691
SWIDTH 539 0
DWIDTH 11 0
BBX 9 18 1 0
BITMAP
1C00
1800
0000
0000
0700
0300
0300
0300
3F00
4300
C300
C300
8300
8300
C300
C300
C300
7F80
ENDCHAR
STARTCHAR uni1E0C
ENCODING 7692
SWIDTH 730 0
DWIDTH 15 0
BBX 13 18 1 -4
BITMAP
FF80
30C0
3060
3030
3030
3038
3038
3038
3030
3030
3030
3060
30C0
FF80
0000
0000
0E00
0C00
ENDCHAR
STARTCHAR uni1E0D
ENCODING 7693
SWIDTH 539 0
DWIDTH 11 0
BBX 9 18 1 -4
BITMAP
0700
0300
0300
0300
3F00
4300
C300
C300
8300
8300
C300
C300
C300
7F80
0000
0000
1C00
1800
ENDCHAR
STARTCHAR uni1E0E
ENCODING 7694
SWIDTH 730 0
DWIDTH 15 0
BBX 13 17 1 -3
BITMAP
FF80
30C0
3060
3030
3030
3038
3038
3038
3030
3030
3030
3060
30C0
FF80
0000
0000
1F00
ENDCHAR
STARTCHAR uni1E0F
ENCODING 7695
SWIDTH 539 0
DWIDTH 11 0
BBX 9 17 1 -3
BITMAP
0700
0300
0300
0300
3F00
4300
C300
C300
8300
8300
C300
C300
C300
7F80
0000
0000
7E00
ENDCHAR
STARTCHAR uni1E10
ENCODING 7696
SWIDTH 730 0
DWIDTH 15 0
BBX 13 19 1 -5
BITMAP
FF80
30C0
3060
3030
3030
3038
3038
3038
3030
3030
3030
3060
30C0
FF80
0000
0E00
0E00
0200
0C00
ENDCHAR
STARTCHAR uni1E11
ENCODING 7697
SWIDTH 539 0
DWIDTH 11 0
BBX 9 19 1 -5
BITMAP
0700
0300
0300
0300
3F00
4300
C300
C300
8300
8300
C300
C300
C300
7F80
0000
1C00
1C00
0400
1800
ENDCHAR
STARTCHAR uni1E12
ENCODING 7698
SWIDTH 730 0
DWIDTH 15 0
BBX 13 18 1 -4
BITMAP
FF80
30C0
3060
3030
3030
3038
3038
3038
3030
3030
3030
3060
30C0
FF80
0000
0C00
0A00
1100
ENDCHAR
STARTCHAR uni1E13
ENCODING 7699
SWIDTH 539 0
DWIDTH 11 0
BBX 9 18 1 -4
BITMAP
0700
0300
0300
0300
3F00
4300
C300
C300
8300
8300
C300
C300
C300
7F80
0000
1800
1400
2200
ENDCHAR
STARTCHAR uni1E14
ENCODING 7700
SWIDTH 626 0
DWIDTH 13 0
BBX 11 19 1 0
BITMAP
1800
0C00
0200
3F00
0000
FFC0
3040
3040
3000
3080
3080
3080
3F80
3080
3000
3020
3020
3060
FFC0
ENDCHAR
STARTCHAR uni1E15
ENCODING 7701
SWIDTH 464 0
DWIDTH 9 0
BBX 8 17 1 0
BITMAP
30
10
08
00
7E
00
00
3C
46
82
FF
80
80
C1
E2
7E
3C
ENDCHAR
STARTCHAR uni1E16
ENCODING 7702
SWIDTH 626 0
DWIDTH 13 0
BBX 11 19 1 0
BITMAP
0300
0600
0800
3F00
0000
FFC0
3040
3040
3000
3080
3080
3080
3F80
3080
3000
3020
3020
3060
FFC0
ENDCHAR
STARTCHAR uni1E17
ENCODING 7703
SWIDTH 464 0
DWIDTH 9 0
BBX 8 17 1 0
BITMAP
0C
18
10
00
7E
00
00
3C
46
82
FF
80
80
C1
E2
7E
3C
ENDCHAR
STARTCHAR uni1E18
ENCODING 7704
SWIDTH 626 0
DWIDTH 13 0
BBX 11 18 1 -4
BITMAP
FFC0
3040
3040
3000
3080
3080
3080
3F80
3080
3000
3020
3020
3060
FFC0
0000
0C00
0A00
1100
ENDCHAR
STARTCHAR uni1E19
ENCODING 7705
SWIDTH 464 0
DWIDTH 9 0
BBX 8 14 1 -4
BITMAP
3C
46
82
FF
80
80
C1
E2
7E
3C
00
18
2C
46
ENDCHAR
STARTCHAR uni1E1A
ENCODING 7706
SWIDTH 626 0
DWIDTH 13 0
BBX 11 17 1 -3
BITMAP
FFC0
3040
3040
3000
3080
3080
3080
3F80
3080
3000
3020
3020
3060
FFC0
0000
1C80
2700
ENDCHAR
STARTCHAR uni1E1B
ENCODING 7707
SWIDTH 464 0
DWIDTH 9 0
BBX 8 13 1 -3
BITMAP
3C
46
82
FF
80
80
C1
E2
7E
3C
00
72
8C
ENDCHAR
STARTCHAR uni1E1C
ENCODING 7708
SWIDTH 626 0
DWIDTH 13 0
BBX 11 23 1 -5
BITMAP
2100
1100
0E00
0000
FFC0
3040
3040
3000
3080
3080
3080
3F80
3080
3000
3020
3020
3060
FFC0
0400
0E00
0200
0200
0E00
ENDCHAR
STARTCHAR uni1E1D
ENCODING 7709
SWIDTH 464 0
DWIDTH 9 0
BBX 8 19 1 -5
BITMAP
42
44
38
00
3C
46
82
FF
80
80
C1
E2
7E
3C
10
18
04
04
38
ENDCHAR
STARTCHAR uni1E1E
ENCODING 7710
SWIDTH 588 0
DWIDTH 12 0
BBX 10 17 1 0
BITMAP
0E00
0400
0000
FFC0
3040
3040
3000
3080
3080
3F80
3080
3080
3000
3000
3000
3000
FC00
ENDCHAR
STARTCHAR uni1E1F
ENCODING 7711
SWIDTH 307 0
DWIDTH 6 0
BBX 8 18 0 0
BITMAP
30
30
00
0E
13
30
30
30
7C
30
30
30
30
30
30
30
30
FC
ENDCHAR
STARTCHAR uni1E20
ENCODING 7712
SWIDTH 720 0
DWIDTH 14 0
BBX 13 16 1 0
BITMAP
0F80
0000
0FA0
3060
6020
6020
C020
C000
C000
C0F8
C060
C020
6020
6020
3060
1FC0
ENDCHAR
STARTCHAR uni1E21
ENCODING 7713
SWIDTH 484 0
DWIDTH 10 0
BBX 9 18 0 -5
BITMAP
3F00
0000
0000
1F80
6300
6300
6300
6300
2300
3E00
6000
7F00
3F80
4080
4080
C080
6100
3E00
ENDCHAR
STARTCHAR uni1E22
ENCODING 7714
SWIDTH 777 0
DWIDTH 16 0
BBX 14 17 1 0
BITMAP
0300
0300
0000
F8FC
3030
3030
3030
3030
3030
3030
3FF0
3030
3030
3030
3030
3030
F8FC
ENDCHAR
STARTCHAR uni1E23
ENCODING 7715
SWIDTH 577 0
DWIDTH 12 0
BBX 11 18 0 0
BITMAP
0600
0600
0000
0000
F000
3000
3000
3000
3780
3880
30C0
30C0
30C0
30C0
30C0
30C0
30C0
79E0
ENDCHAR
STARTCHAR uni1E24
ENCODING 7716
SWIDTH 777 0
DWIDTH 16 0
BBX 14 18 1 -4
BITMAP
F8FC
3030
3030
3030
3030
3030
3030
3FF0
3030
3030
3030
3030
3030
F8FC
0000
0000
0300
0300
ENDCHAR
STARTCHAR uni1E25
ENCODING 7717
SWIDTH 577 0
DWIDTH 12 0
BBX 11 18 0 -4
BITMAP
F000
3000
3000
3000
3780
3880
30C0
30C0
30C0
30C0
30C0
30C0
30C0
79E0
0000
0000
0600
0600
ENDCHAR
STARTCHAR uni1E26
ENCODING 7718
SWIDTH 777 0
DWIDTH 16 0
BBX 14 17 1 0
BITMAP
1CC0
0CC0
0000
F8FC
3030
3030
3030
3030
3030
3030
3FF0
3030
3030
3030
3030
3030
F8FC
ENDCHAR
STARTCHAR uni1E27
ENCODING 7719
SWIDTH 577 0
DWIDTH 12 0
BBX 11 18 0 0
BITMAP
1980
1980
0000
0000
F000
3000
3000
3000
3780
3880
30C0
30C0
30C0
30C0
30C0
30C0
30C0
79E0
ENDCHAR
STARTCHAR uni1E28
ENCODING 7720
SWIDTH 777 0
DWIDTH 16 0
BBX 14 19 1 -5
BITMAP
F8FC
3030
3030
3030
3030
3030
3030
3FF0
3030
3030
3030
3030
3030
F8FC
2000
3000
1000
1000
7000
ENDCHAR
STARTCHAR uni1E29
ENCODING 7721
SWIDTH 577 0
DWIDTH 12 0
BBX 11 19 0 -5
BITMAP
F000
3000
3000
3000
3780
3880
30C0
30C0
30C0
30C0
30C0
30C0
30C0
79E0
2000
3000
1800
1800
7000
ENDCHAR
STARTCHAR uni1E2A
ENCODING 7722
SWIDTH 777 0
DWIDTH 16 0
BBX 14 18 1 -4
BITMAP
F8FC
3030
3030
3030
3030
3030
3030
3FF0
3030
3030
3030
3030
3030
F8FC
0000
0840
0880
0700
ENDCHAR
STARTCHAR uni1E2B
ENCODING 7723
SWIDTH 577 0
DWIDTH 12 0
BBX 11 18 0 -4
BITMAP
F000
3000
3000
3000
3780
3880
30C0
30C0
30C0
30C0
30C0
30C0
30C0
79E0
0000
1080
1100
0E00
ENDCHAR
STARTCHAR uni1E2C
ENCODING 7724
SWIDTH 357 0
DWIDTH 7 0
BBX 7 17 0 -3
BITMAP
7C
18
10
10
10
10
10
10
10
10
10
10
18
7C
00
72
9C
ENDCHAR
STARTCHAR uni1E2D
ENCODING 7725
SWIDTH 285 0
DWIDTH 6 0
BBX 6 17 0 -3
BITMAP
30
30
00
00
70
30
30
30
30
30
30
30
30
78
00
E4
98
ENDCHAR
STARTCHAR uni1E2E
ENCODING 7726
SWIDTH 357 0
DWIDTH 7 0
BBX 7 20 0 0
BITMAP
0C
18
20
E6
C6
00
7C
18
10
10
10
10
10
10
10
10
10
10
18
7C
ENDCHAR
STARTCHAR uni1E2F
ENCODING 7727
SWIDTH 285 0
DWIDTH 6 0
BBX 7 17 -1 0
BITMAP
0C
18
10
64
EE
00
00
38
18
18
18
18
18
18
18
18
3C
ENDCHAR
STARTCHAR uni1E30
ENCODING 7728
SWIDTH 702 0
DWIDTH 14 0
BBX 13 17 1 0
BITMAP
0300
0600
0400
F9F0
30C0
2080
2100
2200
2400
2800
3C00
2600
2300
2180
20C0
30E0
F9F8
ENDCHAR
STARTCHAR uni1E31
ENCODING 7729
SWIDTH 542 0
DWIDTH 11 0
BBX 10 18 1 0
BITMAP
0600
0C00
1000
0000
E000
6000
6000
6000
6780
6200
6400
6800
7800
7800
6C00
6600
6300
F7C0
ENDCHAR
STARTCHAR uni1E32
ENCODING 7730
SWIDTH 702 0
DWIDTH 14 0
BBX 13 18 1 -4
BITMAP
F9F0
30C0
2080
2100
2200
2400
2800
3C00
2600
2300
2180
20C0
30E0
F9F8
0000
0000
0600
0600
ENDCHAR
STARTCHAR uni1E33
ENCODING 7731
SWIDTH 542 0
DWIDTH 11 0
BBX 10 18 1 -4
BITMAP
E000
6000
6000
6000
6780
6200
6400
6800
7800
7800
6C00
6600
6300
F7C0
0000
0000
1C00
0800
ENDCHAR
STARTCHAR uni1E34
ENCODING 7732
SWIDTH 702 0
DWIDTH 14 0
BBX 13 17 1 -3
BITMAP
F9F0
30C0
2080
2100
2200
2400
2800
3C00
2600
2300
2180
20C0
30E0
F9F8
0000
0000
1F80
ENDCHAR
STARTCHAR uni1E35
ENCODING 7733
SWIDTH 542 0
DWIDTH 11 0
BBX 10 17 1 -3
BITMAP
E000
6000
6000
6000
6780
6200
6400
6800
7800
7800
6C00
6600
6300
F7C0
0000
0000
3E00
ENDCHAR
STARTCHAR uni1E36
ENCODING 7734
SWIDTH 585 0
DWIDTH 12 0
BBX 10 18 1 -4
BITMAP
F800
3000
3000
3000
3000
3000
3000
3000
3000
3000
3040
3040
3040
FFC0
0000
0000
0C00
0C00
ENDCHAR
STARTCHAR uni1E37
ENCODING 7735
SWIDTH 283 0
DWIDTH 6 0
BBX 4 18 1 -4
BITMAP
E0
60
60
60
60
60
60
60
60
60
60
60
60
F0
00
00
60
60
ENDCHAR
STARTCHAR uni1E38
ENCODING 7736
SWIDTH 585 0
DWIDTH 12 0
BBX 10 20 1 -4
BITMAP
FC00
0000
F800
3000
3000
3000
3000
3000
3000
3000
3000
3000
3040
3040
3040
FFC0
0000
0000
0C00
0C00
ENDCHAR
STARTCHAR uni1E39
ENCODING 7737
SWIDTH 283 0
DWIDTH 6 0
BBX 6 21 0 -4
BITMAP
FC
00
00
70
30
30
30
30
30
30
30
30
30
30
30
30
78
00
00
30
30
ENDCHAR
STARTCHAR uni1E3A
ENCODING 7738
SWIDTH 585 0
DWIDTH 12 0
BBX 10 17 1 -3
BITMAP
F800
3000
3000
3000
3000
3000
3000
3000
3000
3000
3040
3040
3040
FFC0
0000
0000
3F00
ENDCHAR
STARTCHAR uni1E3B
ENCODING 7739
SWIDTH 283 0
DWIDTH 6 0
BBX 6 17 0 -3
BITMAP
70
30
30
30
30
30
30
30
30
30
30
30
30
78
00
00
FC
ENDCHAR
STARTCHAR uni1E3C
ENCODING 7740
SWIDTH 585 0
DWIDTH 12 0
BBX 10 18 1 -4
BITMAP
F800
3000
3000
3000
3000
3000
3000
3000
3000
3000
3040
3040
3040
FFC0
0000
0C00
1600
2300
ENDCHAR
STARTCHAR uni1E3D
ENCODING 7741
SWIDTH 283 0
DWIDTH 6 0
BBX 6 18 0 -4
BITMAP
70
30
30
30
30
30
30
30
30
30
30
30
30
78
00
30
58
8C
ENDCHAR
STARTCHAR uni1E3E
ENCODING 7742
SWIDTH 895 0
DWIDTH 18 0
BBX 16 17 1 0
BITMAP
00C0
0180
0200
F00F
700C
781C
581C
583C
4C2C
4C2C
464C
464C
46CC
438C
438C
610C
F11F
ENDCHAR
STARTCHAR uni1E3F
ENCODING 7743
SWIDTH 852 0
DWIDTH 17 0
BBX 16 14 1 0
BITMAP
00C0
0180
0100
0000
EF78
718C
610C
610C
610C
610C
610C
610C
618C
F7DF
ENDCHAR
STARTCHAR uni1E40
ENCODING 7744
SWIDTH 895 0
DWIDTH 18 0
BBX 16 17 1 0
BITMAP
0180
0180
0000
F00F
700C
781C
581C
583C
4C2C
4C2C
464C
464C
46CC
438C
438C
610C
F11F
ENDCHAR
STARTCHAR uni1E41
ENCODING 7745
SWIDTH 852 0
DWIDTH 17 0
BBX 16 14 1 0
BITMAP
0380
0180
0000
0000
EF78
718C
610C
610C
610C
610C
610C
610C
618C
F7DF
ENDCHAR
STARTCHAR uni1E42
ENCODING 7746
SWIDTH 895 0
DWIDTH 18 0
BBX 16 18 1 -4
BITMAP
F00F
700C
781C
581C
583C
4C2C
4C2C
464C
464C
46CC
438C
438C
610C
F11F
0000
0000
0380
0100
ENDCHAR
STARTCHAR uni1E43
ENCODING 7747
SWIDTH 852 0
DWIDTH 17 0
BBX 16 14 1 -4
BITMAP
EF78
718C
610C
610C
610C
610C
610C
610C
618C
F7DF
0000
0000
0380
0180
ENDCHAR
STARTCHAR uni1E44
ENCODING 7748
SWIDTH 742 0
DWIDTH 15 0
BBX 13 17 1 0
BITMAP
0700
0200
0000
E078
7030
7830
5C20
4C20
4E20
4720
4320
41A0
41E0
40E0
4060
6020
F020
ENDCHAR
STARTCHAR uni1E45
ENCODING 7749
SWIDTH 576 0
DWIDTH 12 0
BBX 10 14 1 0
BITMAP
0C00
0C00
0000
0000
EF00
7100
6180
6180
6180
6180
6180
6180
6180
F7C0
ENDCHAR
STARTCHAR uni1E46
ENCODING 7750
SWIDTH 742 0
DWIDTH 15 0
BBX 13 18 1 -4
BITMAP
E078
7030
7830
5C20
4C20
4E20
4720
4320
41A0
41E0
40E0
4060
6020
F020
0000
0000
0600
0600
ENDCHAR
STARTCHAR uni1E47
ENCODING 7751
SWIDTH 576 0
DWIDTH 12 0
BBX 10 14 1 -4
BITMAP
EF00
7100
6180
6180
6180
6180
6180
6180
6180
F7C0
0000
0000
0C00
0C00
ENDCHAR
STARTCHAR uni1E48
ENCODING 7752
SWIDTH 742 0
DWIDTH 15 0
BBX 13 17 1 -3
BITMAP
E078
7030
7830
5C20
4C20
4E20
4720
4320
41A0
41E0
40E0
4060
6020
F020
0000
0000
1F80
ENDCHAR
STARTCHAR uni1E49
ENCODING 7753
SWIDTH 576 0
DWIDTH 12 0
BBX 10 13 1 -3
BITMAP
EF00
7100
6180
6180
6180
6180
6180
6180
6180
F7C0
0000
0000
3F00
ENDCHAR
STARTCHAR uni1E4A
ENCODING 7754
SWIDTH 742 0
DWIDTH 15 0
BBX 13 18 1 -4
BITMAP
E078
7030
7830
5C20
4C20
4E20
4720
4320
41A0
41E0
40E0
4060
6020
F020
0000
0600
0D00
1880
ENDCHAR
STARTCHAR uni1E4B
ENCODING 7755
SWIDTH 576 0
DWIDTH 12 0
BBX 10 14 1 -4
BITMAP
EF00
7100
6180
6180
6180
6180
6180
6180
6180
F7C0
0000
0C00
1600
2300
ENDCHAR
STARTCHAR uni1E4C
ENCODING 7756
SWIDTH 738 0
DWIDTH 15 0
BBX 13 20 1 0
BITMAP
0180
0300
0400
0E40
1380
0000
0F80
3060
6030
6030
C030
C018
C018
C018
C018
C030
6030
6020
3060
0F80
ENDCHAR
STARTCHAR uni1E4D
ENCODING 7757
SWIDTH 514 0
DWIDTH 10 0
BBX 9 17 1 0
BITMAP
0C00
0800
1000
0000
3900
4E00
0000
3C00
4300
C300
C100
C180
C180
C100
C300
6300
3C00
ENDCHAR
STARTCHAR uni1E4E
ENCODING 7758
SWIDTH 738 0
DWIDTH 15 0
BBX 13 19 1 0
BITMAP
19C0
18C0
0E40
1380
0000
0F80
3060
6030
6030
C030
C018
C018
C018
C018
C030
6030
6020
3060
0F80
ENDCHAR
STARTCHAR uni1E4F
ENCODING 7759
SWIDTH 514 0
DWIDTH 10 0
BBX 9 17 1 0
BITMAP
6700
6600
0000
0000
3900
4E00
0000
3C00
4300
C300
C100
C180
C180
C100
C300
6300
3C00
ENDCHAR
STARTCHAR uni1E50
ENCODING 7760
SWIDTH 738 0
DWIDTH 15 0
BBX 13 19 1 0
BITMAP
0C00
0600
0100
1F80
0000
0F80
3060
6030
6030
C030
C018
C018
C018
C018
C030
6030
6020
3060
0F80
ENDCHAR
STARTCHAR uni1E51
ENCODING 7761
SWIDTH 514 0
DWIDTH 10 0
BBX 9 17 1 0
BITMAP
3000
1800
0800
0000
7E00
0000
0000
3C00
4300
C300
C100
C180
C180
C100
C300
6300
3C00
ENDCHAR
STARTCHAR uni1E52
ENCODING 7762
SWIDTH 738 0
DWIDTH 15 0
BBX 13 19 1 0
BITMAP
0180
0300
0400
1F80
0000
0F80
3060
6030
6030
C030
C018
C018
C018
C018
C030
6030
6020
3060
0F80
ENDCHAR
STARTCHAR uni1E53
ENCODING 7763
SWIDTH 514 0
DWIDTH 10 0
BBX 9 17 1 0
BITMAP
0C00
0800
1000
0000
7E00
0000
0000
3C00
4300
C300
C100
C180
C180
C100
C300
6300
3C00
ENDCHAR
STARTCHAR uni1E54
ENCODING 7764
SWIDTH 569 0
DWIDTH 11 0
BBX 10 17 1 0
BITMAP
0600
0C00
1800
FF00
3180
30C0
30C0
30C0
3080
3180
3E00
3000
3000
3000
3000
3000
FC00
ENDCHAR
STARTCHAR uni1E55
ENCODING 7765
SWIDTH 537 0
DWIDTH 11 0
BBX 10 19 0 -5
BITMAP
0700
0600
0C00
0000
F700
3980
30C0
30C0
30C0
30C0
30C0
3080
3180
3F00
3000
3000
3000
3000
FC00
ENDCHAR
STARTCHAR uni1E56
ENCODING 7766
SWIDTH 569 0
DWIDTH 11 0
BBX 10 17 1 0
BITMAP
0C00
0C00
0000
FF00
3180
30C0
30C0
30C0
3080
3180
3E00
3000
3000
3000
3000
3000
FC00
ENDCHAR
STARTCHAR uni1E57
ENCODING 7767
SWIDTH 537 0
DWIDTH 11 0
BBX 10 19 0 -5
BITMAP
0E00
0C00
0000
0000
F700
3980
30C0
30C0
30C0
30C0
30C0
3080
3180
3F00
3000
3000
3000
3000
FC00
ENDCHAR
STARTCHAR uni1E58
ENCODING 7768
SWIDTH 659 0
DWIDTH 13 0
BBX 12 17 1 0
BITMAP
0C00
0C00
0000
FF00
3180
30C0
30C0
30C0
30C0
3180
3E00
3600
3300
3180
31C0
30C0
F870
ENDCHAR
STARTCHAR uni1E59
ENCODING 7769
SWIDTH 380 0
DWIDTH 8 0
BBX 6 14 1 0
BITMAP
30
30
00
00
EC
7C
60
60
60
60
60
60
60
F8
ENDCHAR
STARTCHAR uni1E5A
ENCODING 7770
SWIDTH 659 0
DWIDTH 13 0
BBX 12 18 1 -4
BITMAP
FF00
3180
30C0
30C0
30C0
30C0
3180
3E00
3600
3300
3180
31C0
30C0
F870
0000
0000
0E00
0600
ENDCHAR
STARTCHAR uni1E5B
ENCODING 7771
SWIDTH 380 0
DWIDTH 8 0
BBX 6 14 1 -4
BITMAP
EC
7C
60
60
60
60
60
60
60
F8
00
00
60
60
ENDCHAR
STARTCHAR uni1E5C
ENCODING 7772
SWIDTH 659 0
DWIDTH 13 0
BBX 12 20 1 -4
BITMAP
3F00
0000
FF00
3180
30C0
30C0
30C0
30C0
3180
3E00
3600
3300
3180
31C0
30C0
F870
0000
0000
0E00
0600
ENDCHAR
STARTCHAR uni1E5D
ENCODING 7773
SWIDTH 380 0
DWIDTH 8 0
BBX 6 17 1 -4
BITMAP
FC
00
00
EC
7C
60
60
60
60
60
60
60
F8
00
00
60
60
ENDCHAR
STARTCHAR uni1E5E
ENCODING 7774
SWIDTH 659 0
DWIDTH 13 0
BBX 12 17 1 -3
BITMAP
FF00
3180
30C0
30C0
30C0
30C0
3180
3E00
3600
3300
3180
31C0
30C0
F870
0000
0000
1F80
ENDCHAR
STARTCHAR uni1E5F
ENCODING 7775
SWIDTH 380 0
DWIDTH 8 0
BBX 7 13 0 -3
BITMAP
76
3E
30
30
30
30
30
30
30
7C
00
00
FC
ENDCHAR
STARTCHAR uni1E60
ENCODING 7776
SWIDTH 504 0
DWIDTH 10 0
BBX 8 17 1 0
BITMAP
18
18
00
3F
43
C1
C1
E0
70
3C
1E
07
03
83
83
C3
FE
ENDCHAR
STARTCHAR uni1E61
ENCODING 7777
SWIDTH 394 0
DWIDTH 8 0
BBX 6 14 1 0
BITMAP
30
30
00
00
7C
84
84
C0
70
3C
0C
84
84
F8
ENDCHAR
STARTCHAR uni1E62
ENCODING 7778
SWIDTH 504 0
DWIDTH 10 0
BBX 8 18 1 -4
BITMAP
3F
43
C1
C1
E0
70
3C
1E
07
03
83
83
C3
FE
00
00
18
18
ENDCHAR
STARTCHAR uni1E63
ENCODING 7779
SWIDTH 394 0
DWIDTH 8 0
BBX 6 14 1 -4
BITMAP
7C
84
84
C0
70
3C
0C
84
84
F8
00
00
30
30
ENDCHAR
STARTCHAR uni1E64
ENCODING 7780
SWIDTH 504 0
DWIDTH 10 0
BBX 8 18 1 0
BITMAP
30
26
0C
08
3F
43
C1
C1
E0
70
3C
1E
07
03
83
83
C3
FE
ENDCHAR
STARTCHAR uni1E65
ENCODING 7781
SWIDTH 394 0
DWIDTH 8 0
BBX 6 16 1 0
BITMAP
40
60
58
10
20
00
7C
84
84
C0
70
3C
0C
84
84
F8
ENDCHAR
STARTCHAR uni1E66
ENCODING 7782
SWIDTH 504 0
DWIDTH 10 0
BBX 8 19 1 0
BITMAP
18
18
62
3C
18
3F
43
C1
C1
E0
70
3C
1E
07
03
83
83
C3
FE
ENDCHAR
STARTCHAR uni1E67
ENCODING 7783
SWIDTH 394 0
DWIDTH 8 0
BBX 6 17 1 0
BITMAP
20
30
20
8C
78
30
00
7C
84
84
C0
70
3C
0C
84
84
F8
ENDCHAR
STARTCHAR uni1E68
ENCODING 7784
SWIDTH 504 0
DWIDTH 10 0
BBX 8 21 1 -4
BITMAP
18
18
00
3F
43
C1
C1
E0
70
3C
1E
07
03
83
83
C3
FE
00
00
18
18
ENDCHAR
STARTCHAR uni1E69
ENCODING 7785
SWIDTH 394 0
DWIDTH 8 0
BBX 6 18 1 -4
BITMAP
30
30
00
00
7C
84
84
C0
70
3C
0C
84
84
F8
00
00
30
30
ENDCHAR
STARTCHAR uni1E6A
ENCODING 7786
SWIDTH 603 0
DWIDTH 12 0
BBX 12 17 0 0
BITMAP
0600
0600
0000
FFF0
C630
8610
8610
0600
0600
0600
0600
0600
0600
0600
0600
0600
1F80
ENDCHAR
STARTCHAR uni1E6B
ENCODING 7787
SWIDTH 315 0
DWIDTH 6 0
BBX 5 16 1 0
BITMAP
60
60
00
20
60
60
F8
60
60
60
60
60
60
60
68
70
ENDCHAR
STARTCHAR uni1E6C
ENCODING 7788
SWIDTH 603 0
DWIDTH 12 0
BBX 12 18 0 -4
BITMAP
FFF0
C630
8610
8610
0600
0600
0600
0600
0600
0600
0600
0600
0600
1F80
0000
0000
0600
0600
ENDCHAR
STARTCHAR uni1E6D
ENCODING 7789
SWIDTH 315 0
DWIDTH 6 0
BBX 5 17 1 -4
BITMAP
20
60
60
F8
60
60
60
60
60
60
60
68
70
00
00
30
30
ENDCHAR
STARTCHAR uni1E6E
ENCODING 7790
SWIDTH 603 0
DWIDTH 12 0
BBX 12 17 0 -3
BITMAP
FFF0
C630
8610
8610
0600
0600
0600
0600
0600
0600
0600
0600
0600
1F80
0000
0000
1F80
ENDCHAR
STARTCHAR uni1E6F
ENCODING 7791
SWIDTH 315 0
DWIDTH 6 0
BBX 6 16 1 -3
BITMAP
20
60
60
F8
60
60
60
60
60
60
60
68
70
00
00
FC
ENDCHAR
STARTCHAR uni1E70
ENCODING 7792
SWIDTH 603 0
DWIDTH 12 0
BBX 12 18 0 -4
BITMAP
FFF0
C630
8610
8610
0600
0600
0600
0600
0600
0600
0600
0600
0600
1F80
0000
0600
0F00
1880
ENDCHAR
STARTCHAR uni1E71
ENCODING 7793
SWIDTH 315 0
DWIDTH 6 0
BBX 6 17 1 -4
BITMAP
20
60
60
F8
60
60
60
60
60
60
60
68
70
00
30
50
8C
ENDCHAR
STARTCHAR uni1E72
ENCODING 7794
SWIDTH 752 0
DWIDTH 15 0
BBX 15 18 0 -4
BITMAP
FC3E
3018
3008
3008
3008
3008
3008
3008
3008
3008
1008
1810
1830
07C0
0000
0000
0E60
0C60
ENDCHAR
STARTCHAR uni1E73
ENCODING 7795
SWIDTH 570 0
DWIDTH 11 0
BBX 11 14 0 -4
BITMAP
E380
2080
2080
2080
2080
2080
2080
3080
3180
1EE0
0000
0000
3180
3180
ENDCHAR
STARTCHAR uni1E74
ENCODING 7796
SWIDTH 752 0
DWIDTH 15 0
BBX 15 17 0 -3
BITMAP
FC3E
3018
3008
3008
3008
3008
3008
3008
3008
3008
1008
1810
1830
07C0
0000
0720
09C0
ENDCHAR
STARTCHAR uni1E75
ENCODING 7797
SWIDTH 570 0
DWIDTH 11 0
BBX 11 13 0 -3
BITMAP
E380
2080
2080
2080
2080
2080
2080
3080
3180
1EE0
0000
1C80
2700
ENDCHAR
STARTCHAR uni1E76
ENCODING 7798
SWIDTH 752 0
DWIDTH 15 0
BBX 15 18 0 -4
BITMAP
FC3E
3018
3008
3008
3008
3008
3008
3008
3008
3008
1008
1810
1830
07C0
0000
0180
0280
0440
ENDCHAR
STARTCHAR uni1E77
ENCODING 7799
SWIDTH 570 0
DWIDTH 11 0
BBX 11 14 0 -4
BITMAP
E380
2080
2080
2080
2080
2080
2080
3080
3180
1EE0
0000
0E00
0A00
1100
ENDCHAR
STARTCHAR uni1E78
ENCODING 7800
SWIDTH 752 0
DWIDTH 15 0
BBX 15 20 0 0
BITMAP
00C0
0180
0300
0320
04E0
0000
FC3E
3018
3008
3008
3008
3008
3008
3008
3008
3008
1008
1810
1830
07C0
ENDCHAR
STARTCHAR uni1E79
ENCODING 7801
SWIDTH 570 0
DWIDTH 11 0
BBX 11 17 0 0
BITMAP
0300
0600
0C00
0000
1C80
2300
0000
E380
2080
2080
2080
2080
2080
2080
3080
3180
1EE0
ENDCHAR
STARTCHAR uni1E7A
ENCODING 7802
SWIDTH 752 0
DWIDTH 15 0
BBX 15 19 0 0
BITMAP
0660
0660
0000
07E0
0000
FC3E
3018
3008
3008
3008
3008
3008
3008
3008
3008
1008
1810
1830
07C0
ENDCHAR
STARTCHAR uni1E7B
ENCODING 7803
SWIDTH 570 0
DWIDTH 11 0
BBX 11 16 0 0
BITMAP
3180
3180
0000
1F00
0000
0000
E380
2080
2080
2080
2080
2080
2080
3080
3180
1EE0
ENDCHAR
STARTCHAR uni1E7C
ENCODING 7804
SWIDTH 680 0
DWIDTH 14 0
BBX 14 17 0 0
BITMAP
0640
0980
0000
F83C
7010
3010
3020
1820
1820
1C40
0C40
0C80
0680
0680
0700
0300
0200
ENDCHAR
STARTCHAR uni1E7D
ENCODING 7805
SWIDTH 481 0
DWIDTH 10 0
BBX 10 13 0 0
BITMAP
1900
2700
0000
F3C0
6080
6100
3100
3100
1200
1A00
1C00
0C00
0800
ENDCHAR
STARTCHAR uni1E7E
ENCODING 7806
SWIDTH 680 0
DWIDTH 14 0
BBX 14 18 0 -4
BITMAP
F83C
7010
3010
3020
1820
1820
1C40
0C40
0C80
0680
0680
0700
0300
0200
0000
0000
0300
0300
ENDCHAR
STARTCHAR uni1E7F
ENCODING 7807
SWIDTH 481 0
DWIDTH 10 0
BBX 10 14 0 -4
BITMAP
F3C0
6080
6100
3100
3100
1200
1A00
1C00
0C00
0800
0000
0000
0C00
0C00
ENDCHAR
STARTCHAR Wgrave
ENCODING 7808
SWIDTH 944 0
DWIDTH 19 0
BBX 19 17 0 0
BITMAP
018000
00C000
006000
F9F1E0
70C080
306080
306080
186100
187100
18B100
0CB200
0C9A00
0D1A00
071C00
070C00
020C00
020400
ENDCHAR
STARTCHAR wgrave
ENCODING 7809
SWIDTH 749 0
DWIDTH 15 0
BBX 15 14 0 0
BITMAP
0600
0300
0180
0000
F7CE
6184
6184
3188
31C8
12C8
1A50
1C70
0C60
0820
ENDCHAR
STARTCHAR Wacute
ENCODING 7810
SWIDTH 944 0
DWIDTH 19 0
BBX 19 17 0 0
BITMAP
006000
004000
008000
F9F1E0
70C080
306080
306080
186100
187100
18B100
0CB200
0C9A00
0D1A00
071C00
070C00
020C00
020400
ENDCHAR
STARTCHAR wacute
ENCODING 7811
SWIDTH 749 0
DWIDTH 15 0
BBX 15 14 0 0
BITMAP
00C0
0180
0300
0000
F7CE
6184
6184
3188
31C8
12C8
1A50
1C70
0C60
0820
ENDCHAR
STARTCHAR Wdieresis
ENCODING 7812
SWIDTH 944 0
DWIDTH 19 0
BBX 19 17 0 0
BITMAP
033800
033000
000000
F9F1E0
70C080
306080
306080
186100
187100
18B100
0CB200
0C9A00
0D1A00
071C00
070C00
020C00
020400
ENDCHAR
STARTCHAR wdieresis
ENCODING 7813
SWIDTH 749 0
DWIDTH 15 0
BBX 15 14 0 0
BITMAP
0C60
0C60
0000
0000
F7CE
6184
6184
3188
31C8
12C8
1A50
1C70
0C60
0820
ENDCHAR
STARTCHAR uni1E86
ENCODING 7814
SWIDTH 944 0
DWIDTH 19 0
BBX 19 17 0 0
BITMAP
00C000
00C000
000000
F9F1E0
70C080
306080
306080
186100
187100
18B100
0CB200
0C9A00
0D1A00
071C00
070C00
020C00
020400
ENDCHAR
STARTCHAR uni1E87
ENCODING 7815
SWIDTH 749 0
DWIDTH 15 0
BBX 15 14 0 0
BITMAP
0380
0100
0000
0000
F7CE
6184
6184
3188
31C8
12C8
1A50
1C70
0C60
0820
ENDCHAR
STARTCHAR uni1E88
ENCODING 7816
SWIDTH 944 0
DWIDTH 19 0
BBX 19 18 0 -4
BITMAP
F9F1E0
70C080
306080
306080
186100
187100
18B100
0CB200
0C9A00
0D1A00
071C00
070C00
020C00
020400
000000
000000
00E000
006000
ENDCHAR
STARTCHAR uni1E89
ENCODING 7817
SWIDTH 749 0
DWIDTH 15 0
BBX 15 14 0 -4
BITMAP
F7CE
6184
6184
3188
31C8
12C8
1A50
1C70
0C60
0820
0000
0000
0380
0100
ENDCHAR
STARTCHAR uni1E8A
ENCODING 7818
SWIDTH 664 0
DWIDTH 13 0
BBX 13 17 0 0
BITMAP
0300
0300
0000
FCF8
3820
1840
1CC0
0C80
0700
0700
0700
0580
0980
10C0
3060
2070
F0F8
ENDCHAR
STARTCHAR uni1E8B
ENCODING 7819
SWIDTH 479 0
DWIDTH 10 0
BBX 10 14 0 0
BITMAP
0C00
0C00
0000
0000
FB80
3100
3200
1C00
0C00
0C00
1600
2300
6300
E7C0
ENDCHAR
STARTCHAR uni1E8C
ENCODING 7820
SWIDTH 664 0
DWIDTH 13 0
BBX 13 17 0 0
BITMAP
1CC0
0CC0
0000
FCF8
3820
1840
1CC0
0C80
0700
0700
0700
0580
0980
10C0
3060
2070
F0F8
ENDCHAR
STARTCHAR uni1E8D
ENCODING 7821
SWIDTH 479 0
DWIDTH 10 0
BBX 10 14 0 0
BITMAP
3300
3300
0000
0000
FB80
3100
3200
1C00
0C00
0C00
1600
2300
6300
E7C0
ENDCHAR
STARTCHAR uni1E8E
ENCODING 7822
SWIDTH 647 0
DWIDTH 13 0
BBX 13 17 0 0
BITMAP
0300
0300
0000
F878
7020
3020
1840
1C80
0C80
0700
0700
0200
0200
0200
0200
0700
0FC0
ENDCHAR
STARTCHAR uni1E8F
ENCODING 7823
SWIDTH 483 0
DWIDTH 10 0
BBX 10 19 0 -5
BITMAP
0C00
0C00
0000
0000
F3C0
6080
6100
3100
3100
1A00
1A00
0A00
0C00
0C00
0800
0800
0800
F000
E000
ENDCHAR
STARTCHAR uni1E90
ENCODING 7824
SWIDTH 594 0
DWIDTH 12 0
BBX 10 17 1 0
BITMAP
0C00
1A00
1100
FFC0
C1C0
8180
8300
0700
0600
0C00
1C00
1800
3000
7040
6040
E040
FFC0
ENDCHAR
STARTCHAR uni1E91
ENCODING 7825
SWIDTH 458 0
DWIDTH 9 0
BBX 8 14 1 0
BITMAP
18
2C
46
00
FE
86
8C
0C
18
30
30
61
C2
FE
ENDCHAR
STARTCHAR uni1E92
ENCODING 7826
SWIDTH 594 0
DWIDTH 12 0
BBX 10 18 1 -4
BITMAP
FFC0
C1C0
8180
8300
0700
0600
0C00
1C00
1800
3000
7040
6040
E040
FFC0
0000
0000
0C00
0C00
ENDCHAR
STARTCHAR uni1E93
ENCODING 7827
SWIDTH 458 0
DWIDTH 9 0
BBX 8 14 1 -4
BITMAP
FE
86
8C
0C
18
30
30
61
C2
FE
00
00
38
18
ENDCHAR
STARTCHAR uni1E94
ENCODING 7828
SWIDTH 594 0
DWIDTH 12 0
BBX 10 17 1 -3
BITMAP
FFC0
C1C0
8180
8300
0700
0600
0C00
1C00
1800
3000
7040
6040
E040
FFC0
0000
0000
3F00
ENDCHAR
STARTCHAR uni1E95
ENCODING 7829
SWIDTH 458 0
DWIDTH 9 0
BBX 8 13 1 -3
BITMAP
FE
86
8C
0C
18
30
30
61
C2
FE
00
00
7E
ENDCHAR
STARTCHAR uni1E96
ENCODING 7830
SWIDTH 577 0
DWIDTH 12 0
BBX 11 17 0 -3
BITMAP
F000
3000
3000
3000
3780
3880
30C0
30C0
30C0
30C0
30C0
30C0
30C0
79E0
0000
0000
1F80
ENDCHAR
STARTCHAR uni1E97
ENCODING 7831
SWIDTH 315 0
DWIDTH 6 0
BBX 7 16 0 0
BITMAP
CE
CC
00
10
30
30
7C
30
30
30
30
30
30
30
34
38
ENDCHAR
STARTCHAR uni1E98
ENCODING 7832
SWIDTH 749 0
DWIDTH 15 0
BBX 15 15 0 0
BITMAP
0380
0480
0440
0380
0000
F7CE
6184
6184
3188
31C8
12C8
1A50
1C70
0C60
0820
ENDCHAR
STARTCHAR uni1E99
ENCODING 7833
SWIDTH 483 0
DWIDTH 10 0
BBX 10 20 0 -5
BITMAP
0C00
1200
1200
0C00
0000
F3C0
6080
6100
3100
3100
1A00
1A00
0A00
0C00
0C00
0800
0800
0800
F000
E000
ENDCHAR
STARTCHAR uni1E9A
ENCODING 7834
SWIDTH 480 0
DWIDTH 10 0
BBX 9 15 1 0
BITMAP
3000
0800
0800
3000
0000
3C00
C400
C600
0600
0E00
7600
C600
C600
CE00
7780
ENDCHAR
STARTCHAR uni1E9B
ENCODING 7835
SWIDTH 285 0
DWIDTH 6 0
BBX 8 18 0 0
BITMAP
30
30
00
0E
13
30
30
30
70
30
30
30
30
30
30
30
30
FC
ENDCHAR
STARTCHAR uni1E9C
ENCODING 7836
SWIDTH 300 0
DWIDTH 6 0
BBX 8 15 0 0
BITMAP
0E
13
30
30
30
70
3C
30
30
F0
30
30
30
30
7C
ENDCHAR
STARTCHAR uni1E9D
ENCODING 7837
SWIDTH 285 0
DWIDTH 6 0
BBX 8 15 0 0
BITMAP
0E
13
32
7C
30
70
30
30
30
30
30
30
30
30
FC
ENDCHAR
STARTCHAR uni1E9E
ENCODING 7838
SWIDTH 684 0
DWIDTH 14 0
BBX 13 14 0 0
BITMAP
07F0
0C30
1860
1060
30C0
3180
31E0
3030
3018
3018
3018
3218
3630
F3E0
ENDCHAR
STARTCHAR uni1E9F
ENCODING 7839
SWIDTH 517 0
DWIDTH 10 0
BBX 9 15 1 0
BITMAP
1E00
6300
6200
6000
3800
1C00
3600
4300
C300
C180
C180
C180
C100
6300
3C00
ENDCHAR
STARTCHAR uni1EA0
ENCODING 7840
SWIDTH 718 0
DWIDTH 14 0
BBX 14 18 0 -4
BITMAP
0300
0300
0380
0580
0580
0CC0
08C0
08E0
1860
1FE0
3070
2030
6038
F07C
0000
0000
0300
0300
ENDCHAR
STARTCHAR uni1EA1
ENCODING 7841
SWIDTH 480 0
DWIDTH 10 0
BBX 9 14 1 -4
BITMAP
3C00
C400
C600
0600
0E00
7600
C600
C600
CE00
7780
0000
0000
3800
1800
ENDCHAR
STARTCHAR uni1EA2
ENCODING 7842
SWIDTH 718 0
DWIDTH 14 0
BBX 14 18 0 0
BITMAP
0380
0680
0080
0100
0300
0300
0380
0580
0580
0CC0
08C0
08E0
1860
1FE0
3070
2030
6038
F07C
ENDCHAR
STARTCHAR uni1EA3
ENCODING 7843
SWIDTH 480 0
DWIDTH 10 0
BBX 9 16 1 0
BITMAP
1800
2C00
0C00
0800
1000
0000
3C00
C400
C600
0600
0E00
7600
C600
C600
CE00
7780
ENDCHAR
STARTCHAR uni1EA4
ENCODING 7844
SWIDTH 718 0
DWIDTH 14 0
BBX 14 18 0 0
BITMAP
0018
0320
07C0
0C40
0300
0300
0380
0580
0580
0CC0
08C0
08E0
1860
1FE0
3070
2030
6038
F07C
ENDCHAR
STARTCHAR uni1EA5
ENCODING 7845
SWIDTH 480 0
DWIDTH 10 0
BBX 9 16 1 0
BITMAP
0100
0300
1A00
2C00
4400
0000
3C00
C400
C600
0600
0E00
7600
C600
C600
CE00
7780
ENDCHAR
STARTCHAR uni1EA6
ENCODING 7846
SWIDTH 718 0
DWIDTH 14 0
BBX 14 18 0 0
BITMAP
00C0
0360
0790
0C40
0300
0300
0380
0580
0580
0CC0
08C0
08E0
1860
1FE0
3070
2030
6038
F07C
ENDCHAR
STARTCHAR uni1EA7
ENCODING 7847
SWIDTH 480 0
DWIDTH 10 0
BBX 9 16 1 0
BITMAP
0C00
0400
1A00
2800
4400
0000
3C00
C400
C600
0600
0E00
7600
C600
C600
CE00
7780
ENDCHAR
STARTCHAR uni1EA8
ENCODING 7848
SWIDTH 718 0
DWIDTH 14 0
BBX 14 20 0 0
BITMAP
00E0
00B0
0020
0340
0480
0840
0300
0300
0380
0580
0580
0CC0
08C0
08E0
1860
1FE0
3070
2030
6038
F07C
ENDCHAR
STARTCHAR uni1EA9
ENCODING 7849
SWIDTH 480 0
DWIDTH 10 0
BBX 9 18 1 0
BITMAP
0600
0D00
0100
0300
1C00
2800
4400
0000
3C00
C400
C600
0600
0E00
7600
C600
C600
CE00
7780
ENDCHAR
STARTCHAR uni1EAA
ENCODING 7850
SWIDTH 718 0
DWIDTH 14 0
BBX 14 19 0 0
BITMAP
0640
09C0
0300
0780
0C40
0300
0300
0380
0580
0580
0CC0
08C0
08E0
1860
1FE0
3070
2030
6038
F07C
ENDCHAR
STARTCHAR uni1EAB
ENCODING 7851
SWIDTH 480 0
DWIDTH 10 0
BBX 9 17 1 0
BITMAP
7200
8C00
0000
1800
2800
4400
0000
3C00
C400
C600
0600
0E00
7600
C600
C600
CE00
7780
ENDCHAR
STARTCHAR uni1EAC
ENCODING 7852
SWIDTH 718 0
DWIDTH 14 0
BBX 14 21 0 -4
BITMAP
0300
0780
0C40
0300
0300
0380
0580
0580
0CC0
08C0
08E0
1860
1FE0
3070
2030
6038
F07C
0000
0000
0300
0300
ENDCHAR
STARTCHAR uni1EAD
ENCODING 7853
SWIDTH 480 0
DWIDTH 10 0
BBX 9 18 1 -4
BITMAP
1800
2800
4400
0000
3C00
C400
C600
0600
0E00
7600
C600
C600
CE00
7780
0000
0000
3800
1800
ENDCHAR
STARTCHAR uni1EAE
ENCODING 7854
SWIDTH 718 0
DWIDTH 14 0
BBX 14 19 0 0
BITMAP
0180
0B40
0840
0780
0000
0300
0300
0380
0580
0580
0CC0
08C0
08E0
1860
1FE0
3070
2030
6038
F07C
ENDCHAR
STARTCHAR uni1EAF
ENCODING 7855
SWIDTH 480 0
DWIDTH 10 0
BBX 9 16 1 0
BITMAP
0C00
1800
5200
4400
3C00
0000
3C00
C400
C600
0600
0E00
7600
C600
C600
CE00
7780
ENDCHAR
STARTCHAR uni1EB0
ENCODING 7856
SWIDTH 718 0
DWIDTH 14 0
BBX 14 19 0 0
BITMAP
0600
0B40
0840
0780
0000
0300
0300
0380
0580
0580
0CC0
08C0
08E0
1860
1FE0
3070
2030
6038
F07C
ENDCHAR
STARTCHAR uni1EB1
ENCODING 7857
SWIDTH 480 0
DWIDTH 10 0
BBX 9 16 1 0
BITMAP
2000
3000
5200
4C00
3C00
0000
3C00
C400
C600
0600
0E00
7600
C600
C600
CE00
7780
ENDCHAR
STARTCHAR uni1EB2
ENCODING 7858
SWIDTH 718 0
DWIDTH 14 0
BBX 14 21 0 0
BITMAP
0380
0480
0080
0B40
0840
0780
0000
0300
0300
0380
0580
0580
0CC0
08C0
08E0
1860
1FE0
3070
2030
6038
F07C
ENDCHAR
STARTCHAR uni1EB3
ENCODING 7859
SWIDTH 480 0
DWIDTH 10 0
BBX 9 17 1 0
BITMAP
3800
2C00
0800
5200
4400
3800
0000
3C00
C400
C600
0600
0E00
7600
C600
C600
CE00
7780
ENDCHAR
STARTCHAR uni1EB4
ENCODING 7860
SWIDTH 718 0
DWIDTH 14 0
BBX 14 20 0 0
BITMAP
0FC0
0000
0840
0440
0380
0000
0300
0300
0380
0580
0580
0CC0
08C0
08E0
1860
1FE0
3070
2030
6038
F07C
ENDCHAR
STARTCHAR uni1EB5
ENCODING 7861
SWIDTH 480 0
DWIDTH 10 0
BBX 9 17 1 0
BITMAP
7200
8C00
0000
4200
4400
3800
0000
3C00
C400
C600
0600
0E00
7600
C600
C600
CE00
7780
ENDCHAR
STARTCHAR uni1EB6
ENCODING 7862
SWIDTH 718 0
DWIDTH 14 0
BBX 14 22 0 -4
BITMAP
0840
0840
0780
0000
0300
0300
0380
0580
0580
0CC0
08C0
08E0
1860
1FE0
3070
2030
6038
F07C
0000
0000
0300
0300
ENDCHAR
STARTCHAR uni1EB7
ENCODING 7863
SWIDTH 480 0
DWIDTH 10 0
BBX 9 18 1 -4
BITMAP
4200
4400
3800
0000
3C00
C400
C600
0600
0E00
7600
C600
C600
CE00
7780
0000
0000
3800
1800
ENDCHAR
STARTCHAR uni1EB8
ENCODING 7864
SWIDTH 626 0
DWIDTH 13 0
BBX 11 18 1 -4
BITMAP
FFC0
3040
3040
3000
3080
3080
3080
3F80
3080
3000
3020
3020
3060
FFC0
0000
0000
0E00
0C00
ENDCHAR
STARTCHAR uni1EB9
ENCODING 7865
SWIDTH 464 0
DWIDTH 9 0
BBX 8 14 1 -4
BITMAP
3C
46
82
FF
80
80
C1
E2
7E
3C
00
00
18
18
ENDCHAR
STARTCHAR uni1EBA
ENCODING 7866
SWIDTH 626 0
DWIDTH 13 0
BBX 11 18 1 0
BITMAP
0E00
0A00
0200
0400
FFC0
3040
3040
3000
3080
3080
3080
3F80
3080
3000
3020
3020
3060
FFC0
ENDCHAR
STARTCHAR uni1EBB
ENCODING 7867
SWIDTH 464 0
DWIDTH 9 0
BBX 8 16 1 0
BITMAP
18
24
04
0C
10
00
3C
46
82
FF
80
80
C1
E2
7E
3C
ENDCHAR
STARTCHAR uni1EBC
ENCODING 7868
SWIDTH 626 0
DWIDTH 13 0
BBX 11 17 1 0
BITMAP
1C80
2700
0000
FFC0
3040
3040
3000
3080
3080
3080
3F80
3080
3000
3020
3020
3060
FFC0
ENDCHAR
STARTCHAR uni1EBD
ENCODING 7869
SWIDTH 464 0
DWIDTH 9 0
BBX 8 13 1 0
BITMAP
32
4C
00
3C
46
82
FF
80
80
C1
E2
7E
3C
ENDCHAR
STARTCHAR uni1EBE
ENCODING 7870
SWIDTH 626 0
DWIDTH 13 0
BBX 11 18 1 0
BITMAP
0060
0EC0
0B00
1100
FFC0
3040
3040
3000
3080
3080
3080
3F80
3080
3000
3020
3020
3060
FFC0
ENDCHAR
STARTCHAR uni1EBF
ENCODING 7871
SWIDTH 464 0
DWIDTH 9 0
BBX 9 16 1 0
BITMAP
0180
0300
1A00
2C00
4600
0000
3C00
4600
8200
FF00
8000
8000
C100
E200
7E00
3C00
ENDCHAR
STARTCHAR uni1EC0
ENCODING 7872
SWIDTH 626 0
DWIDTH 13 0
BBX 11 18 1 0
BITMAP
0300
0C80
0A40
1100
FFC0
3040
3040
3000
3080
3080
3080
3F80
3080
3000
3020
3020
3060
FFC0
ENDCHAR
STARTCHAR uni1EC1
ENCODING 7873
SWIDTH 464 0
DWIDTH 9 0
BBX 8 16 1 0
BITMAP
0C
06
1A
2C
46
00
3C
46
82
FF
80
80
C1
E2
7E
3C
ENDCHAR
STARTCHAR uni1EC2
ENCODING 7874
SWIDTH 626 0
DWIDTH 13 0
BBX 11 20 1 0
BITMAP
0180
0240
0040
0F80
1300
2000
FFC0
3040
3040
3000
3080
3080
3080
3F80
3080
3000
3020
3020
3060
FFC0
ENDCHAR
STARTCHAR uni1EC3
ENCODING 7875
SWIDTH 464 0
DWIDTH 9 0
BBX 8 18 1 0
BITMAP
07
05
01
01
1A
24
42
00
3C
46
82
FF
80
80
C1
E2
7E
3C
ENDCHAR
STARTCHAR uni1EC4
ENCODING 7876
SWIDTH 626 0
DWIDTH 13 0
BBX 11 19 1 0
BITMAP
1C80
2700
0400
0E00
1100
FFC0
3040
3040
3000
3080
3080
3080
3F80
3080
3000
3020
3020
3060
FFC0
ENDCHAR
STARTCHAR uni1EC5
ENCODING 7877
SWIDTH 464 0
DWIDTH 9 0
BBX 8 17 1 0
BITMAP
72
4C
00
18
2C
46
00
3C
46
82
FF
80
80
C1
E2
7E
3C
ENDCHAR
STARTCHAR uni1EC6
ENCODING 7878
SWIDTH 626 0
DWIDTH 13 0
BBX 11 21 1 -4
BITMAP
0E00
0A00
1100
FFC0
3040
3040
3000
3080
3080
3080
3F80
3080
3000
3020
3020
3060
FFC0
0000
0000
0E00
0C00
ENDCHAR
STARTCHAR uni1EC7
ENCODING 7879
SWIDTH 464 0
DWIDTH 9 0
BBX 8 18 1 -4
BITMAP
18
2C
46
00
3C
46
82
FF
80
80
C1
E2
7E
3C
00
00
18
18
ENDCHAR
STARTCHAR uni1EC8
ENCODING 7880
SWIDTH 357 0
DWIDTH 7 0
BBX 5 18 1 0
BITMAP
70
58
10
20
F8
30
20
20
20
20
20
20
20
20
20
20
30
F8
ENDCHAR
STARTCHAR uni1EC9
ENCODING 7881
SWIDTH 285 0
DWIDTH 6 0
BBX 4 16 1 0
BITMAP
E0
B0
30
20
40
00
E0
60
60
60
60
60
60
60
60
F0
ENDCHAR
STARTCHAR uni1ECA
ENCODING 7882
SWIDTH 357 0
DWIDTH 7 0
BBX 5 18 1 -4
BITMAP
F8
30
20
20
20
20
20
20
20
20
20
20
30
F8
00
00
70
30
ENDCHAR
STARTCHAR uni1ECB
ENCODING 7883
SWIDTH 285 0
DWIDTH 6 0
BBX 4 18 1 -4
BITMAP
60
60
00
00
E0
60
60
60
60
60
60
60
60
F0
00
00
60
60
ENDCHAR
STARTCHAR uni1ECC
ENCODING 7884
SWIDTH 738 0
DWIDTH 15 0
BBX 13 18 1 -4
BITMAP
0F80
3060
6030
6030
C030
C018
C018
C018
C018
C030
6030
6020
3060
0F80
0000
0000
0700
0600
ENDCHAR
STARTCHAR uni1ECD
ENCODING 7885
SWIDTH 514 0
DWIDTH 10 0
BBX 9 14 1 -4
BITMAP
3C00
4300
C300
C100
C180
C180
C100
C300
6300
3C00
0000
0000
1800
1800
ENDCHAR
STARTCHAR uni1ECE
ENCODING 7886
SWIDTH 738 0
DWIDTH 15 0
BBX 13 18 1 0
BITMAP
0700
0500
0100
0200
0F80
3060
6030
6030
C030
C018
C018
C018
C018
C030
6030
6020
3060
0F80
ENDCHAR
STARTCHAR uni1ECF
ENCODING 7887
SWIDTH 514 0
DWIDTH 10 0
BBX 9 16 1 0
BITMAP
1C00
1400
0400
0400
0800
0000
3C00
4300
C300
C100
C180
C180
C100
C300
6300
3C00
ENDCHAR
STARTCHAR uni1ED0
ENCODING 7888
SWIDTH 738 0
DWIDTH 15 0
BBX 13 18 1 0
BITMAP
0030
0660
0580
1880
0F80
3060
6030
6030
C030
C018
C018
C018
C018
C030
6030
6020
3060
0F80
ENDCHAR
STARTCHAR uni1ED1
ENCODING 7889
SWIDTH 514 0
DWIDTH 10 0
BBX 9 16 1 0
BITMAP
0180
0100
1A00
3400
6200
0000
3C00
4300
C300
C100
C180
C180
C100
C300
6300
3C00
ENDCHAR
STARTCHAR uni1ED2
ENCODING 7890
SWIDTH 738 0
DWIDTH 15 0
BBX 13 18 1 0
BITMAP
0180
0640
0520
1880
0F80
3060
6030
6030
C030
C018
C018
C018
C018
C030
6030
6020
3060
0F80
ENDCHAR
STARTCHAR uni1ED3
ENCODING 7891
SWIDTH 514 0
DWIDTH 10 0
BBX 9 16 1 0
BITMAP
0600
0200
1B00
3400
6200
0000
3C00
4300
C300
C100
C180
C180
C100
C300
6300
3C00
ENDCHAR
STARTCHAR uni1ED4
ENCODING 7892
SWIDTH 738 0
DWIDTH 15 0
BBX 13 20 1 0
BITMAP
00C0
0120
0020
07C0
0980
1000
0F80
3060
6030
6030
C030
C018
C018
C018
C018
C030
6030
6020
3060
0F80
ENDCHAR
STARTCHAR uni1ED5
ENCODING 7893
SWIDTH 514 0
DWIDTH 10 0
BBX 9 18 1 0
BITMAP
0300
0580
0180
0100
1A00
3400
6200
0000
3C00
4300
C300
C100
C180
C180
C100
C300
6300
3C00
ENDCHAR
STARTCHAR uni1ED6
ENCODING 7894
SWIDTH 738 0
DWIDTH 15 0
BBX 13 19 1 0
BITMAP
0E40
1380
0200
0700
1880
0F80
3060
6030
6030
C030
C018
C018
C018
C018
C030
6030
6020
3060
0F80
ENDCHAR
STARTCHAR uni1ED7
ENCODING 7895
SWIDTH 514 0
DWIDTH 10 0
BBX 9 17 1 0
BITMAP
3100
4E00
0000
1800
3400
6200
0000
3C00
4300
C300
C100
C180
C180
C100
C300
6300
3C00
ENDCHAR
STARTCHAR uni1ED8
ENCODING 7896
SWIDTH 738 0
DWIDTH 15 0
BBX 13 21 1 -4
BITMAP
0600
0500
1880
0F80
3060
6030
6030
C030
C018
C018
C018
C018
C030
6030
6020
3060
0F80
0000
0000
0700
0600
ENDCHAR
STARTCHAR uni1ED9
ENCODING 7897
SWIDTH 514 0
DWIDTH 10 0
BBX 9 18 1 -4
BITMAP
1800
3400
6200
0000
3C00
4300
C300
C100
C180
C180
C100
C300
6300
3C00
0000
0000
1800
1800
ENDCHAR
STARTCHAR uni1EDA
ENCODING 7898
SWIDTH 737 0
DWIDTH 15 0
BBX 13 17 1 0
BITMAP
0188
0318
0408
0FF0
3060
6030
6030
C030
C018
C018
C018
C018
C030
6030
6020
3060
0F80
ENDCHAR
STARTCHAR uni1EDB
ENCODING 7899
SWIDTH 516 0
DWIDTH 10 0
BBX 9 14 1 0
BITMAP
0C00
0980
1080
0080
3F00
4200
C300
C100
C180
C180
C100
C300
6300
3C00
ENDCHAR
STARTCHAR uni1EDC
ENCODING 7900
SWIDTH 737 0
DWIDTH 15 0
BBX 13 17 1 0
BITMAP
0C08
0618
0108
0FF0
3060
6030
6030
C030
C018
C018
C018
C018
C030
6030
6020
3060
0F80
ENDCHAR
STARTCHAR uni1EDD
ENCODING 7901
SWIDTH 516 0
DWIDTH 10 0
BBX 9 14 1 0
BITMAP
3000
1980
0880
0080
3F00
4200
C300
C100
C180
C180
C100
C300
6300
3C00
ENDCHAR
STARTCHAR uni1EDE
ENCODING 7902
SWIDTH 737 0
DWIDTH 15 0
BBX 13 18 1 0
BITMAP
0700
0508
0118
0208
0FF0
3060
6030
6030
C030
C018
C018
C018
C018
C030
6030
6020
3060
0F80
ENDCHAR
STARTCHAR uni1EDF
ENCODING 7903
SWIDTH 516 0
DWIDTH 10 0
BBX 9 16 1 0
BITMAP
1C00
1400
0400
0580
0880
0080
3F00
4200
C300
C100
C180
C180
C100
C300
6300
3C00
ENDCHAR
STARTCHAR uni1EE0
ENCODING 7904
SWIDTH 737 0
DWIDTH 15 0
BBX 13 17 1 0
BITMAP
0E48
1398
0008
0FF0
3060
6030
6030
C030
C018
C018
C018
C018
C030
6030
6020
3060
0F80
ENDCHAR
STARTCHAR uni1EE1
ENCODING 7905
SWIDTH 516 0
DWIDTH 10 0
BBX 9 14 1 0
BITMAP
3200
4B80
4C80
0080
3F00
4200
C300
C100
C180
C180
C100
C300
6300
3C00
ENDCHAR
STARTCHAR uni1EE2
ENCODING 7906
SWIDTH 737 0
DWIDTH 15 0
BBX 13 21 1 -4
BITMAP
0008
0018
0008
0FF0
3060
6030
6030
C030
C018
C018
C018
C018
C030
6030
6020
3060
0F80
0000
0000
0700
0600
ENDCHAR
STARTCHAR uni1EE3
ENCODING 7907
SWIDTH 516 0
DWIDTH 10 0
BBX 9 17 1 -4
BITMAP
0180
0080
0080
3F00
4200
C300
C100
C180
C180
C100
C300
6300
3C00
0000
0000
1800
1800
ENDCHAR
STARTCHAR uni1EE4
ENCODING 7908
SWIDTH 752 0
DWIDTH 15 0
BBX 15 18 0 -4
BITMAP
FC3E
3018
3008
3008
3008
3008
3008
3008
3008
3008
1008
1810
1830
07C0
0000
0000
0380
0180
ENDCHAR
STARTCHAR uni1EE5
ENCODING 7909
SWIDTH 570 0
DWIDTH 11 0
BBX 11 14 0 -4
BITMAP
E380
2080
2080
2080
2080
2080
2080
3080
3180
1EE0
0000
0000
0E00
0400
ENDCHAR
STARTCHAR uni1EE6
ENCODING 7910
SWIDTH 752 0
DWIDTH 15 0
BBX 15 18 0 0
BITMAP
01C0
0240
0040
0180
FC3E
3018
3008
3008
3008
3008
3008
3008
3008
3008
1008
1810
1830
07C0
ENDCHAR
STARTCHAR uni1EE7
ENCODING 7911
SWIDTH 570 0
DWIDTH 11 0
BBX 11 16 0 0
BITMAP
0E00
0B00
0300
0200
0400
0000
E380
2080
2080
2080
2080
2080
2080
3080
3180
1EE0
ENDCHAR
STARTCHAR uni1EE8
ENCODING 7912
SWIDTH 762 0
DWIDTH 15 0
BBX 16 18 0 0
BITMAP
0001
00C3
0181
0301
FC3E
3018
3008
3008
3008
3008
3008
3008
3008
3008
1008
1810
1830
07C0
ENDCHAR
STARTCHAR uni1EE9
ENCODING 7913
SWIDTH 574 0
DWIDTH 11 0
BBX 12 14 0 0
BITMAP
0700
0420
0C30
0020
E3E0
2080
2080
2080
2080
2080
2080
3080
3180
1EE0
ENDCHAR
STARTCHAR uni1EEA
ENCODING 7914
SWIDTH 762 0
DWIDTH 15 0
BBX 16 18 0 0
BITMAP
0001
0303
0181
00C1
FC3E
3018
3008
3008
3008
3008
3008
3008
3008
3008
1008
1810
1830
07C0
ENDCHAR
STARTCHAR uni1EEB
ENCODING 7915
SWIDTH 574 0
DWIDTH 11 0
BBX 12 14 0 0
BITMAP
1800
0C20
0430
0020
E3E0
2080
2080
2080
2080
2080
2080
3080
3180
1EE0
ENDCHAR
STARTCHAR uni1EEC
ENCODING 7916
SWIDTH 762 0
DWIDTH 15 0
BBX 16 18 0 0
BITMAP
01C1
0243
0041
0181
FC3E
3018
3008
3008
3008
3008
3008
3008
3008
3008
1008
1810
1830
07C0
ENDCHAR
STARTCHAR uni1EED
ENCODING 7917
SWIDTH 574 0
DWIDTH 11 0
BBX 12 16 0 0
BITMAP
0E00
0A00
0200
0220
0430
0020
E3E0
2080
2080
2080
2080
2080
2080
3080
3180
1EE0
ENDCHAR
STARTCHAR uni1EEE
ENCODING 7918
SWIDTH 762 0
DWIDTH 15 0
BBX 16 18 0 0
BITMAP
0001
0323
04E1
0001
FC3E
3018
3008
3008
3008
3008
3008
3008
3008
3008
1008
1810
1830
07C0
ENDCHAR
STARTCHAR uni1EEF
ENCODING 7919
SWIDTH 574 0
DWIDTH 11 0
BBX 12 13 0 0
BITMAP
1CA0
2730
0020
E3E0
2080
2080
2080
2080
2080
2080
3080
3180
1EE0
ENDCHAR
STARTCHAR uni1EF0
ENCODING 7920
SWIDTH 762 0
DWIDTH 15 0
BBX 16 22 0 -4
BITMAP
0001
0003
0001
0001
FC3E
3018
3008
3008
3008
3008
3008
3008
3008
3008
1008
1810
1830
07C0
0000
0000
0380
0180
ENDCHAR
STARTCHAR uni1EF1
ENCODING 7921
SWIDTH 574 0
DWIDTH 11 0
BBX 12 17 0 -4
BITMAP
0020
0030
0020
E3E0
2080
2080
2080
2080
2080
2080
3080
3180
1EE0
0000
0000
0E00
0C00
ENDCHAR
STARTCHAR Ygrave
ENCODING 7922
SWIDTH 647 0
DWIDTH 13 0
BBX 13 17 0 0
BITMAP
0600
0200
0180
F878
7020
3020
1840
1C80
0C80
0700
0700
0200
0200
0200
0200
0700
0FC0
ENDCHAR
STARTCHAR ygrave
ENCODING 7923
SWIDTH 483 0
DWIDTH 10 0
BBX 10 19 0 -5
BITMAP
1800
0C00
0400
0000
F3C0
6080
6100
3100
3100
1A00
1A00
0A00
0C00
0C00
0800
0800
0800
F000
E000
ENDCHAR
STARTCHAR uni1EF4
ENCODING 7924
SWIDTH 647 0
DWIDTH 13 0
BBX 13 18 0 -4
BITMAP
F878
7020
3020
1840
1C80
0C80
0700
0700
0200
0200
0200
0200
0700
0FC0
0000
0000
0700
0200
ENDCHAR
STARTCHAR uni1EF5
ENCODING 7925
SWIDTH 483 0
DWIDTH 10 0
BBX 10 15 0 -5
BITMAP
F3C0
6080
6100
3100
3100
1A00
1A00
0A00
0C00
0C00
0800
0800
0B00
F300
E000
ENDCHAR
STARTCHAR uni1EF6
ENCODING 7926
SWIDTH 647 0
DWIDTH 13 0
BBX 13 18 0 0
BITMAP
0300
0480
0180
0200
F878
7020
3020
1840
1C80
0C80
0700
0700
0200
0200
0200
0200
0700
0FC0
ENDCHAR
STARTCHAR uni1EF7
ENCODING 7927
SWIDTH 483 0
DWIDTH 10 0
BBX 10 21 0 -5
BITMAP
0E00
0A00
0200
0200
0400
0000
F3C0
6080
6100
3100
3100
1A00
1A00
0A00
0C00
0C00
0800
0800
0800
F000
E000
ENDCHAR
STARTCHAR uni1EF8
ENCODING 7928
SWIDTH 647 0
DWIDTH 13 0
BBX 13 17 0 0
BITMAP
0E40
0980
0000
F878
7020
3020
1840
1C80
0C80
0700
0700
0200
0200
0200
0200
0700
0FC0
ENDCHAR
STARTCHAR uni1EF9
ENCODING 7929
SWIDTH 483 0
DWIDTH 10 0
BBX 10 18 0 -5
BITMAP
1880
2700
0000
F3C0
6080
6100
3100
3100
1A00
1A00
0A00
0C00
0C00
0800
0800
0800
F000
E000
ENDCHAR
STARTCHAR uni2000
ENCODING 8192
SWIDTH 500 0
DWIDTH 10 0
BBX 1 1 0 0
BITMAP
00
ENDCHAR
STARTCHAR uni2001
ENCODING 8193
SWIDTH 1000 0
DWIDTH 20 0
BBX 1 1 0 0
BITMAP
00
ENDCHAR
STARTCHAR uni2002
ENCODING 8194
SWIDTH 500 0
DWIDTH 10 0
BBX 1 1 0 0
BITMAP
00
ENDCHAR
STARTCHAR uni2003
ENCODING 8195
SWIDTH 1000 0
DWIDTH 20 0
BBX 1 1 0 0
BITMAP
00
ENDCHAR
STARTCHAR uni2004
ENCODING 8196
SWIDTH 334 0
DWIDTH 7 0
BBX 1 1 0 0
BITMAP
00
ENDCHAR
STARTCHAR uni2005
ENCODING 8197
SWIDTH 250 0
DWIDTH 5 0
BBX 1 1 0 0
BITMAP
00
ENDCHAR
STARTCHAR uni2006
ENCODING 8198
SWIDTH 167 0
DWIDTH 3 0
BBX 1 1 0 0
BITMAP
00
ENDCHAR
STARTCHAR uni2007
ENCODING 8199
SWIDTH 560 0
DWIDTH 11 0
BBX 1 1 0 0
BITMAP
00
ENDCHAR
STARTCHAR uni2008
ENCODING 8200
SWIDTH 297 0
DWIDTH 6 0
BBX 1 1 0 0
BITMAP
00
ENDCHAR
STARTCHAR uni2009
ENCODING 8201
SWIDTH 125 0
DWIDTH 3 0
BBX 1 1 0 0
BITMAP
00
ENDCHAR
STARTCHAR uni200A
ENCODING 8202
SWIDTH 63 0
DWIDTH 1 0
BBX 1 1 0 0
BITMAP
00
ENDCHAR
STARTCHAR uni200B
ENCODING 8203
SWIDTH 0 0
DWIDTH 0 0
BBX 1 1 0 0
BITMAP
00
ENDCHAR
STARTCHAR uni200C
ENCODING 8204
SWIDTH 0 0
DWIDTH 0 0
BBX 1 22 0 -5
BITMAP
80
80
80
80
80
80
80
80
80
80
80
80
80
80
80
80
80
80
80
80
80
80
ENDCHAR
STARTCHAR uni200D
ENCODING 8205
SWIDTH 0 0
DWIDTH 0 0
BBX 4 24 -2 -5
BITMAP
90
90
60
90
D0
40
40
40
40
40
40
40
40
40
40
40
40
40
40
40
40
40
40
40
ENDCHAR
STARTCHAR uni2010
ENCODING 8208
SWIDTH 315 0
DWIDTH 6 0
BBX 4 1 1 5
BITMAP
F0
ENDCHAR
STARTCHAR uni2011
ENCODING 8209
SWIDTH 315 0
DWIDTH 6 0
BBX 4 1 1 5
BITMAP
F0
ENDCHAR
STARTCHAR figuredash
ENCODING 8210
SWIDTH 495 0
DWIDTH 10 0
BBX 8 1 1 5
BITMAP
FF
ENDCHAR
STARTCHAR endash
ENCODING 8211
SWIDTH 500 0
DWIDTH 10 0
BBX 8 1 1 5
BITMAP
FF
ENDCHAR
STARTCHAR emdash
ENCODING 8212
SWIDTH 1000 0
DWIDTH 20 0
BBX 18 1 1 5
BITMAP
FFFFC0
ENDCHAR
STARTCHAR uni2015
ENCODING 8213
SWIDTH 940 0
DWIDTH 19 0
BBX 19 1 0 5
BITMAP
FFFFE0
ENDCHAR
STARTCHAR uni2016
ENCODING 8214
SWIDTH 427 0
DWIDTH 9 0
BBX 4 19 2 -5
BITMAP
90
90
90
90
90
90
90
90
90
90
90
90
90
90
90
90
90
90
90
ENDCHAR
STARTCHAR underscoredbl
ENCODING 8215
SWIDTH 512 0
DWIDTH 10 0
BBX 10 3 0 -5
BITMAP
FFC0
0000
FFC0
ENDCHAR
STARTCHAR quoteleft
ENCODING 8216
SWIDTH 245 0
DWIDTH 5 0
BBX 3 5 1 10
BITMAP
20
40
80
E0
60
ENDCHAR
STARTCHAR quoteright
ENCODING 8217
SWIDTH 245 0
DWIDTH 5 0
BBX 3 5 1 9
BITMAP
C0
E0
20
40
80
ENDCHAR
STARTCHAR quotesinglbase
ENCODING 8218
SWIDTH 243 0
DWIDTH 5 0
BBX 3 5 1 -3
BITMAP
C0
E0
20
40
80
ENDCHAR
STARTCHAR quotereversed
ENCODING 8219
SWIDTH 243 0
DWIDTH 5 0
BBX 3 5 1 9
BITMAP
60
E0
80
40
20
ENDCHAR
STARTCHAR quotedblleft
ENCODING 8220
SWIDTH 435 0
DWIDTH 9 0
BBX 7 5 1 10
BITMAP
22
4C
88
EE
6E
ENDCHAR
STARTCHAR quotedblright
ENCODING 8221
SWIDTH 434 0
DWIDTH 9 0
BBX 7 5 1 9
BITMAP
CC
EE
24
44
88
ENDCHAR
STARTCHAR quotedblbase
ENCODING 8222
SWIDTH 433 0
DWIDTH 9 0
BBX 7 5 1 -3
BITMAP
CC
EE
24
44
88
ENDCHAR
STARTCHAR uni201F
ENCODING 8223
SWIDTH 434 0
DWIDTH 9 0
BBX 7 5 1 9
BITMAP
6E
EE
88
4C
22
ENDCHAR
STARTCHAR dagger
ENCODING 8224
SWIDTH 512 0
DWIDTH 10 0
BBX 8 17 1 -3
BITMAP
18
18
08
08
FF
CB
08
08
18
18
18
08
08
08
08
08
08
ENDCHAR
STARTCHAR daggerdbl
ENCODING 8225
SWIDTH 512 0
DWIDTH 10 0
BBX 8 16 1 -2
BITMAP
18
18
08
08
FF
CB
08
08
18
08
08
FF
CB
08
18
18
ENDCHAR
STARTCHAR bullet
ENCODING 8226
SWIDTH 457 0
DWIDTH 9 0
BBX 5 5 2 3
BITMAP
70
F8
F8
F8
70
ENDCHAR
STARTCHAR twodotenleader
ENCODING 8229
SWIDTH 500 0
DWIDTH 10 0
BBX 8 2 1 0
BITMAP
C3
C3
ENDCHAR
STARTCHAR ellipsis
ENCODING 8230
SWIDTH 887 0
DWIDTH 18 0
BBX 14 2 2 0
BITMAP
C31C
C31C
ENDCHAR
STARTCHAR uni202F
ENCODING 8239
SWIDTH 125 0
DWIDTH 3 0
BBX 1 1 0 0
BITMAP
00
ENDCHAR
STARTCHAR perthousand
ENCODING 8240
SWIDTH 1017 0
DWIDTH 20 0
BBX 18 14 1 0
BITMAP
38E000
474000
C48000
898000
890000
8B0000
620000
04E1C0
059240
091640
091440
131440
212440
21C380
ENDCHAR
STARTCHAR uni2031
ENCODING 8241
SWIDTH 1342 0
DWIDTH 27 0
BBX 25 14 1 0
BITMAP
38E00000
47400000
C4800000
89800000
89000000
8B000000
62000000
04E1C700
05924C80
09162880
09142880
13145880
21244900
21C38E00
ENDCHAR
STARTCHAR minute
ENCODING 8242
SWIDTH 296 0
DWIDTH 6 0
BBX 4 6 1 8
BITMAP
30
20
60
40
40
80
ENDCHAR
STARTCHAR second
ENCODING 8243
SWIDTH 436 0
DWIDTH 9 0
BBX 6 6 1 8
BITMAP
34
2C
6C
48
48
90
ENDCHAR
STARTCHAR uni2034
ENCODING 8244
SWIDTH 576 0
DWIDTH 12 0
BBX 9 6 1 8
BITMAP
3480
2D80
6D00
4900
4A00
9200
ENDCHAR
STARTCHAR uni2035
ENCODING 8245
SWIDTH 296 0
DWIDTH 6 0
BBX 4 6 1 8
BITMAP
C0
40
60
20
20
30
ENDCHAR
STARTCHAR uni2036
ENCODING 8246
SWIDTH 436 0
DWIDTH 9 0
BBX 6 6 1 8
BITMAP
D8
58
68
2C
24
34
ENDCHAR
STARTCHAR uni2037
ENCODING 8247
SWIDTH 576 0
DWIDTH 12 0
BBX 9 6 1 8
BITMAP
DB00
5B00
6900
2D00
2480
3480
ENDCHAR
STARTCHAR uni2038
ENCODING 8248
SWIDTH 523 0
DWIDTH 10 0
BBX 8 6 1 -4
BITMAP
08
1C
24
42
41
81
ENDCHAR
STARTCHAR guilsinglleft
ENCODING 8249
SWIDTH 307 0
DWIDTH 6 0
BBX 4 8 1 1
BITMAP
10
20
60
C0
C0
40
20
10
ENDCHAR
STARTCHAR guilsinglright
ENCODING 8250
SWIDTH 307 0
DWIDTH 6 0
BBX 4 8 1 1
BITMAP
80
40
20
30
10
20
40
80
ENDCHAR
STARTCHAR uni203B
ENCODING 8251
SWIDTH 701 0
DWIDTH 14 0
BBX 12 12 1 0
BITMAP
8010
4620
2640
1080
0900
6660
E670
0900
1080
30C0
6660
C630
ENDCHAR
STARTCHAR exclamdbl
ENCODING 8252
SWIDTH 565 0
DWIDTH 11 0
BBX 8 14 2 0
BITMAP
C2
C7
C6
C2
C2
C2
82
82
82
82
82
00
C7
C7
ENDCHAR
STARTCHAR uni203E
ENCODING 8254
SWIDTH 512 0
DWIDTH 10 0
BBX 10 1 0 16
BITMAP
FFC0
ENDCHAR
STARTCHAR uni2040
ENCODING 8256
SWIDTH 810 0
DWIDTH 16 0
BBX 14 4 1 11
BITMAP
0FE0
3010
4008
8004
ENDCHAR
STARTCHAR uni2043
ENCODING 8259
SWIDTH 352 0
DWIDTH 7 0
BBX 5 3 1 4
BITMAP
F8
F8
F8
ENDCHAR
STARTCHAR fraction
ENCODING 8260
SWIDTH 205 0
DWIDTH 4 0
BBX 10 14 -3 0
BITMAP
0040
0080
0100
0100
0200
0600
0400
0800
0800
1000
2000
2000
4000
C000
ENDCHAR
STARTCHAR uni2047
ENCODING 8263
SWIDTH 822 0
DWIDTH 16 0
BBX 15 14 1 0
BITMAP
7878
8C86
8686
C6C6
0606
0C04
080C
1808
1010
1010
1010
0000
3030
3030
ENDCHAR
STARTCHAR uni204B
ENCODING 8267
SWIDTH 605 0
DWIDTH 12 0
BBX 10 17 1 -3
BITMAP
FF00
2480
24C0
24C0
24C0
24C0
24C0
2580
2600
2400
2400
2400
2400
2400
2400
2400
E700
ENDCHAR
STARTCHAR uni204C
ENCODING 8268
SWIDTH 479 0
DWIDTH 10 0
BBX 7 6 2 2
BITMAP
7E
E8
E8
E8
E8
7E
ENDCHAR
STARTCHAR uni204D
ENCODING 8269
SWIDTH 479 0
DWIDTH 10 0
BBX 7 6 1 2
BITMAP
FC
2E
2E
2E
2E
FC
ENDCHAR
STARTCHAR uni204E
ENCODING 8270
SWIDTH 410 0
DWIDTH 8 0
BBX 6 8 1 -3
BITMAP
30
30
94
DC
30
DC
94
30
ENDCHAR
STARTCHAR uni204F
ENCODING 8271
SWIDTH 245 0
DWIDTH 5 0
BBX 3 13 1 -3
BITMAP
40
E0
40
00
00
00
00
00
E0
E0
80
40
20
ENDCHAR
STARTCHAR uni2050
ENCODING 8272
SWIDTH 809 0
DWIDTH 16 0
BBX 14 15 1 -1
BITMAP
0FC0
3030
6008
400C
8004
0000
0000
0000
0000
0000
8004
400C
6008
3030
0FC0
ENDCHAR
STARTCHAR uni2051
ENCODING 8273
SWIDTH 410 0
DWIDTH 8 0
BBX 6 17 1 -2
BITMAP
30
94
DC
30
DC
94
30
30
00
30
94
DC
30
DC
94
30
30
ENDCHAR
STARTCHAR uni2052
ENCODING 8274
SWIDTH 482 0
DWIDTH 10 0
BBX 8 19 1 -5
BITMAP
C3
E2
06
04
04
0C
08
08
18
18
10
30
30
20
20
60
46
46
C0
ENDCHAR
STARTCHAR uni2057
ENCODING 8279
SWIDTH 727 0
DWIDTH 15 0
BBX 12 6 1 8
BITMAP
3490
2DB0
6D30
4920
4A40
9240
ENDCHAR
STARTCHAR uni205F
ENCODING 8287
SWIDTH 222 0
DWIDTH 4 0
BBX 1 1 0 0
BITMAP
00
ENDCHAR
STARTCHAR uni2061
ENCODING 8289
SWIDTH 0 0
DWIDTH 0 0
BBX 1 1 0 0
BITMAP
00
ENDCHAR
STARTCHAR uni2062
ENCODING 8290
SWIDTH 0 0
DWIDTH 0 0
BBX 1 1 0 0
BITMAP
00
ENDCHAR
STARTCHAR uni2063
ENCODING 8291
SWIDTH 0 0
DWIDTH 0 0
BBX 1 1 0 0
BITMAP
00
ENDCHAR
STARTCHAR uni2064
ENCODING 8292
SWIDTH 0 0
DWIDTH 0 0
BBX 1 1 0 0
BITMAP
00
ENDCHAR
STARTCHAR zerosuperior
ENCODING 8304
SWIDTH 412 0
DWIDTH 8 0
BBX 7 10 1 5
BITMAP
78
C4
84
86
86
86
86
84
CC
78
ENDCHAR
STARTCHAR uni2071
ENCODING 8305
SWIDTH 245 0
DWIDTH 5 0
BBX 3 11 1 5
BITMAP
C0
40
00
C0
40
40
40
40
40
40
E0
ENDCHAR
STARTCHAR foursuperior
ENCODING 8308
SWIDTH 403 0
DWIDTH 8 0
BBX 8 10 0 5
BITMAP
04
0C
14
24
24
44
FF
04
04
04
ENDCHAR
STARTCHAR fivesuperior
ENCODING 8309
SWIDTH 358 0
DWIDTH 7 0
BBX 6 10 0 5
BITMAP
3C
40
40
78
0C
04
04
04
44
F8
ENDCHAR
STARTCHAR sixsuperior
ENCODING 8310
SWIDTH 390 0
DWIDTH 8 0
BBX 6 10 1 5
BITMAP
1C
60
C0
B8
CC
84
84
84
CC
78
ENDCHAR
STARTCHAR sevensuperior
ENCODING 8311
SWIDTH 364 0
DWIDTH 7 0
BBX 6 10 1 5
BITMAP
FC
84
08
08
18
10
10
20
20
60
ENDCHAR
STARTCHAR eightsuperior
ENCODING 8312
SWIDTH 374 0
DWIDTH 7 0
BBX 6 10 1 5
BITMAP
78
88
8C
C8
70
78
8C
84
8C
78
ENDCHAR
STARTCHAR ninesuperior
ENCODING 8313
SWIDTH 390 0
DWIDTH 8 0
BBX 6 10 1 5
BITMAP
78
8C
84
84
84
CC
7C
08
18
E0
ENDCHAR
STARTCHAR uni207A
ENCODING 8314
SWIDTH 536 0
DWIDTH 11 0
BBX 9 9 1 5
BITMAP
0800
0800
0800
0800
FF80
0800
0800
0800
0800
ENDCHAR
STARTCHAR uni207B
ENCODING 8315
SWIDTH 536 0
DWIDTH 11 0
BBX 9 1 1 9
BITMAP
FF80
ENDCHAR
STARTCHAR uni207C
ENCODING 8316
SWIDTH 534 0
DWIDTH 11 0
BBX 9 4 1 7
BITMAP
FF80
0000
0000
FF80
ENDCHAR
STARTCHAR parenleftsuperior
ENCODING 8317
SWIDTH 268 0
DWIDTH 5 0
BBX 5 14 0 3
BITMAP
08
10
20
60
40
40
40
C0
40
40
40
20
20
18
ENDCHAR
STARTCHAR parenrightsuperior
ENCODING 8318
SWIDTH 268 0
DWIDTH 5 0
BBX 5 14 0 3
BITMAP
80
40
20
10
10
18
18
18
18
18
10
10
20
C0
ENDCHAR
STARTCHAR nsuperior
ENCODING 8319
SWIDTH 491 0
DWIDTH 10 0
BBX 8 8 1 5
BITMAP
DC
66
42
42
42
42
42
EF
ENDCHAR
STARTCHAR zeroinferior
ENCODING 8320
SWIDTH 412 0
DWIDTH 8 0
BBX 7 10 1 -5
BITMAP
78
C4
84
86
86
86
86
84
CC
78
ENDCHAR
STARTCHAR oneinferior
ENCODING 8321
SWIDTH 333 0
DWIDTH 7 0
BBX 5 10 1 -5
BITMAP
E0
20
20
20
20
20
20
20
20
F8
ENDCHAR
STARTCHAR twoinferior
ENCODING 8322
SWIDTH 373 0
DWIDTH 7 0
BBX 6 10 1 -5
BITMAP
70
98
0C
0C
08
10
20
44
84
FC
ENDCHAR
STARTCHAR threeinferior
ENCODING 8323
SWIDTH 374 0
DWIDTH 7 0
BBX 6 10 1 -5
BITMAP
70
98
08
10
70
08
0C
0C
88
F0
ENDCHAR
STARTCHAR fourinferior
ENCODING 8324
SWIDTH 403 0
DWIDTH 8 0
BBX 8 10 0 -5
BITMAP
04
0C
14
24
24
44
FF
04
04
04
ENDCHAR
STARTCHAR fiveinferior
ENCODING 8325
SWIDTH 358 0
DWIDTH 7 0
BBX 6 10 0 -5
BITMAP
3C
40
40
78
0C
04
04
04
44
F8
ENDCHAR
STARTCHAR sixinferior
ENCODING 8326
SWIDTH 390 0
DWIDTH 8 0
BBX 6 10 1 -5
BITMAP
1C
60
C0
B8
CC
84
84
84
CC
78
ENDCHAR
STARTCHAR seveninferior
ENCODING 8327
SWIDTH 364 0
DWIDTH 7 0
BBX 6 10 1 -5
BITMAP
FC
84
08
08
18
10
10
20
20
60
ENDCHAR
STARTCHAR eightinferior
ENCODING 8328
SWIDTH 374 0
DWIDTH 7 0
BBX 6 10 1 -5
BITMAP
78
88
8C
C8
70
78
8C
84
8C
78
ENDCHAR
STARTCHAR nineinferior
ENCODING 8329
SWIDTH 390 0
DWIDTH 8 0
BBX 6 10 1 -5
BITMAP
78
8C
84
84
84
CC
7C
08
18
E0
ENDCHAR
STARTCHAR uni208A
ENCODING 8330
SWIDTH 536 0
DWIDTH 11 0
BBX 9 9 1 -5
BITMAP
0800
0800
0800
0800
FF80
0800
0800
0800
0800
ENDCHAR
STARTCHAR uni208B
ENCODING 8331
SWIDTH 536 0
DWIDTH 11 0
BBX 9 1 1 -1
BITMAP
FF80
ENDCHAR
STARTCHAR uni208C
ENCODING 8332
SWIDTH 534 0
DWIDTH 11 0
BBX 9 4 1 -3
BITMAP
FF80
0000
0000
FF80
ENDCHAR
STARTCHAR parenleftinferior
ENCODING 8333
SWIDTH 268 0
DWIDTH 5 0
BBX 5 14 0 -7
BITMAP
08
10
20
60
40
40
40
C0
40
40
40
20
20
18
ENDCHAR
STARTCHAR parenrightinferior
ENCODING 8334
SWIDTH 268 0
DWIDTH 5 0
BBX 5 14 0 -7
BITMAP
80
40
20
10
10
18
18
18
18
18
10
10
20
C0
ENDCHAR
STARTCHAR uni20A3
ENCODING 8355
SWIDTH 495 0
DWIDTH 10 0
BBX 10 13 0 0
BITMAP
FF80
3080
3040
3040
3000
FF00
3000
FF00
3000
3000
3000
3000
FC00
ENDCHAR
STARTCHAR uni20A4
ENCODING 8356
SWIDTH 495 0
DWIDTH 10 0
BBX 10 14 0 0
BITMAP
0700
0980
1080
1000
1000
1000
7E00
1800
7E00
1800
1800
7040
9C80
6700
ENDCHAR
STARTCHAR uni20A7
ENCODING 8359
SWIDTH 1193 0
DWIDTH 24 0
BBX 22 13 1 0
BITMAP
FE0000
218800
219800
20BE7C
2198C4
2198C4
3E18C0
201870
20183C
20180C
201884
701A84
F80EF8
ENDCHAR
STARTCHAR uni20AB
ENCODING 8363
SWIDTH 495 0
DWIDTH 10 0
BBX 8 14 1 0
BITMAP
06
0E
06
3F
3E
46
C6
86
86
C6
C6
7F
00
FE
ENDCHAR
STARTCHAR Euro
ENCODING 8364
SWIDTH 495 0
DWIDTH 10 0
BBX 10 14 0 0
BITMAP
0F40
1080
3080
2080
6000
FE00
6000
6000
FE00
6000
2000
3040
1880
0F00
ENDCHAR
STARTCHAR uni20B9
ENCODING 8377
SWIDTH 495 0
DWIDTH 10 0
BBX 9 13 1 0
BITMAP
FF00
0C00
0600
FF00
0400
0C00
F000
3000
1800
0C00
0E00
0600
0780
ENDCHAR
STARTCHAR uni20BA
ENCODING 8378
SWIDTH 495 0
DWIDTH 10 0
BBX 10 13 0 0
BITMAP
FC00
3000
3000
3000
3600
7800
B600
3800
F0C0
30C0
3080
3180
FF00
ENDCHAR
STARTCHAR uni20BD
ENCODING 8381
SWIDTH 495 0
DWIDTH 10 0
BBX 8 13 1 0
BITMAP
FE
63
63
63
63
63
FC
60
FE
60
60
60
F8
ENDCHAR
STARTCHAR uni20D0
ENCODING 8400
SWIDTH 0 0
DWIDTH 0 0
BBX 9 3 -9 14
BITMAP
2000
4000
FF80
ENDCHAR
STARTCHAR uni20D1
ENCODING 8401
SWIDTH 0 0
DWIDTH 0 0
BBX 9 3 -9 14
BITMAP
0200
0100
FF80
ENDCHAR
STARTCHAR uni20D2
ENCODING 8402
SWIDTH 0 0
DWIDTH 0 0
BBX 1 17 -5 -3
BITMAP
80
80
80
80
80
80
80
80
80
80
80
80
80
80
80
80
80
ENDCHAR
STARTCHAR uni20D3
ENCODING 8403
SWIDTH 0 0
DWIDTH 0 0
BBX 1 14 -5 -3
BITMAP
80
80
80
80
80
80
80
80
80
80
80
80
80
80
ENDCHAR
STARTCHAR uni20D4
ENCODING 8404
SWIDTH 0 0
DWIDTH 0 0
BBX 11 6 -11 10
BITMAP
0F00
18C0
9040
6020
7820
4000
ENDCHAR
STARTCHAR uni20D5
ENCODING 8405
SWIDTH 0 0
DWIDTH 0 0
BBX 11 6 -9 10
BITMAP
3C00
6200
C120
80C0
83C0
0080
ENDCHAR
STARTCHAR uni20D6
ENCODING 8406
SWIDTH 0 0
DWIDTH 0 0
BBX 9 5 -9 12
BITMAP
2000
4000
FF80
4000
2000
ENDCHAR
STARTCHAR uni20D7
ENCODING 8407
SWIDTH 0 0
DWIDTH 0 0
BBX 9 5 -9 12
BITMAP
0200
0100
FF80
0100
0200
ENDCHAR
STARTCHAR uni20D8
ENCODING 8408
SWIDTH 0 0
DWIDTH 0 0
BBX 6 6 -8 3
BITMAP
38
44
C4
C4
44
38
ENDCHAR
STARTCHAR uni20D9
ENCODING 8409
SWIDTH 0 0
DWIDTH 0 0
BBX 8 6 -8 3
BITMAP
38
47
CE
C4
44
38
ENDCHAR
STARTCHAR uni20DA
ENCODING 8410
SWIDTH 0 0
DWIDTH 0 0
BBX 7 6 -8 3
BITMAP
38
44
C4
CE
46
38
ENDCHAR
STARTCHAR uni20DB
ENCODING 8411
SWIDTH 0 0
DWIDTH 0 0
BBX 10 2 -10 11
BITMAP
CCC0
CC40
ENDCHAR
STARTCHAR uni20DC
ENCODING 8412
SWIDTH 0 0
DWIDTH 0 0
BBX 15 2 -12 11
BITMAP
CCCC
CC46
ENDCHAR
STARTCHAR uni20DD
ENCODING 8413
SWIDTH 0 0
DWIDTH 0 0
BBX 19 19 -14 -4
BITMAP
03F000
0E0E00
180300
300180
6000C0
400040
C00060
800060
800020
800020
800020
800020
C00060
400040
6000C0
200180
180300
0C0E00
03F800
ENDCHAR
STARTCHAR uni20DE
ENCODING 8414
SWIDTH 0 0
DWIDTH 0 0
BBX 19 19 -14 -3
BITMAP
FFFFE0
800020
800020
800020
800020
800020
800020
800020
800020
800020
800020
800020
800020
800020
800020
800020
800020
800020
FFFFE0
ENDCHAR
STARTCHAR uni20DF
ENCODING 8415
SWIDTH 0 0
DWIDTH 0 0
BBX 25 24 -17 -7
BITMAP
00080000
001C0000
00360000
00630000
00C18000
0180C000
03006000
06003000
0C001800
18000C00
30000600
E0000380
60000300
30000600
18000C00
0C001800
06003000
03006000
0180C000
00C18000
00630000
00360000
001C0000
00080000
ENDCHAR
STARTCHAR uni20E1
ENCODING 8417
SWIDTH 0 0
DWIDTH 0 0
BBX 10 5 -10 12
BITMAP
3100
6080
FFC0
6080
3100
ENDCHAR
STARTCHAR uni20E4
ENCODING 8420
SWIDTH 0 0
DWIDTH 0 0
BBX 30 24 -20 -3
BITMAP
00010000
00030000
00038000
00078000
0004C000
000C6000
00186000
00183000
00301000
00201800
00600C00
00C00C00
00C00600
01800300
03000300
03000180
06000080
060000C0
0C000060
18000060
18000030
30000018
60000018
FFFFFFFC
ENDCHAR
STARTCHAR uni20E5
ENCODING 8421
SWIDTH 0 0
DWIDTH 0 0
BBX 8 17 -9 -3
BITMAP
C0
40
60
20
20
10
10
18
08
08
04
04
06
02
02
01
01
ENDCHAR
STARTCHAR uni20E6
ENCODING 8422
SWIDTH 0 0
DWIDTH 0 0
BBX 5 17 -7 -3
BITMAP
88
88
88
88
88
88
88
88
88
88
88
88
88
88
88
88
88
ENDCHAR
STARTCHAR uni20E7
ENCODING 8423
SWIDTH 0 0
DWIDTH 0 0
BBX 17 18 -13 -3
BITMAP
FFFF80
000080
000080
000080
000080
000080
000080
000080
000080
000080
000080
000080
000080
000080
000080
000080
000080
000080
ENDCHAR
STARTCHAR uni20E8
ENCODING 8424
SWIDTH 0 0
DWIDTH 0 0
BBX 10 2 -10 -4
BITMAP
CC40
CCC0
ENDCHAR
STARTCHAR uni20E9
ENCODING 8425
SWIDTH 0 0
DWIDTH 0 0
BBX 11 3 -10 11
BITMAP
FFE0
8020
8020
ENDCHAR
STARTCHAR uni20EA
ENCODING 8426
SWIDTH 0 0
DWIDTH 0 0
BBX 16 7 -13 2
BITMAP
0800
1000
2000
FFFF
6000
1000
0800
ENDCHAR
STARTCHAR uni20EB
ENCODING 8427
SWIDTH 0 0
DWIDTH 0 0
BBX 13 20 -11 -4
BITMAP
0088
0190
0110
0130
0220
0220
0640
0440
0480
0880
0880
1100
1100
1200
2200
2600
4400
4400
C800
8800
ENDCHAR
STARTCHAR uni20EC
ENCODING 8428
SWIDTH 0 0
DWIDTH 0 0
BBX 9 3 -9 -5
BITMAP
FF80
0100
0200
ENDCHAR
STARTCHAR uni20ED
ENCODING 8429
SWIDTH 0 0
DWIDTH 0 0
BBX 9 3 -9 -5
BITMAP
FF80
4000
2000
ENDCHAR
STARTCHAR uni20EE
ENCODING 8430
SWIDTH 0 0
DWIDTH 0 0
BBX 9 5 -9 -6
BITMAP
2000
4000
FF80
4000
2000
ENDCHAR
STARTCHAR uni20EF
ENCODING 8431
SWIDTH 0 0
DWIDTH 0 0
BBX 9 5 -9 -6
BITMAP
0200
0100
FF80
0100
0200
ENDCHAR
STARTCHAR uni20F0
ENCODING 8432
SWIDTH 0 0
DWIDTH 0 0
BBX 5 6 -7 11
BITMAP
20
A8
F0
70
A8
20
ENDCHAR
STARTCHAR uni2100
ENCODING 8448
SWIDTH 939 0
DWIDTH 19 0
BBX 17 14 1 0
BITMAP
000400
780800
CC0800
CC1000
3C1000
4C2000
8C4700
CC4980
FE9080
019000
011000
021000
021880
040F00
ENDCHAR
STARTCHAR uni2101
ENCODING 8449
SWIDTH 936 0
DWIDTH 19 0
BBX 17 14 1 0
BITMAP
000400
780800
CC0800
CC1000
3C2000
4C2000
8C4E80
CC4980
FE9880
010E00
010300
021180
021980
041F00
ENDCHAR
STARTCHAR uni2102
ENCODING 8450
SWIDTH 695 0
DWIDTH 14 0
BBX 12 14 1 0
BITMAP
0F80
3060
6030
6010
A000
A000
A000
A000
A000
A000
6010
6030
3060
0F80
ENDCHAR
STARTCHAR uni2103
ENCODING 8451
SWIDTH 1028 0
DWIDTH 21 0
BBX 19 14 1 0
BITMAP
781F40
C460C0
84C040
84C040
C5C040
798000
018000
018000
018000
018000
00C000
00C020
006040
001F80
ENDCHAR
STARTCHAR uni2104
ENCODING 8452
SWIDTH 646 0
DWIDTH 13 0
BBX 13 14 0 0
BITMAP
3F00
0C00
0C00
1F00
6D00
6D00
4C00
CC00
6C00
6D00
3E08
0C10
0C30
3FF0
ENDCHAR
STARTCHAR uni2105
ENCODING 8453
SWIDTH 953 0
DWIDTH 19 0
BBX 17 14 1 0
BITMAP
000800
781000
CC1000
842000
804000
804000
808F00
C49180
793080
022080
022080
043080
043180
080F00
ENDCHAR
STARTCHAR uni2106
ENCODING 8454
SWIDTH 1072 0
DWIDTH 21 0
BBX 20 14 1 0
BITMAP
000C00
380800
4C1000
843000
802000
804000
C04000
C49CE0
788C60
010C60
020C60
020C60
040CE0
0C0770
ENDCHAR
STARTCHAR uni2107
ENCODING 8455
SWIDTH 612 0
DWIDTH 12 0
BBX 10 14 1 0
BITMAP
3F40
70C0
E040
C040
E040
6000
1E00
E000
C000
C000
C040
C0C0
61C0
3F00
ENDCHAR
STARTCHAR uni2108
ENCODING 8456
SWIDTH 669 0
DWIDTH 13 0
BBX 11 14 1 0
BITMAP
BF00
E180
C0C0
8060
8060
0860
0860
0FE0
0860
0860
0060
80C0
C180
3F00
ENDCHAR
STARTCHAR uni2109
ENCODING 8457
SWIDTH 949 0
DWIDTH 19 0
BBX 18 14 1 0
BITMAP
79FFC0
C460C0
846040
846000
C46100
786100
007F00
006100
006100
006000
006000
006000
006000
01F800
ENDCHAR
STARTCHAR uni210A
ENCODING 8458
SWIDTH 657 0
DWIDTH 13 0
BBX 14 14 -1 -5
BITMAP
01F0
0230
0230
0420
0C20
1C6C
2C70
CCE0
0F60
1060
3040
30C0
3180
1E00
ENDCHAR
STARTCHAR uni210B
ENCODING 8459
SWIDTH 951 0
DWIDTH 19 0
BBX 20 13 0 0
BITMAP
07E0F0
18C120
308200
318200
018400
01FC00
010C00
010C00
030C00
020C00
420C00
C40C80
780700
ENDCHAR
STARTCHAR uni210C
ENCODING 8460
SWIDTH 728 0
DWIDTH 15 0
BBX 13 17 1 -4
BITMAP
0440
0F80
1700
2000
30C0
33E0
3C70
1830
1C38
0C18
4C18
7830
B030
0060
0C40
1F80
2300
ENDCHAR
STARTCHAR uni210D
ENCODING 8461
SWIDTH 715 0
DWIDTH 14 0
BBX 12 13 1 0
BITMAP
F070
9050
9050
9050
9050
9050
9F90
9050
9050
9050
9050
9050
F070
ENDCHAR
STARTCHAR uni210E
ENCODING 8462
SWIDTH 569 0
DWIDTH 11 0
BBX 10 14 1 0
BITMAP
7800
1000
3000
3000
3000
2380
2580
6980
7180
6100
6300
C300
C340
C380
ENDCHAR
STARTCHAR uni210F
ENCODING 8463
SWIDTH 569 0
DWIDTH 11 0
BBX 10 14 1 0
BITMAP
7800
1000
3200
3C00
7000
A380
2580
6980
7180
6100
6300
4300
C340
C380
ENDCHAR
STARTCHAR uni2110
ENCODING 8464
SWIDTH 496 0
DWIDTH 10 0
BBX 10 14 0 0
BITMAP
07C0
1880
3180
2180
3180
0100
0100
0300
0300
0300
0200
4600
CC00
7000
ENDCHAR
STARTCHAR uni2111
ENCODING 8465
SWIDTH 673 0
DWIDTH 13 0
BBX 12 14 1 -1
BITMAP
1E10
7FE0
43C0
4000
40E0
4190
3980
01C0
00C0
70E0
F060
B860
18C0
0F80
ENDCHAR
STARTCHAR uni2112
ENCODING 8466
SWIDTH 699 0
DWIDTH 14 0
BBX 12 14 0 0
BITMAP
01E0
0270
0630
0400
0C00
0C00
0C00
0800
1800
1010
3810
7E10
87E0
81C0
ENDCHAR
STARTCHAR uni2113
ENCODING 8467
SWIDTH 529 0
DWIDTH 11 0
BBX 10 14 0 0
BITMAP
01C0
0240
0440
0C40
0840
1880
1B00
1C00
F000
2000
2100
2200
2400
3800
ENDCHAR
STARTCHAR uni2114
ENCODING 8468
SWIDTH 787 0
DWIDTH 16 0
BBX 15 15 0 0
BITMAP
1080
7780
3180
FFF0
3180
31B8
31CC
3186
3186
3186
3186
3186
3184
318C
78F0
ENDCHAR
STARTCHAR uni2115
ENCODING 8469
SWIDTH 692 0
DWIDTH 14 0
BBX 11 13 1 0
BITMAP
E020
9020
C820
A420
A420
9220
8920
84A0
84E0
8260
8120
80A0
80E0
ENDCHAR
STARTCHAR uni2116
ENCODING 8470
SWIDTH 1070 0
DWIDTH 21 0
BBX 21 14 0 0
BITMAP
000780
3C0980
0E0980
0A0800
0B08F0
098990
098918
08C918
086918
086990
0838E0
481800
D01800
F009F0
ENDCHAR
STARTCHAR uni2117
ENCODING 8471
SWIDTH 781 0
DWIDTH 16 0
BBX 14 14 1 0
BITMAP
0F80
3060
2010
4F88
84C8
8448
84C4
8784
8408
8408
5E08
2010
3060
0F80
ENDCHAR
STARTCHAR uni2118
ENCODING 8472
SWIDTH 846 0
DWIDTH 17 0
BBX 15 16 1 -5
BITMAP
0E00
3100
607C
40C6
C386
C706
CE06
5C06
7884
39CC
3498
66F0
6600
6400
6C00
7800
ENDCHAR
STARTCHAR uni2119
ENCODING 8473
SWIDTH 665 0
DWIDTH 13 0
BBX 12 13 1 0
BITMAP
FF80
90E0
90A0
90A0
9090
90A0
90E0
9F80
9000
9000
9000
9000
F000
ENDCHAR
STARTCHAR uni211A
ENCODING 8474
SWIDTH 751 0
DWIDTH 15 0
BBX 13 15 1 -1
BITMAP
0F80
3060
6030
6030
A028
A028
A028
A028
A028
A028
6030
6730
38E0
0FC0
0038
ENDCHAR
STARTCHAR uni211B
ENCODING 8475
SWIDTH 789 0
DWIDTH 16 0
BBX 15 15 0 0
BITMAP
0040
03F0
0D9C
198C
318C
318C
210C
0118
03E0
0360
0260
0220
0430
C836
F018
ENDCHAR
STARTCHAR uni211C
ENCODING 8476
SWIDTH 778 0
DWIDTH 16 0
BBX 14 15 1 -1
BITMAP
78E0
CDF0
CE70
C630
E630
7620
3640
27E0
4660
0460
0C60
4870
787C
B030
1010
ENDCHAR
STARTCHAR uni211D
ENCODING 8477
SWIDTH 729 0
DWIDTH 15 0
BBX 13 13 1 0
BITMAP
FF80
90E0
90A0
9090
90A0
90A0
90E0
9F80
9240
9240
9120
9090
F078
ENDCHAR
STARTCHAR uni211E
ENCODING 8478
SWIDTH 725 0
DWIDTH 15 0
BBX 13 14 1 -1
BITMAP
FF00
61C0
60C0
60C0
60C0
6180
7E00
6708
6310
61A0
60C0
60E0
F978
0600
ENDCHAR
STARTCHAR uni211F
ENCODING 8479
SWIDTH 659 0
DWIDTH 13 0
BBX 12 22 1 -5
BITMAP
0700
0D00
0100
0100
FF00
3180
33C0
32C0
34C0
34C0
3580
3E00
3F00
3300
3180
31C0
70E0
F870
2000
4000
2C00
1800
ENDCHAR
STARTCHAR uni2120
ENCODING 8480
SWIDTH 937 0
DWIDTH 19 0
BBX 17 9 1 5
BITMAP
7B8380
89C300
89C500
C14500
716500
192900
893900
891100
FB9780
ENDCHAR
STARTCHAR uni2121
ENCODING 8481
SWIDTH 1200 0
DWIDTH 24 0
BBX 23 8 0 5
BITMAP
7FFE70
992120
182420
183C20
182420
182122
182122
3CFE7E
ENDCHAR
STARTCHAR trademark
ENCODING 8482
SWIDTH 881 0
DWIDTH 18 0
BBX 17 7 0 6
BITMAP
FEC380
926300
10A500
10B500
109900
109900
38CB80
ENDCHAR
STARTCHAR uni2123
ENCODING 8483
SWIDTH 680 0
DWIDTH 14 0
BBX 14 22 0 -5
BITMAP
0380
0680
0080
0080
F8BC
7090
3110
3120
1A20
1A20
1C40
0C40
0C80
0E80
0E80
1300
1300
1200
2000
2000
1600
1C00
ENDCHAR
STARTCHAR uni2124
ENCODING 8484
SWIDTH 648 0
DWIDTH 13 0
BBX 13 13 0 0
BITMAP
7FF8
0090
0130
0120
0240
0480
0900
0900
1200
2400
4800
4800
FFF8
ENDCHAR
STARTCHAR uni2125
ENCODING 8485
SWIDTH 434 0
DWIDTH 9 0
BBX 7 18 1 -5
BITMAP
FE
8C
10
20
FE
0C
18
30
78
0C
06
06
06
06
06
0C
C8
F0
ENDCHAR
STARTCHAR uni2126
ENCODING 8486
SWIDTH 763 0
DWIDTH 15 0
BBX 14 14 1 0
BITMAP
0F80
3860
7030
6038
E018
C018
C018
E018
6038
7030
3060
8884
F8FC
F8FC
ENDCHAR
STARTCHAR uni2127
ENCODING 8487
SWIDTH 763 0
DWIDTH 15 0
BBX 14 13 1 0
BITMAP
F8FC
F8FC
8884
3060
6030
6038
E018
C018
C018
E038
6030
3060
0FC0
ENDCHAR
STARTCHAR uni2128
ENCODING 8488
SWIDTH 641 0
DWIDTH 13 0
BBX 11 17 1 -4
BITMAP
0F00
31C0
40C0
40E0
00C0
00C0
1980
0700
0980
10C0
0060
0060
7060
F060
B8C0
18C0
0F00
ENDCHAR
STARTCHAR uni2129
ENCODING 8489
SWIDTH 368 0
DWIDTH 7 0
BBX 5 9 1 1
BITMAP
70
B8
38
38
38
38
38
38
38
ENDCHAR
STARTCHAR uni212A
ENCODING 8490
SWIDTH 702 0
DWIDTH 14 0
BBX 13 14 1 0
BITMAP
F9F0
30C0
2080
2100
2200
2400
2800
3C00
2600
2300
2180
20C0
30E0
F9F8
ENDCHAR
STARTCHAR uni212B
ENCODING 8491
SWIDTH 722 0
DWIDTH 14 0
BBX 14 17 0 0
BITMAP
0300
0480
0480
0680
0300
0300
0380
0580
04C0
08C0
08E0
1860
1FE0
3030
2030
6038
F07C
ENDCHAR
STARTCHAR uni212C
ENCODING 8492
SWIDTH 754 0
DWIDTH 15 0
BBX 13 14 1 0
BITMAP
0100
0FF0
3318
6318
6210
4220
07E0
0630
0418
0418
0810
0830
3060
FF80
ENDCHAR
STARTCHAR uni212D
ENCODING 8493
SWIDTH 639 0
DWIDTH 13 0
BBX 11 14 1 0
BITMAP
3D20
63C0
6580
C400
C400
C600
C300
C300
C180
E300
6640
70C0
3F80
1F00
ENDCHAR
STARTCHAR estimated
ENCODING 8494
SWIDTH 863 0
DWIDTH 17 0
BBX 16 14 1 -1
BITMAP
07E0
1818
200C
6004
E006
E006
FFFF
E000
E000
E000
6000
200C
1830
07E0
ENDCHAR
STARTCHAR uni212F
ENCODING 8495
SWIDTH 527 0
DWIDTH 11 0
BBX 10 10 0 0
BITMAP
0780
0C80
1880
1100
3600
3C00
70C0
A080
3100
1E00
ENDCHAR
STARTCHAR uni2130
ENCODING 8496
SWIDTH 572 0
DWIDTH 11 0
BBX 10 14 1 0
BITMAP
0F80
18C0
30C0
30C0
3000
1800
1E00
7000
C000
C000
C080
C180
E300
7E00
ENDCHAR
STARTCHAR uni2131
ENCODING 8497
SWIDTH 713 0
DWIDTH 14 0
BBX 16 14 0 0
BITMAP
0041
07FE
18C0
30C0
3080
0180
07F0
0180
0180
0100
0300
0200
C400
7800
ENDCHAR
STARTCHAR uni2132
ENCODING 8498
SWIDTH 588 0
DWIDTH 12 0
BBX 11 14 0 0
BITMAP
07E0
0180
0180
0180
0180
2180
2180
3F80
2180
2180
0180
8180
C180
FFE0
ENDCHAR
STARTCHAR uni2133
ENCODING 8499
SWIDTH 1038 0
DWIDTH 21 0
BBX 22 14 0 0
BITMAP
0F0038
1380CC
2381C0
0282C0
02C4C0
02C480
02C980
044980
045180
045180
046180
086100
C843A0
F041C0
ENDCHAR
STARTCHAR uni2134
ENCODING 8500
SWIDTH 691 0
DWIDTH 14 0
BBX 15 10 -1 0
BITMAP
00E0
0330
0232
043C
0C10
1C30
2C30
4C20
8440
0780
ENDCHAR
STARTCHAR uni2135
ENCODING 8501
SWIDTH 698 0
DWIDTH 14 0
BBX 12 14 1 0
BITMAP
8080
C0C0
E0E0
7070
3870
3C50
6E40
C780
C380
E1C0
70E0
3070
3830
F010
ENDCHAR
STARTCHAR uni2136
ENCODING 8502
SWIDTH 654 0
DWIDTH 13 0
BBX 11 14 1 0
BITMAP
4000
4700
7F80
79C0
00C0
0040
0040
0040
0040
0040
0080
0080
7FE0
FFC0
ENDCHAR
STARTCHAR uni2137
ENCODING 8503
SWIDTH 517 0
DWIDTH 10 0
BBX 8 15 1 -1
BITMAP
20
20
3C
1E
06
06
04
04
04
06
0A
0B
7B
F1
80
ENDCHAR
STARTCHAR uni2138
ENCODING 8504
SWIDTH 613 0
DWIDTH 12 0
BBX 9 15 1 -1
BITMAP
4000
C000
FF80
7F80
0080
0100
0300
0300
0300
0300
0300
0380
0300
0300
0200
ENDCHAR
STARTCHAR uni2139
ENCODING 8505
SWIDTH 361 0
DWIDTH 7 0
BBX 7 14 0 0
BITMAP
38
3C
38
38
00
F8
38
38
38
38
38
38
38
FE
ENDCHAR
STARTCHAR uni213A
ENCODING 8506
SWIDTH 907 0
DWIDTH 18 0
BBX 17 14 1 0
BITMAP
000080
0F8080
3FE080
703180
400980
800B00
800F00
800600
800C00
800800
401800
603000
3FE000
0FC000
ENDCHAR
STARTCHAR uni213B
ENCODING 8507
SWIDTH 1216 0
DWIDTH 24 0
BBX 23 8 1 5
BITMAP
FE21CE
4260C8
447070
789030
449878
41F858
410C8C
E39FCE
ENDCHAR
STARTCHAR uni213C
ENCODING 8508
SWIDTH 689 0
DWIDTH 14 0
BBX 13 9 0 0
BITMAP
FFF8
2940
2940
2940
2940
2940
2940
2948
38F0
ENDCHAR
STARTCHAR uni213D
ENCODING 8509
SWIDTH 552 0
DWIDTH 11 0
BBX 11 14 0 -5
BITMAP
2020
D040
4880
2480
1500
1B00
0B00
0500
0500
0A80
0A80
0A80
0B00
0700
ENDCHAR
STARTCHAR uni213E
ENCODING 8510
SWIDTH 550 0
DWIDTH 11 0
BBX 10 13 1 0
BITMAP
FFC0
9000
9000
9000
9000
9000
9000
9000
9000
9000
9000
9000
F000
ENDCHAR
STARTCHAR uni213F
ENCODING 8511
SWIDTH 714 0
DWIDTH 14 0
BBX 12 13 1 0
BITMAP
FFF0
9050
9050
9050
9050
9050
9050
9050
9050
9050
9050
9050
F070
ENDCHAR
STARTCHAR uni2140
ENCODING 8512
SWIDTH 945 0
DWIDTH 19 0
BBX 17 21 1 -5
BITMAP
FFFE00
C40000
460000
220000
310000
118000
088000
0CC000
044000
062000
023000
022000
044000
0CC000
088000
118000
310000
220000
660000
440000
FFFF80
ENDCHAR
STARTCHAR uni2141
ENCODING 8513
SWIDTH 711 0
DWIDTH 14 0
BBX 13 14 1 0
BITMAP
3F00
7FC0
C0E0
C070
C030
C018
F018
F018
0018
0030
4030
60E0
7FC0
1F00
ENDCHAR
STARTCHAR uni2142
ENCODING 8514
SWIDTH 572 0
DWIDTH 11 0
BBX 10 14 0 0
BITMAP
7FC0
FFC0
00C0
00C0
00C0
00C0
00C0
00C0
00C0
00C0
00C0
00C0
00C0
00C0
ENDCHAR
STARTCHAR uni2143
ENCODING 8515
SWIDTH 572 0
DWIDTH 11 0
BBX 10 14 0 0
BITMAP
00C0
00C0
00C0
00C0
00C0
00C0
00C0
00C0
00C0
00C0
00C0
00C0
FFC0
7FC0
ENDCHAR
STARTCHAR uni2144
ENCODING 8516
SWIDTH 645 0
DWIDTH 13 0
BBX 12 14 0 0
BITMAP
0200
0200
0200
0200
0200
0200
0200
0700
0D80
1980
18C0
3060
6020
E030
ENDCHAR
STARTCHAR uni2145
ENCODING 8517
SWIDTH 717 0
DWIDTH 14 0
BBX 14 13 0 0
BITMAP
1FE0
1410
2418
2418
2814
2824
2824
4828
4828
5048
5050
5060
FF80
ENDCHAR
STARTCHAR uni2146
ENCODING 8518
SWIDTH 607 0
DWIDTH 12 0
BBX 12 14 1 0
BITMAP
00F0
00A0
00A0
00A0
3D20
7320
D140
A140
A140
A240
A280
C280
C680
7F80
ENDCHAR
STARTCHAR uni2147
ENCODING 8519
SWIDTH 520 0
DWIDTH 10 0
BBX 9 10 1 0
BITMAP
1E00
6300
E300
A280
A480
BF00
A000
C100
C200
7C00
ENDCHAR
STARTCHAR uni2148
ENCODING 8520
SWIDTH 285 0
DWIDTH 6 0
BBX 6 14 0 0
BITMAP
1C
14
3C
00
00
38
28
48
50
50
50
50
90
E0
ENDCHAR
STARTCHAR uni2149
ENCODING 8521
SWIDTH 284 0
DWIDTH 6 0
BBX 9 18 -3 -4
BITMAP
0380
0280
0780
0000
0700
0500
0500
0900
0A00
0A00
0A00
1200
1400
1400
1400
1400
3800
F000
ENDCHAR
STARTCHAR uni214A
ENCODING 8522
SWIDTH 680 0
DWIDTH 14 0
BBX 11 14 1 0
BITMAP
0800
0800
0800
FF80
8860
8820
8820
8820
0860
0FC0
0800
0800
0800
0FC0
ENDCHAR
STARTCHAR uni214B
ENCODING 8523
SWIDTH 736 0
DWIDTH 15 0
BBX 13 13 1 0
BITMAP
71F0
9E18
0E18
0E18
1318
11B0
30C0
F9C0
0240
0460
0460
0440
0380
ENDCHAR
STARTCHAR uni214C
ENCODING 8524
SWIDTH 794 0
DWIDTH 16 0
BBX 15 14 0 0
BITMAP
3878
4C8C
4D06
8D06
0FC6
3D66
2D1C
2D38
1FC8
0D04
0D04
0D00
0D00
0600
ENDCHAR
STARTCHAR uni214D
ENCODING 8525
SWIDTH 1010 0
DWIDTH 20 0
BBX 20 14 0 0
BITMAP
080100
0C0100
140200
140400
260400
3E09E0
230B20
411220
E3A300
0020C0
004060
004230
008220
0183E0
ENDCHAR
STARTCHAR uni214E
ENCODING 8526
SWIDTH 473 0
DWIDTH 9 0
BBX 7 11 1 0
BITMAP
06
06
06
06
06
7E
7E
06
06
FE
FE
ENDCHAR
STARTCHAR uni214F
ENCODING 8527
SWIDTH 1161 0
DWIDTH 23 0
BBX 23 10 0 0
BITMAP
0C3860
1E7CF0
134D90
134510
114510
126590
1A28B0
0C38E0
FFFFFE
F3EF9E
ENDCHAR
STARTCHAR onethird
ENCODING 8531
SWIDTH 899 0
DWIDTH 18 0
BBX 16 14 1 0
BITMAP
E010
2020
2020
2040
2040
208E
2113
2123
FA02
020E
0403
0801
0821
103E
ENDCHAR
STARTCHAR twothirds
ENCODING 8532
SWIDTH 948 0
DWIDTH 19 0
BBX 17 14 1 0
BITMAP
780800
881000
0C1000
082000
182000
204F00
449180
FC8180
010100
010700
020180
040080
041080
081F00
ENDCHAR
STARTCHAR uni2155
ENCODING 8533
SWIDTH 867 0
DWIDTH 17 0
BBX 16 14 1 0
BITMAP
E010
2020
2020
2040
2040
209E
2110
2120
FA3C
0202
0403
0803
0822
103C
ENDCHAR
STARTCHAR uni2156
ENCODING 8534
SWIDTH 916 0
DWIDTH 18 0
BBX 17 14 1 0
BITMAP
780800
881000
0C1000
082000
182000
244F00
448800
FC9000
011E00
010100
020180
040100
041100
081E00
ENDCHAR
STARTCHAR uni2157
ENCODING 8535
SWIDTH 896 0
DWIDTH 18 0
BBX 16 14 1 0
BITMAP
7018
8810
0820
1020
7840
088F
0C90
8910
F11E
0203
0401
0401
0811
183E
ENDCHAR
STARTCHAR uni2158
ENCODING 8536
SWIDTH 929 0
DWIDTH 19 0
BBX 17 14 1 0
BITMAP
080800
180800
281000
482000
882000
FC4F80
088800
088800
010E00
010100
020080
040080
041100
081E00
ENDCHAR
STARTCHAR uni2159
ENCODING 8537
SWIDTH 871 0
DWIDTH 17 0
BBX 16 14 1 0
BITMAP
E010
2020
2020
2040
2040
2086
2118
6130
FA3E
0263
0463
0823
0822
101E
ENDCHAR
STARTCHAR uni215A
ENCODING 8538
SWIDTH 871 0
DWIDTH 17 0
BBX 16 14 1 0
BITMAP
7810
8020
8020
F040
0840
088E
0910
8930
F23E
0263
0463
0823
0822
101E
ENDCHAR
STARTCHAR oneeighth
ENCODING 8539
SWIDTH 887 0
DWIDTH 18 0
BBX 16 14 1 0
BITMAP
E010
6020
2020
2040
2040
209C
2123
2123
FA32
021C
0412
0821
0821
101E
ENDCHAR
STARTCHAR threeeighths
ENCODING 8540
SWIDTH 911 0
DWIDTH 18 0
BBX 17 14 1 0
BITMAP
701800
881000
082000
102000
784000
088E00
0C9100
891100
F11B00
020E00
041300
043180
083100
181F00
ENDCHAR
STARTCHAR fiveeighths
ENCODING 8541
SWIDTH 891 0
DWIDTH 18 0
BBX 16 14 1 0
BITMAP
7810
8020
8020
F040
0840
089E
0933
8921
F232
020C
0413
0821
0821
101E
ENDCHAR
STARTCHAR seveneighths
ENCODING 8542
SWIDTH 847 0
DWIDTH 17 0
BBX 16 14 0 0
BITMAP
7E10
8420
0C20
0840
0840
109E
1123
2123
221A
020C
0433
0821
0821
101E
ENDCHAR
STARTCHAR uni2190
ENCODING 8592
SWIDTH 948 0
DWIDTH 19 0
BBX 17 7 1 2
BITMAP
0C0000
080000
300000
FFFF80
300000
100000
0C0000
ENDCHAR
STARTCHAR uni2191
ENCODING 8593
SWIDTH 523 0
DWIDTH 10 0
BBX 8 17 1 -3
BITMAP
08
18
1C
3E
49
89
08
08
08
08
08
08
08
08
08
08
08
ENDCHAR
STARTCHAR uni2192
ENCODING 8594
SWIDTH 948 0
DWIDTH 19 0
BBX 17 8 1 1
BITMAP
001000
000800
000600
FFFF80
000600
000400
000800
001000
ENDCHAR
STARTCHAR uni2193
ENCODING 8595
SWIDTH 523 0
DWIDTH 10 0
BBX 8 17 1 -3
BITMAP
08
08
08
08
08
08
08
08
08
08
08
88
49
3E
1C
18
08
ENDCHAR
STARTCHAR uni2194
ENCODING 8596
SWIDTH 948 0
DWIDTH 19 0
BBX 17 8 1 1
BITMAP
080800
100400
200200
FFFF80
600300
100400
080800
000800
ENDCHAR
STARTCHAR uni2195
ENCODING 8597
SWIDTH 523 0
DWIDTH 10 0
BBX 8 20 1 -5
BITMAP
08
08
18
3C
4A
89
08
08
08
08
08
08
08
08
88
49
3E
1C
18
08
ENDCHAR
STARTCHAR uni2196
ENCODING 8598
SWIDTH 948 0
DWIDTH 19 0
BBX 17 17 1 -3
BITMAP
800000
7E0000
700000
700000
580000
4C0000
460000
030000
018000
00C000
006000
003000
001800
000C00
000600
000300
000180
ENDCHAR
STARTCHAR uni2197
ENCODING 8599
SWIDTH 948 0
DWIDTH 19 0
BBX 17 17 1 -3
BITMAP
000080
003F00
000700
000700
000D00
001900
003100
006000
00C000
018000
030000
060000
0C0000
180000
300000
600000
C00000
ENDCHAR
STARTCHAR uni2198
ENCODING 8600
SWIDTH 948 0
DWIDTH 19 0
BBX 17 17 1 -4
BITMAP
400000
E00000
300000
180000
0C0000
060000
030000
018000
00C000
006000
002100
001100
000900
000700
000700
003F00
000080
ENDCHAR
STARTCHAR uni2199
ENCODING 8601
SWIDTH 948 0
DWIDTH 19 0
BBX 17 17 1 -4
BITMAP
000100
000380
000600
000C00
001800
003000
006000
00C000
018000
030000
460000
440000
480000
700000
700000
7E0000
800000
ENDCHAR
STARTCHAR uni219A
ENCODING 8602
SWIDTH 948 0
DWIDTH 19 0
BBX 17 8 1 1
BITMAP
0C0800
101000
303000
FFFF80
304000
104000
088000
058000
ENDCHAR
STARTCHAR uni219B
ENCODING 8603
SWIDTH 948 0
DWIDTH 19 0
BBX 17 8 1 1
BITMAP
009800
010400
010600
FFFF80
060600
040400
080800
081000
ENDCHAR
STARTCHAR uni219C
ENCODING 8604
SWIDTH 948 0
DWIDTH 19 0
BBX 17 7 1 2
BITMAP
820000
7C0000
701E00
386380
27C100
200000
200000
ENDCHAR
STARTCHAR uni219D
ENCODING 8605
SWIDTH 948 0
DWIDTH 19 0
BBX 17 7 1 2
BITMAP
002080
001F00
3C0700
630E00
C1F200
000200
000200
ENDCHAR
STARTCHAR uni219E
ENCODING 8606
SWIDTH 948 0
DWIDTH 19 0
BBX 17 7 1 2
BITMAP
0C4000
188000
310000
FFFF80
330000
108000
0C4000
ENDCHAR
STARTCHAR uni219F
ENCODING 8607
SWIDTH 523 0
DWIDTH 10 0
BBX 8 17 1 -3
BITMAP
08
08
1C
3E
49
89
18
3C
4A
89
08
08
08
08
08
08
08
ENDCHAR
STARTCHAR uni21A0
ENCODING 8608
SWIDTH 948 0
DWIDTH 19 0
BBX 17 7 1 2
BITMAP
011000
008800
004600
FFFF80
006600
008400
011800
ENDCHAR
STARTCHAR uni21A1
ENCODING 8609
SWIDTH 523 0
DWIDTH 10 0
BBX 8 17 1 -3
BITMAP
08
08
08
08
08
08
08
88
49
3E
1C
08
C9
3E
1C
18
08
ENDCHAR
STARTCHAR uni21A2
ENCODING 8610
SWIDTH 948 0
DWIDTH 19 0
BBX 17 7 1 2
BITMAP
0C0180
180200
300600
FFFC00
300400
100200
0C0180
ENDCHAR
STARTCHAR uni21A3
ENCODING 8611
SWIDTH 948 0
DWIDTH 19 0
BBX 17 7 1 2
BITMAP
C01000
200800
300600
1FFF80
100600
200400
C01800
ENDCHAR
STARTCHAR uni21A4
ENCODING 8612
SWIDTH 948 0
DWIDTH 19 0
BBX 17 8 1 1
BITMAP
0C0080
180080
300080
FFFF80
300080
100080
080080
040080
ENDCHAR
STARTCHAR uni21A5
ENCODING 8613
SWIDTH 523 0
DWIDTH 10 0
BBX 8 16 1 -3
BITMAP
08
18
3C
4A
89
08
08
08
08
08
08
08
08
08
08
FF
ENDCHAR
STARTCHAR uni21A6
ENCODING 8614
SWIDTH 948 0
DWIDTH 19 0
BBX 17 8 1 1
BITMAP
801800
800C00
800600
FFFF80
800600
800400
800800
801000
ENDCHAR
STARTCHAR uni21A7
ENCODING 8615
SWIDTH 523 0
DWIDTH 10 0
BBX 8 17 1 -3
BITMAP
FF
08
08
08
08
08
08
08
08
08
08
89
4A
3C
1C
08
08
ENDCHAR
STARTCHAR uni21A8
ENCODING 8616
SWIDTH 523 0
DWIDTH 10 0
BBX 8 16 1 -3
BITMAP
08
18
3C
4A
89
08
08
08
08
08
C9
3A
1C
18
08
FF
ENDCHAR
STARTCHAR uni21A9
ENCODING 8617
SWIDTH 948 0
DWIDTH 19 0
BBX 17 11 1 1
BITMAP
001E00
000300
040100
080180
100100
300300
FFFE00
300000
100000
080000
040000
ENDCHAR
STARTCHAR uni21AA
ENCODING 8618
SWIDTH 948 0
DWIDTH 19 0
BBX 17 11 1 1
BITMAP
3C0000
600000
401000
C00800
400400
600600
3FFF80
000600
000400
000800
001000
ENDCHAR
STARTCHAR uni21AB
ENCODING 8619
SWIDTH 948 0
DWIDTH 19 0
BBX 17 12 1 0
BITMAP
000E00
001300
042100
082180
102100
302300
FFFE00
302000
102000
082000
042000
002000
ENDCHAR
STARTCHAR uni21AC
ENCODING 8620
SWIDTH 948 0
DWIDTH 19 0
BBX 17 12 1 0
BITMAP
380000
640000
421000
C20800
420400
620600
3FFF80
020600
020400
020800
021000
020000
ENDCHAR
STARTCHAR uni21AD
ENCODING 8621
SWIDTH 1229 0
DWIDTH 25 0
BBX 23 8 1 2
BITMAP
080040
103020
102810
204818
FC44FE
224598
118310
080060
ENDCHAR
STARTCHAR uni21AE
ENCODING 8622
SWIDTH 948 0
DWIDTH 19 0
BBX 17 8 1 1
BITMAP
086800
104400
20C200
FFFF80
608300
110400
110800
0A0800
ENDCHAR
STARTCHAR uni21AF
ENCODING 8623
SWIDTH 523 0
DWIDTH 10 0
BBX 8 17 1 -4
BITMAP
01
03
06
0C
18
30
30
7F
86
06
8C
98
50
70
6E
70
80
ENDCHAR
STARTCHAR uni21B0
ENCODING 8624
SWIDTH 474 0
DWIDTH 9 0
BBX 8 16 1 -3
BITMAP
08
10
20
FF
63
13
0B
03
03
03
03
03
03
03
03
03
ENDCHAR
STARTCHAR uni21B1
ENCODING 8625
SWIDTH 474 0
DWIDTH 9 0
BBX 8 16 1 -3
BITMAP
10
08
0C
FF
8C
88
90
80
80
80
80
80
80
80
80
80
ENDCHAR
STARTCHAR uni21B2
ENCODING 8626
SWIDTH 474 0
DWIDTH 9 0
BBX 9 16 0 -3
BITMAP
0180
0180
0180
0180
0180
0180
0180
0180
0180
0580
0980
3180
FF80
3000
1800
0400
ENDCHAR
STARTCHAR uni21B3
ENCODING 8627
SWIDTH 474 0
DWIDTH 9 0
BBX 8 16 1 -3
BITMAP
80
80
80
80
80
80
80
80
80
90
88
8C
FF
0C
08
10
ENDCHAR
STARTCHAR uni21B4
ENCODING 8628
SWIDTH 948 0
DWIDTH 19 0
BBX 17 17 1 -4
BITMAP
FFF800
000800
000800
000800
000800
000800
000800
000800
000800
000800
000800
008880
004900
003E00
001C00
000800
000800
ENDCHAR
STARTCHAR uni21B5
ENCODING 8629
SWIDTH 948 0
DWIDTH 19 0
BBX 17 16 1 -3
BITMAP
000180
000180
000180
000180
000180
000180
000180
000180
000180
040180
080180
300180
FFFF80
300000
100000
0C0000
ENDCHAR
STARTCHAR uni21B6
ENCODING 8630
SWIDTH 948 0
DWIDTH 19 0
BBX 17 11 1 0
BITMAP
01F800
030C00
040200
080100
180180
910080
520080
3C0000
380000
100000
100000
ENDCHAR
STARTCHAR uni21B7
ENCODING 8631
SWIDTH 948 0
DWIDTH 19 0
BBX 17 11 1 0
BITMAP
0FC000
186000
601000
400800
C00C00
804C80
802500
001E00
000E00
000400
000400
ENDCHAR
STARTCHAR uni21B8
ENCODING 8632
SWIDTH 948 0
DWIDTH 19 0
BBX 17 18 1 -3
BITMAP
FFFF80
800000
7E0000
600000
700000
580000
4C0000
460000
030000
018000
00C000
006000
003000
001800
000C00
000600
000300
000180
ENDCHAR
STARTCHAR uni21B9
ENCODING 8633
SWIDTH 948 0
DWIDTH 19 0
BBX 17 14 1 -2
BITMAP
840000
8C0000
980000
FFFF80
980000
880000
840000
841080
000880
000C80
FFFF80
000C80
000880
001080
ENDCHAR
STARTCHAR uni21BA
ENCODING 8634
SWIDTH 997 0
DWIDTH 20 0
BBX 16 16 2 -2
BITMAP
000E
0470
1C78
303C
6026
6016
4012
C002
C003
C003
4002
4002
6004
300C
1838
07E0
ENDCHAR
STARTCHAR uni21BB
ENCODING 8635
SWIDTH 997 0
DWIDTH 20 0
BBX 16 16 2 -2
BITMAP
7000
0E20
1E38
3C0C
6404
6806
4802
C002
C003
C003
4002
4002
6004
300C
1838
07E0
ENDCHAR
STARTCHAR uni21BC
ENCODING 8636
SWIDTH 978 0
DWIDTH 20 0
BBX 17 5 1 5
BITMAP
060000
0C0000
180000
300000
FFFF80
ENDCHAR
STARTCHAR uni21BD
ENCODING 8637
SWIDTH 978 0
DWIDTH 20 0
BBX 17 5 1 1
BITMAP
FFFF80
300000
100000
080000
060000
ENDCHAR
STARTCHAR uni21BE
ENCODING 8638
SWIDTH 523 0
DWIDTH 10 0
BBX 4 17 5 -3
BITMAP
80
80
80
C0
A0
90
80
80
80
80
80
80
80
80
80
80
80
ENDCHAR
STARTCHAR uni21BF
ENCODING 8639
SWIDTH 523 0
DWIDTH 10 0
BBX 5 17 1 -3
BITMAP
08
08
08
18
68
88
08
08
08
08
08
08
08
08
08
08
08
ENDCHAR
STARTCHAR uni21C0
ENCODING 8640
SWIDTH 978 0
DWIDTH 20 0
BBX 17 5 1 5
BITMAP
001000
000800
000400
000600
FFFF80
ENDCHAR
STARTCHAR uni21C1
ENCODING 8641
SWIDTH 978 0
DWIDTH 20 0
BBX 17 5 1 1
BITMAP
FFFF80
000700
000400
000800
001000
ENDCHAR
STARTCHAR uni21C2
ENCODING 8642
SWIDTH 523 0
DWIDTH 10 0
BBX 4 18 5 -4
BITMAP
80
80
80
80
80
80
80
80
80
80
80
80
90
A0
C0
80
80
80
ENDCHAR
STARTCHAR uni21C3
ENCODING 8643
SWIDTH 523 0
DWIDTH 10 0
BBX 5 17 1 -3
BITMAP
08
08
08
08
08
08
08
08
08
08
08
08
88
68
18
18
08
ENDCHAR
STARTCHAR uni21C4
ENCODING 8644
SWIDTH 948 0
DWIDTH 19 0
BBX 17 14 1 -2
BITMAP
001000
000800
000600
7FFF80
000600
000400
000800
0C1000
180000
300000
FFFF00
300000
180000
0C0000
ENDCHAR
STARTCHAR uni21C5
ENCODING 8645
SWIDTH 791 0
DWIDTH 16 0
BBX 14 17 1 -3
BITMAP
1060
1860
3860
7C60
9260
1160
1060
1060
1060
1060
1060
1260
1164
10F8
1070
1060
1020
ENDCHAR
STARTCHAR uni21C6
ENCODING 8646
SWIDTH 948 0
DWIDTH 19 0
BBX 17 14 1 -2
BITMAP
040000
080000
300000
FFFF00
300000
100000
080000
041800
000C00
000600
7FFF80
000600
000C00
001000
ENDCHAR
STARTCHAR uni21C7
ENCODING 8647
SWIDTH 948 0
DWIDTH 19 0
BBX 17 14 1 -2
BITMAP
040000
080000
300000
FFFF80
300000
100000
080000
0C0000
180000
300000
FFFF80
300000
180000
0C0000
ENDCHAR
STARTCHAR uni21C8
ENCODING 8648
SWIDTH 791 0
DWIDTH 16 0
BBX 14 17 1 -3
BITMAP
1020
1060
3870
7CF0
9368
9064
1060
1060
1060
1060
1060
1060
1060
1060
1060
1060
1060
ENDCHAR
STARTCHAR uni21C9
ENCODING 8649
SWIDTH 948 0
DWIDTH 19 0
BBX 17 14 1 -2
BITMAP
001000
000800
000600
FFFF80
000600
000400
000800
001800
000C00
000600
FFFF80
000600
000C00
001000
ENDCHAR
STARTCHAR uni21CA
ENCODING 8650
SWIDTH 791 0
DWIDTH 16 0
BBX 14 17 1 -3
BITMAP
1060
1060
1060
1060
1060
1060
1060
1060
1060
1060
1060
1060
9364
7CF8
3870
1060
1020
ENDCHAR
STARTCHAR uni21CB
ENCODING 8651
SWIDTH 948 0
DWIDTH 19 0
BBX 17 11 1 0
BITMAP
040000
080000
100000
7FFF80
800000
000000
000000
FFFF80
000400
000800
001000
ENDCHAR
STARTCHAR uni21CC
ENCODING 8652
SWIDTH 948 0
DWIDTH 19 0
BBX 17 11 1 0
BITMAP
001000
000800
000400
FFFF00
000080
000000
000000
FFFF80
100000
080000
040000
ENDCHAR
STARTCHAR uni21CD
ENCODING 8653
SWIDTH 948 0
DWIDTH 19 0
BBX 17 13 1 -1
BITMAP
010100
020200
060200
0C0400
1FFF80
600C00
E00800
600800
1FFF80
0C1000
062000
032000
014000
ENDCHAR
STARTCHAR uni21CE
ENCODING 8654
SWIDTH 948 0
DWIDTH 19 0
BBX 19 11 0 0
BITMAP
022800
062C00
0C2600
1FFF00
204080
E040E0
204080
1FFF00
0C8600
028800
028800
ENDCHAR
STARTCHAR uni21CF
ENCODING 8655
SWIDTH 948 0
DWIDTH 19 0
BBX 17 13 1 -1
BITMAP
014000
026000
023000
041800
FFFC00
080300
080380
180300
FFFC00
301800
203000
204000
404000
ENDCHAR
STARTCHAR uni21D0
ENCODING 8656
SWIDTH 887 0
DWIDTH 18 0
BBX 17 12 1 -1
BITMAP
010000
020000
0C0000
1FFF80
200000
E00000
600000
1FFF80
0C0000
060000
010000
010000
ENDCHAR
STARTCHAR uni21D1
ENCODING 8657
SWIDTH 720 0
DWIDTH 14 0
BBX 12 16 1 -3
BITMAP
0200
0700
0900
1880
18C0
38E0
5890
9890
1880
1880
1880
1880
1880
1880
1880
1880
ENDCHAR
STARTCHAR uni21D2
ENCODING 8658
SWIDTH 887 0
DWIDTH 18 0
BBX 17 12 0 -1
BITMAP
004000
002000
001000
FFFC00
000600
000380
000200
FFFC00
001800
002000
004000
004000
ENDCHAR
STARTCHAR uni21D3
ENCODING 8659
SWIDTH 720 0
DWIDTH 14 0
BBX 12 17 1 -3
BITMAP
1880
1880
1880
1880
1880
1880
1880
1880
1880
9890
58A0
38C0
18C0
0880
0900
0600
0200
ENDCHAR
STARTCHAR uni21D4
ENCODING 8660
SWIDTH 948 0
DWIDTH 19 0
BBX 19 11 0 0
BITMAP
020800
020800
0C0600
1FFF00
200080
E000E0
200080
1FFF00
0C0600
060C00
020800
ENDCHAR
STARTCHAR uni21D5
ENCODING 8661
SWIDTH 720 0
DWIDTH 14 0
BBX 12 19 1 -5
BITMAP
0200
0700
0900
1880
18C0
38E0
5890
9890
1880
1880
1880
9890
58A0
38E0
18C0
1880
0900
0600
0200
ENDCHAR
STARTCHAR uni21D6
ENCODING 8662
SWIDTH 948 0
DWIDTH 19 0
BBX 17 17 1 -3
BITMAP
F00000
FFC000
CE0000
460000
630000
618000
70C000
586000
4C3000
461800
030C00
018600
00C300
006180
003000
001800
000C00
ENDCHAR
STARTCHAR uni21D7
ENCODING 8663
SWIDTH 948 0
DWIDTH 19 0
BBX 17 17 1 -3
BITMAP
000780
01FF80
003980
003100
006100
00C300
018700
030900
061100
0C2100
184000
308000
610000
C20000
040000
080000
100000
ENDCHAR
STARTCHAR uni21D8
ENCODING 8664
SWIDTH 948 0
DWIDTH 19 0
BBX 17 17 1 -3
BITMAP
100000
180000
0C0000
460000
C30000
618000
30C000
186100
043100
021900
010F00
00C700
006300
003100
003980
01FF80
000780
ENDCHAR
STARTCHAR uni21D9
ENCODING 8665
SWIDTH 948 0
DWIDTH 19 0
BBX 17 17 1 -3
BITMAP
000400
000C00
001800
003100
006180
00C300
018600
430C00
461000
4C2000
784000
708000
630000
460000
CE0000
FFC000
F00000
ENDCHAR
STARTCHAR uni21DA
ENCODING 8666
SWIDTH 872 0
DWIDTH 17 0
BBX 16 15 1 -2
BITMAP
0100
0200
0400
0FFF
0800
1000
6000
FFFF
6000
3000
1000
0FFF
0400
0200
0100
ENDCHAR
STARTCHAR uni21DB
ENCODING 8667
SWIDTH 872 0
DWIDTH 17 0
BBX 17 15 0 -2
BITMAP
004000
004000
002000
FFF000
000800
000400
000200
FFFF80
000600
000400
000800
FFF000
002000
002000
004000
ENDCHAR
STARTCHAR uni21DC
ENCODING 8668
SWIDTH 948 0
DWIDTH 19 0
BBX 17 7 1 2
BITMAP
0C0000
102000
306000
FEF780
339C00
110800
080000
ENDCHAR
STARTCHAR uni21DD
ENCODING 8669
SWIDTH 948 0
DWIDTH 19 0
BBX 17 7 1 2
BITMAP
001800
020400
030600
F5BF80
1CE600
084400
001800
ENDCHAR
STARTCHAR uni21DE
ENCODING 8670
SWIDTH 523 0
DWIDTH 10 0
BBX 8 17 1 -3
BITMAP
08
18
1C
3E
C9
08
08
08
FF
08
08
FF
08
08
08
08
08
ENDCHAR
STARTCHAR uni21DF
ENCODING 8671
SWIDTH 523 0
DWIDTH 10 0
BBX 8 17 1 -4
BITMAP
08
08
08
08
FF
08
08
FF
08
08
08
89
4A
3C
1C
08
08
ENDCHAR
STARTCHAR uni21E0
ENCODING 8672
SWIDTH 948 0
DWIDTH 19 0
BBX 17 7 1 2
BITMAP
0C0000
100000
300000
FCD980
300000
100000
080000
ENDCHAR
STARTCHAR uni21E1
ENCODING 8673
SWIDTH 523 0
DWIDTH 10 0
BBX 8 17 1 -3
BITMAP
08
18
1C
3E
49
89
08
00
08
08
00
08
08
00
00
08
08
ENDCHAR
STARTCHAR uni21E2
ENCODING 8674
SWIDTH 948 0
DWIDTH 19 0
BBX 17 7 1 2
BITMAP
001800
000400
000600
CD9F80
000600
000400
001800
ENDCHAR
STARTCHAR uni21E3
ENCODING 8675
SWIDTH 523 0
DWIDTH 10 0
BBX 8 16 1 -3
BITMAP
08
08
00
08
08
00
00
08
08
00
08
89
4A
3C
18
08
ENDCHAR
STARTCHAR uni21E4
ENCODING 8676
SWIDTH 948 0
DWIDTH 19 0
BBX 17 8 1 1
BITMAP
860000
880000
980000
FFFF80
980000
880000
840000
820000
ENDCHAR
STARTCHAR uni21E5
ENCODING 8677
SWIDTH 948 0
DWIDTH 19 0
BBX 17 8 1 1
BITMAP
003080
000880
000C80
FFFF80
000C80
000880
001080
002080
ENDCHAR
STARTCHAR uni21E6
ENCODING 8678
SWIDTH 948 0
DWIDTH 19 0
BBX 17 11 1 0
BITMAP
010000
030000
0D0000
19FF80
200080
E00080
600080
11FF80
0D0000
070000
010000
ENDCHAR
STARTCHAR uni21E7
ENCODING 8679
SWIDTH 720 0
DWIDTH 14 0
BBX 12 16 1 -3
BITMAP
0200
0700
0900
1080
2040
6020
F8F0
1880
1880
1880
1880
1880
1880
1880
1880
1F80
ENDCHAR
STARTCHAR uni21E8
ENCODING 8680
SWIDTH 948 0
DWIDTH 19 0
BBX 17 11 1 0
BITMAP
004000
006000
005800
FFCC00
800200
800380
800300
FFC400
005800
006000
004000
ENDCHAR
STARTCHAR uni21E9
ENCODING 8681
SWIDTH 720 0
DWIDTH 14 0
BBX 12 17 1 -3
BITMAP
1F80
1880
1880
1880
1880
1880
1880
1880
1880
F8F0
4020
2040
1040
0880
0900
0600
0200
ENDCHAR
STARTCHAR uni21EA
ENCODING 8682
SWIDTH 720 0
DWIDTH 14 0
BBX 12 18 1 -4
BITMAP
0200
0600
0900
0880
10C0
2040
6020
F8F0
1880
1880
1880
1880
1F80
0000
0000
1F80
1880
1F80
ENDCHAR
STARTCHAR uni21F4
ENCODING 8692
SWIDTH 948 0
DWIDTH 19 0
BBX 17 8 1 1
BITMAP
001000
078800
084400
FFFF80
084600
0CC400
078800
001000
ENDCHAR
STARTCHAR uni21F5
ENCODING 8693
SWIDTH 791 0
DWIDTH 16 0
BBX 14 17 1 -3
BITMAP
1020
1060
1070
10F8
1164
1260
1060
1060
1060
1060
1060
1160
9260
7C60
3860
1060
1060
ENDCHAR
STARTCHAR uni21F6
ENCODING 8694
SWIDTH 948 0
DWIDTH 19 0
BBX 17 19 1 -4
BITMAP
001800
000800
000600
FFFF80
000600
000400
001800
000800
000600
FFFF80
000600
000400
001800
000800
000600
FFFF80
000600
000400
001800
ENDCHAR
STARTCHAR uni21F7
ENCODING 8695
SWIDTH 948 0
DWIDTH 19 0
BBX 17 8 1 1
BITMAP
0C4000
104000
304000
FFFF80
304000
104000
084000
044000
ENDCHAR
STARTCHAR uni21F8
ENCODING 8696
SWIDTH 948 0
DWIDTH 19 0
BBX 17 8 1 1
BITMAP
011800
010400
010600
FFFF80
010600
010400
010800
011000
ENDCHAR
STARTCHAR uni21F9
ENCODING 8697
SWIDTH 948 0
DWIDTH 19 0
BBX 17 8 1 1
BITMAP
088800
108400
208200
FFFF80
608200
108400
088800
088800
ENDCHAR
ENDFONT
